<?xml version="1.0" encoding="UTF-8"?>
<svg version="1.1" xmlns="http://www.w3.org/2000/svg" width="600" height="600">
<path d="M0 0 C7.52202599 1.42958576 14.52887837 3.43449048 21.2109375 7.23046875 C23.28782654 8.26341954 23.28782654 8.26341954 27 8 C27.495 8.99 27.495 8.99 28 10 C28.99 10 29.98 10 31 10 C31 10.66 31 11.32 31 12 C32.85625 12.58201172 32.85625 12.58201172 34.75 13.17578125 C40.66251927 15.15237696 46.31329379 17.64283531 52 20.1875 C53.15266357 20.70143311 54.30532715 21.21536621 55.49291992 21.74487305 C69.84450305 28.18350377 83.97670666 35.09557422 98.08062744 42.05670166 C100.06897309 43.03389764 102.06226041 44.0004863 104.05615234 44.96630859 C105.34353756 45.59579744 106.63081406 46.22550866 107.91796875 46.85546875 C109.06418701 47.41258545 110.21040527 47.96970215 111.39135742 48.54370117 C114 50 114 50 115 52 C115.78375 52.2475 116.5675 52.495 117.375 52.75 C127.3417346 56.18680503 136.42118528 62.5551759 145.4375 67.9375 C147.7273874 69.30158485 150.01798173 70.66447533 152.30859375 72.02734375 C153.42476074 72.69233887 154.54092773 73.35733398 155.69091797 74.04248047 C158.87655718 75.92697621 162.07874192 77.78004842 165.28515625 79.62890625 C170.3296016 82.56528734 175.18951007 85.6971773 180 89 C180.72703125 89.49274414 181.4540625 89.98548828 182.203125 90.49316406 C198.58698968 101.59953387 214.73912343 112.98935986 230.63671875 124.78125 C233.28801127 126.74542593 235.95063287 128.68843877 238.64453125 130.59375 C239.64871094 131.3053125 240.65289062 132.016875 241.6875 132.75 C242.53699219 133.34296875 243.38648438 133.9359375 244.26171875 134.546875 C244.83535156 135.02640625 245.40898437 135.5059375 246 136 C246 136.66 246 137.32 246 138 C246.55945313 138.25007812 247.11890625 138.50015625 247.6953125 138.7578125 C250.37893286 140.20423839 252.52787423 141.927385 254.875 143.875 C255.83535156 144.67164063 256.79570312 145.46828125 257.78515625 146.2890625 C262.46741807 150.22385922 267.1061544 154.20954213 271.73828125 158.203125 C274.79747097 160.83653704 277.89254029 163.42377017 281 166 C279.01658995 170.187199 277.05923116 174.07566808 274.3125 177.8125 C271.89805448 180.80395093 271.89805448 180.80395093 271 184 C270.34 184 269.68 184 269 184 C269 184.99 269 185.98 269 187 C268.34 187 267.68 187 267 187 C266.75378906 187.54527344 266.50757813 188.09054687 266.25390625 188.65234375 C261.36663488 197.80265558 253.62929565 206.09136659 247 214 C246.53158691 214.56009766 246.06317383 215.12019531 245.58056641 215.69726562 C239.85660354 222.523497 234.0839515 229.1555636 227.64453125 235.328125 C225.91345439 236.91609506 225.91345439 236.91609506 225 239 C221.35492135 237.45462103 218.96635452 235.22908215 216.125 232.5 C211.81611241 228.51543728 207.39663678 224.91569981 202.625 221.5 C202.04250488 221.07912109 201.46000977 220.65824219 200.85986328 220.22460938 C197.66918751 217.97928499 194.60430992 216.43676959 191 215 C190.54979492 214.53924072 190.09958984 214.07848145 189.63574219 213.60375977 C171.3042699 195.6307088 123.48500683 179.62373577 98.12207031 178.92016602 C97.42178711 178.94651123 96.72150391 178.97285645 96 179 C96 178.34 96 177.68 96 177 C94.7315625 176.92652344 94.7315625 176.92652344 93.4375 176.8515625 C92.303125 176.77679688 91.16875 176.70203125 90 176.625 C88.88625 176.55539062 87.7725 176.48578125 86.625 176.4140625 C83.43644684 176.04985276 80.53971887 175.36594575 77.44677734 174.54833984 C71.81081079 173.28528049 66.03929623 172.71341324 60.3125 172 C59.62636627 171.91317963 58.94023254 171.82635925 58.23330688 171.73690796 C49.72891824 170.66145001 41.22011972 169.63970501 32.6875 168.8125 C31.95764893 168.74095703 31.22779785 168.66941406 30.47583008 168.59570312 C12.1444367 166.9301316 -6.23208698 166.71857932 -24.625 166.4375 C-27.28907469 166.39459789 -29.95312961 166.35058418 -32.6171875 166.30664062 C-39.07806989 166.20016464 -45.53900559 166.10022005 -52 166 C-52.33 154.12 -52.66 142.24 -53 130 C-52.34 130 -51.68 130 -51 130 C-51.03996094 128.75347656 -51.07992187 127.50695312 -51.12109375 126.22265625 C-51.11997292 120.49410802 -50.123607 115.05145364 -49.0625 109.4375 C-47.86967188 102.96756657 -46.73865705 96.53905869 -46 90 C-45.34 90 -44.68 90 -44 90 C-43.90589844 89.07960938 -43.81179687 88.15921875 -43.71484375 87.2109375 C-42.9461168 81.84741205 -41.21370841 76.77031338 -39.5625 71.625 C-39.09360352 70.11099609 -39.09360352 70.11099609 -38.61523438 68.56640625 C-38.31037109 67.60863281 -38.00550781 66.65085937 -37.69140625 65.6640625 C-37.41498291 64.79217285 -37.13855957 63.9202832 -36.85375977 63.02197266 C-36 61 -36 61 -34 60 C-33.81050781 58.97519531 -33.81050781 58.97519531 -33.6171875 57.9296875 C-32.78020511 53.95666983 -30.99322891 50.70744612 -29.125 47.125 C-26.10196569 41.26765205 -26.10196569 41.26765205 -23.41015625 35.25390625 C-22.21969156 32.50693371 -21.01349715 30.25433259 -19.3125 27.8125 C-18.79042969 27.05324219 -18.26835938 26.29398438 -17.73046875 25.51171875 C-17.15941406 24.68285156 -16.58835938 23.85398438 -16 23 C-14.70674581 21.04271468 -13.41516306 19.08432425 -12.125 17.125 C-8.24408307 11.29613248 -4.16558002 5.6279645 0 0 Z " fill="#211D1E" transform="translate(110,147)"/>
<path d="M0 0 C1.65129208 6.32476024 3.1104002 12.51863004 4 19 C4.30679688 20.06347656 4.61359375 21.12695312 4.9296875 22.22265625 C5.80767741 25.32125568 6.51212433 28.38853682 7.14111328 31.54418945 C9.05157758 40.97807544 11.75716951 50.13470009 14.625 59.3125 C14.82481476 59.95350647 15.02462952 60.59451294 15.23049927 61.25494385 C17.87271194 69.71359443 17.87271194 69.71359443 21 78 C21.56738316 79.44492927 22.13378799 80.89024309 22.69921875 82.3359375 C37.30750303 119.47225927 56.59142176 153.63345351 88 179 C86.59086284 183.87701371 85.16243252 188.70695828 83.3125 193.4375 C81.82714732 196.83640729 81.82714732 196.83640729 82 200 C81.566875 200.53625 81.13375 201.0725 80.6875 201.625 C78.22140496 205.09580043 77.21980506 208.95128533 76 213 C75.34 213 74.68 213 74 213 C73.84362061 213.53294678 73.68724121 214.06589355 73.52612305 214.61499023 C71.59424586 220.82454749 68.91372027 226.35997085 65.8125 232.0625 C65.34908203 232.92810547 64.88566406 233.79371094 64.40820312 234.68554688 C63.27835675 236.79381692 62.1422583 238.89843698 61 241 C56.36870849 238.82143264 53.14891451 235.57885875 49.4375 232.09375 C47.20102506 229.99212499 47.20102506 229.99212499 45 229.03125 C42.11918605 227.54583031 40.25641241 225.31605327 38 223 C35.85239547 221.05654296 33.64882973 219.18284218 31.4375 217.3125 C30.87353516 216.82716797 30.30957031 216.34183594 29.72851562 215.84179688 C26.51961332 213.11524148 26.51961332 213.11524148 22.91015625 210.98046875 C21 210 21 210 18.7890625 207.78125 C15.25976793 204.26184141 11.39838186 201.42810968 7.375 198.5 C6.54613281 197.89269043 5.71726562 197.28538086 4.86328125 196.65966797 C-1.80355463 191.80408972 -8.57922454 187.11895247 -15.40771484 182.49438477 C-20.55759748 179.00510962 -25.6088828 175.42720071 -30.578125 171.68359375 C-33.00607438 169.99577733 -35.51705204 168.54568568 -38.09472656 167.1003418 C-41.56444112 165.09649716 -44.89730965 162.87958509 -48.25 160.6875 C-49.75768605 159.70813864 -51.2654985 158.72897184 -52.7734375 157.75 C-55.23786829 156.1471894 -57.70129174 154.54286168 -60.1640625 152.9375 C-66.2915617 148.9819962 -72.56352077 145.42647865 -79 142 C-80.71134177 141.08896218 -82.41991232 140.17268985 -84.125 139.25 C-85.21167969 138.66992188 -85.21167969 138.66992188 -86.3203125 138.078125 C-88 137 -88 137 -89 135 C-90.64928325 134.29141905 -92.32110979 133.63525576 -94 133 C-96.43062721 131.85490451 -98.84355076 130.69323936 -101.25 129.5 C-101.88679688 129.19191406 -102.52359375 128.88382813 -103.1796875 128.56640625 C-107.88249204 126.23501591 -107.88249204 126.23501591 -109 124 C-110.99420127 123.31618298 -112.99606725 122.65475031 -115 122 C-118.3102445 120.56188842 -121.5594452 119.00000956 -124.8125 117.4375 C-125.73160156 116.99857422 -126.65070313 116.55964844 -127.59765625 116.10742188 C-134.34838987 112.857932 -140.99868918 109.44628423 -147.58129883 105.86889648 C-150.99698593 104.01842971 -154.37130747 102.38154013 -158 101 C-160.35830668 99.98769475 -162.71209071 98.96778822 -165.0625 97.9375 C-165.7544043 97.63513428 -166.44630859 97.33276855 -167.15917969 97.02124023 C-171.04993096 95.31505013 -174.92783339 93.58379515 -178.79296875 91.8203125 C-189.82847524 86.78985414 -200.95254673 82.10616592 -212.25439453 77.70507812 C-214 77 -214 77 -216 76 C-215.3125 73.1875 -215.3125 73.1875 -214 70 C-212.33811662 68.99207073 -210.6703096 67.99390323 -209 67 C-206.06893608 64.49901101 -203.32830392 61.7899717 -200.55273438 59.11914062 C-196.20223787 55 -196.20223787 55 -194 55 C-194 54.34 -194 53.68 -194 53 C-192.57324219 51.67822266 -192.57324219 51.67822266 -190.546875 50.1640625 C-189.79220947 49.60009766 -189.03754395 49.03613281 -188.26000977 48.45507812 C-187.01755493 47.54918945 -187.01755493 47.54918945 -185.75 46.625 C-184.47564087 45.69204102 -184.47564087 45.69204102 -183.17553711 44.74023438 C-150.23686757 21 -150.23686757 21 -141 21 C-140.67 20.34 -140.34 19.68 -140 19 C-138.18642454 18.15492498 -136.33080912 17.39939036 -134.4609375 16.6875 C-133.32269531 16.25179687 -132.18445313 15.81609375 -131.01171875 15.3671875 C-129.81160156 14.91601562 -128.61148438 14.46484375 -127.375 14 C-126.19808594 13.54882812 -125.02117187 13.09765625 -123.80859375 12.6328125 C-118.25289703 10.52052286 -112.75337869 8.4971326 -107 7 C-105.9275 6.690625 -104.855 6.38125 -103.75 6.0625 C-99.62912963 4.89492006 -95.49435495 3.7853938 -91.35546875 2.68359375 C-89.00771057 2.07893926 -89.00771057 2.07893926 -87 1 C-84.62341605 0.6401864 -82.26228949 0.3318071 -79.875 0.0625 C-79.13435303 -0.02177246 -78.39370605 -0.10604492 -77.63061523 -0.19287109 C-52.01910016 -3.02088 -25.47395607 -5.41558906 0 0 Z " fill="#211D1E" transform="translate(339,58)"/>
<path d="M0 0 C63.66325937 -0.55337147 131.93237282 0.31869525 191.82617188 24.65820312 C192.9621582 25.11163086 192.9621582 25.11163086 194.12109375 25.57421875 C194.7958374 25.84838623 195.47058105 26.12255371 196.16577148 26.4050293 C198.15421967 27.15427247 198.15421967 27.15427247 201 27 C201 27.66 201 28.32 201 29 C202.155 29.33 203.31 29.66 204.5 30 C226.25514343 37.34236091 245.9642513 51.94515231 263 67 C261.67192015 69.97367394 260.25698819 71.96022666 257.875 74.171875 C257.25520264 74.75050293 256.63540527 75.32913086 255.99682617 75.92529297 C255.33787354 76.52744629 254.6789209 77.12959961 254 77.75 C253.32880127 78.36891113 252.65760254 78.98782227 251.96606445 79.62548828 C237.34785958 93 237.34785958 93 234 93 C234 93.66 234 94.32 234 95 C232.07460747 96.52607478 230.14851965 97.92607989 228.125 99.3125 C226.82878368 100.21652608 225.53324275 101.12152112 224.23828125 102.02734375 C223.54686035 102.50929199 222.85543945 102.99124023 222.14306641 103.48779297 C219.98610522 105.00980454 217.85556655 106.56276478 215.73046875 108.12890625 C207.17525834 114.42446563 198.49675336 120.37350725 189.45629883 125.95458984 C185.97815363 128.10271165 182.56807148 130.27196516 179.265625 132.68359375 C176.59468618 134.62255406 173.9352052 136.15862879 170.9375 137.5625 C165.00273591 140.44827904 159.22126343 143.57320014 153.4375 146.75 C122.76772497 163.54678641 122.76772497 163.54678641 115.11328125 166.23046875 C112.93919555 166.96636404 112.93919555 166.96636404 110.79296875 168.17578125 C108.3485146 169.35305777 106.72065918 169.96366398 104 170 C99.81387105 167.95372534 96.50189374 165.04239111 93 162 C91.12722369 160.47642922 89.25224983 158.95555538 87.375 157.4375 C86.01761719 156.30828125 86.01761719 156.30828125 84.6328125 155.15625 C82.21757438 153.17819148 79.75203667 151.30342565 77.25 149.4375 C72.89206753 146.07035857 69.50599739 142.22118977 66 138 C64.58939669 136.39049901 63.17265055 134.78636227 61.75 133.1875 C61.10546875 132.45917969 60.4609375 131.73085938 59.796875 130.98046875 C58.75982106 129.83745496 57.69919785 128.713285 56.58203125 127.6484375 C54.13447582 125.09814518 52.06576875 122.25350625 49.9375 119.4375 C46.66094133 115.05643505 46.66094133 115.05643505 43 111 C42.7215625 110.43410156 42.443125 109.86820312 42.15625 109.28515625 C40.89664942 106.79574294 39.36867641 104.57090602 37.77734375 102.28369141 C16.97194481 72.21289117 4.39985273 36.19609015 0 0 Z " fill="#211D1E" transform="translate(59,329)"/>
<path d="M0 0 C2.49361571 1.20381448 4.68143083 2.45428722 7 4 C7 4.66 7 5.32 7 6 C7.55324951 6.22800293 8.10649902 6.45600586 8.67651367 6.69091797 C11.672429 8.37885514 13.74942522 10.50785536 16.17578125 12.9453125 C16.66402878 13.43401825 17.15227631 13.922724 17.65531921 14.42623901 C18.68722198 15.46115667 19.71669944 16.49849751 20.74389648 17.53808594 C22.29174892 19.10400669 23.8472635 20.66196358 25.40429688 22.21875 C30.23884042 27.07070806 34.96685575 31.97500166 39.42358398 37.18066406 C42.14122626 40.31708504 45.02079798 43.3008883 47.875 46.3125 C52.70275403 51.4462026 57.3153028 56.66998201 61.71484375 62.1796875 C64.96829853 66.19506246 68.36461686 70.08314226 71.74804688 73.98901367 C74.51043985 77.19792186 77.14010386 80.44231951 79.625 83.875 C80.800625 85.421875 80.800625 85.421875 82 87 C82.66 87 83.32 87 84 87 C84.10578369 87.57886963 84.21156738 88.15773926 84.32055664 88.75415039 C85.10119829 91.33450343 86.19237272 92.83166142 87.87109375 94.93359375 C88.44537109 95.66513672 89.01964844 96.39667969 89.61132812 97.15039062 C90.21396484 97.90513672 90.81660156 98.65988281 91.4375 99.4375 C92.62914697 100.93186891 93.8155283 102.43045498 94.99609375 103.93359375 C95.52388428 104.59415771 96.0516748 105.25472168 96.59545898 105.93530273 C98.16092727 108.23656561 99.18359064 110.33850009 100 113 C98.8125 115.5625 98.8125 115.5625 97 118 C96.484375 118.763125 95.96875 119.52625 95.4375 120.3125 C94.963125 120.869375 94.48875 121.42625 94 122 C93.34 122 92.68 122 92 122 C91.77699219 122.52980469 91.55398438 123.05960937 91.32421875 123.60546875 C89.53655172 126.83803479 87.21614387 129.52994892 84.8125 132.3125 C84.29510254 132.91336426 83.77770508 133.51422852 83.24462891 134.13330078 C78.95371434 139.04461904 74.46757897 143.74575595 69.875 148.375 C68.89817261 149.36560425 68.89817261 149.36560425 67.90161133 150.3762207 C67.29212646 150.98167725 66.6826416 151.58713379 66.0546875 152.2109375 C65.51312012 152.75024902 64.97155273 153.28956055 64.41357422 153.84521484 C63 155 63 155 61 155 C60.67 155.99 60.34 156.98 60 158 C58.49707031 159.37866211 58.49707031 159.37866211 56.578125 160.77734375 C55.88203125 161.29103516 55.1859375 161.80472656 54.46875 162.33398438 C53.7365625 162.86314453 53.004375 163.39230469 52.25 163.9375 C50.81721464 164.98760798 49.38491211 166.03837509 47.953125 167.08984375 C47.26839111 167.59 46.58365723 168.09015625 45.87817383 168.60546875 C44.31832287 169.76364744 42.79293779 170.96807428 41.27734375 172.18359375 C27.2730207 183.3534226 9.74622457 191.92296567 -6.75 198.75 C-7.86181641 199.22373047 -7.86181641 199.22373047 -8.99609375 199.70703125 C-9.71410156 200.00480469 -10.43210937 200.30257812 -11.171875 200.609375 C-11.8122168 200.87717773 -12.45255859 201.14498047 -13.11230469 201.42089844 C-15 202 -15 202 -19 202 C-19.80624443 197.79338709 -20.09800737 193.87708281 -20.02734375 189.59765625 C-20.0133252 188.38561523 -19.99930664 187.17357422 -19.98486328 185.92480469 C-19.9692334 184.65024414 -19.95360352 183.37568359 -19.9375 182.0625 C-19.85271026 161.10144822 -22.26971055 139.32972703 -31 120 C-31.47060344 118.56908145 -31.92807939 117.13380389 -32.375 115.6953125 C-34.07777074 110.48333419 -36.45092114 105.71964572 -39 100.875 C-39.47477783 99.96500244 -39.94955566 99.05500488 -40.4387207 98.11743164 C-43.97595424 91.51045316 -47.95817385 85.46335003 -52.64648438 79.61865234 C-55.2342868 76.34979943 -56 75.33703735 -56 71 C-53.91015625 68.58984375 -53.91015625 68.58984375 -51.0625 65.9375 C-44.88981056 60.04474885 -39.51478348 53.71222197 -34.40625 46.86328125 C-33.17315221 45.22942668 -31.84316608 43.66964099 -30.5 42.125 C-27.27882688 38.3887662 -24.19376534 34.54899697 -21.125 30.6875 C-20.62419922 30.06439941 -20.12339844 29.44129883 -19.60742188 28.79931641 C-16.90962313 25.76692486 -16.90962313 25.76692486 -16 22 C-14.82869719 20.86295833 -13.6563247 19.72700076 -12.47900391 18.59619141 C-9.58256023 15.47025071 -7.44641002 11.78547017 -5.1875 8.1875 C-4.68541016 7.39923828 -4.18332031 6.61097656 -3.66601562 5.79882812 C-2.43822855 3.86944844 -1.21644417 1.93654337 0 0 Z " fill="#211D1E" transform="translate(402,325)"/>
<path d="M0 0 C1.71896484 0.74056641 1.71896484 0.74056641 3.47265625 1.49609375 C5.0024207 2.14366275 6.53237901 2.79077392 8.0625 3.4375 C8.81466797 3.76298828 9.56683594 4.08847656 10.34179688 4.42382812 C14.93130695 6.351025 19.01808809 7.42562909 24 8 C26.21187543 8.67048613 28.33631367 9.46159912 30.49609375 10.28125 C37.18084158 12.20011677 44.04074967 12.156516 50.9375 12.125 C52.20110352 12.13080078 52.20110352 12.13080078 53.49023438 12.13671875 C63.00406528 12.41015088 63.00406528 12.41015088 72 10 C73.17949219 9.86722656 74.35898437 9.73445312 75.57421875 9.59765625 C80.17147132 9.06700433 84.40970489 7.82478848 88.8125 6.4375 C96.62190083 4 96.62190083 4 100 4 C101.73432449 12.48662783 103.22661342 20.95044181 104.1875 29.5625 C104.27112793 30.29903809 104.35475586 31.03557617 104.44091797 31.79443359 C104.7943127 35.1361038 104.99890505 38.34709928 104.98828125 41.71484375 C104.88265466 44.8648658 104.88265466 44.8648658 105.51977539 47.33911133 C106.05761241 50.31922606 105.94318946 52.843297 105.6953125 55.859375 C105.60636719 56.97570312 105.51742187 58.09203125 105.42578125 59.2421875 C105.32652344 60.39976562 105.22726562 61.55734375 105.125 62.75 C104.98771484 64.46316406 104.98771484 64.46316406 104.84765625 66.2109375 C104.58122941 69.47560438 104.2959383 72.73788754 104 76 C103.89691528 77.17767944 103.89691528 77.17767944 103.79174805 78.37915039 C103.14537536 84.97606466 101.84566849 91.4393552 100.5625 97.9375 C100.34529297 99.05318359 100.12808594 100.16886719 99.90429688 101.31835938 C99.47600764 103.51382403 99.04452941 105.70866937 98.60961914 107.90283203 C98.21919963 109.886357 97.83736529 111.87160296 97.46655273 113.85888672 C96.64361845 118.20562644 95.75396266 122.18885916 93.9375 126.25 C92.41539507 129.83741459 91.41132945 133.09237024 91 137 C90.34 137 89.68 137 89 137 C88.8659375 137.73992187 88.731875 138.47984375 88.59375 139.2421875 C86.20686699 150.32863094 79.88741564 160.84030821 75 171 C74.34 171 73.68 171 73 171 C72.34 172.65 71.68 174.3 71 176 C70.34 176 69.68 176 69 176 C67.73168945 174.34326172 67.73168945 174.34326172 66.30078125 172.0546875 C63.17046106 167.20216933 59.7564954 162.66088667 56.1875 158.125 C55.57874023 157.34705078 54.96998047 156.56910156 54.34277344 155.76757812 C46.5551091 145.54763059 46.5551091 145.54763059 38 136 C37.09075893 134.79025449 36.19520572 133.57017682 35.30859375 132.34375 C32.162405 128.11447838 28.70184352 124.30585268 25.0625 120.5 C23.82065055 119.18710912 22.57975325 117.8733169 21.33984375 116.55859375 C20.75702637 115.94097168 20.17420898 115.32334961 19.57373047 114.68701172 C17.70783716 112.68680651 15.90542973 110.63898271 14.125 108.5625 C10.62768938 104.4956528 6.83019442 100.75094902 3 97 C1 95 1 95 -1.5625 91.9375 C-6.64781969 85.98606747 -12.20409352 80.49268273 -18.125 75.375 C-19.41761998 74.25109548 -20.70929388 73.1261019 -22 72 C-22.67804688 71.41347656 -23.35609375 70.82695312 -24.0546875 70.22265625 C-28.81593319 65.85340067 -28.81593319 65.85340067 -29.6875 61.8125 C-29 59 -29 59 -27.15966797 57.2121582 C-24.61132448 54.60187782 -23.33549435 52.0792034 -21.7578125 48.79296875 C-21.46867981 48.19509552 -21.17954712 47.59722229 -20.88165283 46.98123169 C-19.95356464 45.05424247 -19.03865691 43.12136823 -18.125 41.1875 C-17.4918274 39.86151105 -16.85852638 38.53558341 -16.22509766 37.2097168 C-12.13091508 28.59734121 -8.31704634 19.94313201 -5 11 C-4.23515973 9.03931827 -3.46488665 7.08074116 -2.6875 5.125 C-2.38199219 4.34382812 -2.07648438 3.56265625 -1.76171875 2.7578125 C-1 1 -1 1 0 0 Z " fill="#211D1E" transform="translate(441,246)"/>
<path d="M0 0 C1.31860352 1.3894043 1.31860352 1.3894043 2.62890625 3.32421875 C3.34530273 4.37319336 3.34530273 4.37319336 4.07617188 5.44335938 C4.56666016 6.18392578 5.05714844 6.92449219 5.5625 7.6875 C6.3040332 8.7693457 6.3040332 8.7693457 7.06054688 9.87304688 C9.48697599 13.46836471 11.61750437 16.85251311 13 21 C13.66 21 14.32 21 15 21 C15.90867666 23.27169165 16.81675911 25.54360381 17.72265625 27.81640625 C18.63833509 30.09860274 19.56397729 32.3768114 20.49609375 34.65234375 C28 53.02705286 28 53.02705286 28 60 C28.66 60.33 29.32 60.66 30 61 C30.37890625 63.0390625 30.37890625 63.0390625 30.5625 65.625 C30.80162655 68.59100828 31.07132876 71.49038523 31.5 74.4375 C32.77265122 83.50513997 33.15839531 92.47468449 33.125 101.625 C33.12886719 102.69234375 33.13273438 103.7596875 33.13671875 104.859375 C33.1291876 110.98973049 32.8027723 116.92186689 32 123 C23.99098053 125.29661839 16.01975032 127.30501762 7.8125 128.75 C6.73560913 128.94106323 6.73560913 128.94106323 5.63696289 129.13598633 C2.35276674 129.69278185 -0.65588951 130 -4 130 C-4.33 130.66 -4.66 131.32 -5 132 C-5.99 131.67 -6.98 131.34 -8 131 C-9.77406707 131.06451153 -11.54572644 131.20183279 -13.3125 131.375 C-19.74518422 131.92866252 -26.17618492 132.31068005 -32.625 132.625 C-33.59735596 132.6770459 -34.56971191 132.7290918 -35.5715332 132.78271484 C-36.48894287 132.82605957 -37.40635254 132.8694043 -38.3515625 132.9140625 C-39.58640381 132.9752124 -39.58640381 132.9752124 -40.84619141 133.03759766 C-43 133 -43 133 -46 132 C-47.40228613 131.82210322 -48.8097274 131.68304653 -50.21875 131.5703125 C-51.05921875 131.4988501 -51.8996875 131.4273877 -52.765625 131.35375977 C-53.66796875 131.27826904 -54.5703125 131.20277832 -55.5 131.125 C-65.75710703 130.20324168 -75.86533868 128.81897934 -86 127 C-87.05445313 126.82082031 -88.10890625 126.64164063 -89.1953125 126.45703125 C-99.23437106 124.46260495 -108.73236859 120.60274223 -118.3046875 117.05859375 C-122.5022596 115.51352998 -126.67565323 114.13960705 -131 113 C-131 112.34 -131 111.68 -131 111 C-132.19625 110.649375 -133.3925 110.29875 -134.625 109.9375 C-141.4166576 107.69896966 -147.67029095 104.28640655 -154 101 C-154 100.34 -154 99.68 -154 99 C-153.030625 98.71125 -152.06125 98.4225 -151.0625 98.125 C-147.89335797 97.35785318 -147.89335797 97.35785318 -147 95 C-140.76923077 92 -140.76923077 92 -137 92 C-137 91.34 -137 90.68 -137 90 C-133.7 89.01 -130.4 88.02 -127 87 C-127 86.34 -127 85.68 -127 85 C-125.88882813 84.49210937 -124.77765625 83.98421875 -123.6328125 83.4609375 C-116.11118863 79.99058962 -108.76270636 76.53135093 -101.78515625 72.03125 C-100 71 -100 71 -98 71 C-97.67 70.34 -97.34 69.68 -97 69 C-95.39743174 68.0402937 -93.75556023 67.14574651 -92.09765625 66.28515625 C-86.37923907 63.23822417 -80.89529809 59.92646486 -75.4375 56.4375 C-74.49003906 55.83252686 -73.54257812 55.22755371 -72.56640625 54.60424805 C-58.46183176 45.5159201 -45.06383871 35.51808597 -32 25 C-31.02417969 24.21882813 -30.04835938 23.43765625 -29.04296875 22.6328125 C-22.03117547 16.96453765 -15.32591723 10.99485214 -8.703125 4.87890625 C-7.99671875 4.23824219 -7.2903125 3.59757812 -6.5625 2.9375 C-5.94503906 2.36902344 -5.32757813 1.80054688 -4.69140625 1.21484375 C-3 0 -3 0 0 0 Z " fill="#211D1E" transform="translate(335,410)"/>
<path d="M0 0 C22.73827534 5.11951589 22.73827534 5.11951589 30 8 C30.33 8.66 30.66 9.32 31 10 C32.99575158 10.35789208 34.99666134 10.68735753 37 11 C39.61450195 11.96459961 39.61450195 11.96459961 42.23828125 13.15234375 C43.21466553 13.59376709 44.1910498 14.03519043 45.19702148 14.48999023 C46.22512939 14.96766846 47.2532373 15.44534668 48.3125 15.9375 C49.38121338 16.43258057 50.44992676 16.92766113 51.55102539 17.43774414 C59.97740348 21.4027638 68.07434202 25.6706914 75.91308594 30.69775391 C78.17935248 32.11191695 80.49460745 33.41664453 82.8203125 34.73046875 C84.40316495 35.69182523 85.98395331 36.65658969 87.5625 37.625 C88.30814209 38.02452881 89.05378418 38.42405762 89.82202148 38.83569336 C92.22681156 40.38874532 93.52194276 41.53284843 95 44 C95.81450903 49.38171942 95.40756869 54.60601165 95 60 C94.91496537 61.50633945 94.83303374 63.01285715 94.75415039 64.51953125 C94.48945769 69.2482111 94.13128853 73.96695078 93.75 78.6875 C93.65112991 79.93583115 93.65112991 79.93583115 93.55026245 81.2093811 C92.58385184 93.22204792 91.213159 104.97191905 88.51171875 116.73486328 C87.9804874 119.08637305 87.50027393 121.44393142 87.03125 123.80859375 C81.33121061 152.33757878 81.33121061 152.33757878 78 159 C74 159 74 159 72.25390625 157.42578125 C71.69574219 156.72839844 71.13757813 156.03101563 70.5625 155.3125 C68.57774307 152.90545436 66.647741 150.647741 64.4375 148.4375 C59.09956142 143.09956142 54.53450971 137.22220411 50.1875 131.0625 C49.67413086 130.33538818 49.16076172 129.60827637 48.63183594 128.85913086 C35 109.23004866 35 109.23004866 35 104 C34.01 103.505 34.01 103.505 33 103 C30.41043275 98.20266066 28.18808245 93.15723662 26.8125 87.875 C26.4103125 86.451875 26.4103125 86.451875 26 85 C25.34 84.67 24.68 84.34 24 84 C23.24145508 82.38378906 23.24145508 82.38378906 22.51953125 80.265625 C22.24608887 79.47470459 21.97264648 78.68378418 21.69091797 77.86889648 C21.40104004 77.00466064 21.11116211 76.1404248 20.8125 75.25 C20.50715332 74.35547119 20.20180664 73.46094238 19.88720703 72.53930664 C19.24285364 70.64666291 18.6019909 68.75282774 17.96435547 66.85791016 C17.04170982 64.1236089 16.10299049 61.39536325 15.16015625 58.66796875 C11.23859956 47.23124857 7.91216787 35.73290774 5 24 C4.83556396 23.35973877 4.67112793 22.71947754 4.50170898 22.05981445 C3.94987389 19.79420244 3.48183577 17.52149613 3.02734375 15.234375 C2.85009766 14.34492187 2.67285156 13.45546875 2.49023438 12.5390625 C2.30783203 11.61867188 2.12542969 10.69828125 1.9375 9.75 C1.75123047 8.81414062 1.56496094 7.87828125 1.37304688 6.9140625 C0.91449519 4.60954636 0.45684389 2.30485519 0 0 Z " fill="#211D1E" transform="translate(355,61)"/>
<path d="M0 0 C3.4534754 0.69503907 5.04260694 1.77457929 7.46484375 4.3671875 C9.33163166 6.35272783 11.29424112 8.22706356 13.25 10.125 C18.23320496 15.11644166 22.63544682 20.46663427 27 26 C28.17175781 27.44632813 28.17175781 27.44632813 29.3671875 28.921875 C34.49010253 35.37052842 39.08908775 42.04343711 43.5 49 C44.01667236 49.81339844 44.53334473 50.62679687 45.06567383 51.46484375 C47.4271029 55.24753607 49.37429726 58.83820099 51 63 C51.66 63.33 52.32 63.66 53 64 C53.88082308 66.29014001 54.53303769 68.61347727 55.21875 70.96875 C55.80935836 73.18562475 55.80935836 73.18562475 58 74 C58.33333333 76 58.66666667 78 59 80 C59.66 80.33 60.32 80.66 61 81 C61.8873314 82.9679429 62.68567957 84.97640857 63.4375 87 C63.87707031 88.18078125 64.31664062 89.3615625 64.76953125 90.578125 C65.99766435 93.99350467 67.19529081 97.41148058 68.3046875 100.8671875 C68.8050009 102.40185669 69.33469009 103.92706192 69.8828125 105.4453125 C70.16898438 106.24710937 70.45515625 107.04890625 70.75 107.875 C71.14445313 108.95394531 71.14445313 108.95394531 71.546875 110.0546875 C72 112 72 112 71 115 C68.64419301 115.80906503 66.41367627 116.4357024 64 117 C62.7934375 117.33 61.586875 117.66 60.34375 118 C32.61295795 125.21451501 6.55776688 124.80119411 -19 111 C-17.86677543 105.67675022 -16.60449294 100.40711981 -15.23046875 95.140625 C-7.06767463 63.7523337 -2.36960091 32.35365707 0 0 Z " fill="#211D1E" transform="translate(465,120)"/>
<path d="M0 0 C0.66 0 1.32 0 2 0 C2 8.25 2 16.5 2 25 C2.66 25 3.32 25 4 25 C4 25.66 4 26.32 4 27 C2.68 27 1.36 27 0 27 C-1.29227031 21.31401066 -0.90242274 15.89196518 -0.5625 10.125 C-0.51029297 9.15046875 -0.45808594 8.1759375 -0.40429688 7.171875 C-0.27536992 4.78086598 -0.14044056 2.39035574 0 0 Z " fill="#0E0C0D" transform="translate(383,500)"/>
<path d="M0 0 C10.23 0 20.46 0 31 0 C26.60184991 2.93210006 22.37269906 2.54218982 17.1875 2.75 C16.20201172 2.80542969 15.21652344 2.86085938 14.20117188 2.91796875 C9.01518533 3.14783786 4.85277793 3.14214306 0 1 C0 0.67 0 0.34 0 0 Z " fill="#0E0C0D" transform="translate(286,540)"/>
<path d="M0 0 C3.02361974 6.04723948 3.07929891 10.21278039 2.0625 16.8125 C1.96259766 17.50537109 1.86269531 18.19824219 1.75976562 18.91210938 C1.51398412 20.60917213 1.25801848 22.30475459 1 24 C0.67 24 0.34 24 0 24 C0 16.08 0 8.16 0 0 Z " fill="#090808" transform="translate(544,287)"/>
<path d="M0 0 C3.91211733 1.15585285 6.8745041 2.35534962 10 5 C5.75776898 5.3636198 3.41831915 4.5393228 0 2 C0 1.34 0 0.68 0 0 Z " fill="#151314" transform="translate(179,156)"/>
<path d="M0 0 C0.66 0 1.32 0 2 0 C1.67 0.66 1.34 1.32 1 2 C0.67 1.34 0.34 0.68 0 0 Z " fill="#1E1B1C" transform="translate(181,494)"/>
<path d="M0 0 C0.66 0.66 1.32 1.32 2 2 C1.34 2 0.68 2 0 2 C0 1.34 0 0.68 0 0 Z " fill="#171415" transform="translate(172,155)"/>
<path d="M0 0 C0.66 0 1.32 0 2 0 C1.67 0.66 1.34 1.32 1 2 C0.67 1.34 0.34 0.68 0 0 Z " fill="#1C1A1B" transform="translate(433,92)"/>
<path d="M0 0 C2 1 2 1 2 1 Z " fill="#221E1F" transform="translate(348,541)"/>
<path d="" fill="#131112" transform="translate(0,0)"/>
<path d="M0 0 C2 1 2 1 2 1 Z " fill="#141212" transform="translate(443,500)"/>
<path d="M0 0 C2 1 2 1 2 1 Z " fill="#221E1F" transform="translate(250,464)"/>
<path d="" fill="#1A1718" transform="translate(0,0)"/>
<path d="M0 0 C2 1 2 1 2 1 Z " fill="#221E1F" transform="translate(254,455)"/>
<path d="" fill="#221E1F" transform="translate(0,0)"/>
<path d="" fill="#0A0909" transform="translate(0,0)"/>
<path d="M0 0 C2 1 2 1 2 1 Z " fill="#1D191A" transform="translate(346,403)"/>
<path d="" fill="#141213" transform="translate(0,0)"/>
<path d="" fill="#221E1F" transform="translate(0,0)"/>
<path d="M0 0 C2 1 2 1 2 1 Z " fill="#242122" transform="translate(337,383)"/>
<path d="M0 0 C2 1 2 1 2 1 Z " fill="#221E1F" transform="translate(297,367)"/>
<path d="" fill="#231F20" transform="translate(0,0)"/>
<path d="" fill="#221E1F" transform="translate(0,0)"/>
<path d="" fill="#0A0909" transform="translate(0,0)"/>
<path d="" fill="#221E1F" transform="translate(0,0)"/>
<path d="M0 0 C2 1 2 1 2 1 Z " fill="#2C292A" transform="translate(547,282)"/>
<path d="" fill="#292526" transform="translate(0,0)"/>
<path d="M0 0 C2 1 2 1 2 1 Z " fill="#221E1F" transform="translate(502,247)"/>
<path d="" fill="#231F20" transform="translate(0,0)"/>
<path d="" fill="#211E1F" transform="translate(0,0)"/>
<path d="" fill="#141111" transform="translate(0,0)"/>
<path d="" fill="#221E1F" transform="translate(0,0)"/>
<path d="" fill="#201D1E" transform="translate(0,0)"/>
<path d="" fill="#131112" transform="translate(0,0)"/>
<path d="M0 0 C2 1 2 1 2 1 Z " fill="#1E1B1C" transform="translate(458,166)"/>
<path d="M0 0 C2 1 2 1 2 1 Z " fill="#1A1818" transform="translate(153,148)"/>
<path d="M0 0 C2 1 2 1 2 1 Z " fill="#221E1F" transform="translate(119,145)"/>
<path d="" fill="#272324" transform="translate(0,0)"/>
<path d="" fill="#221F20" transform="translate(0,0)"/>
<path d="" fill="#221E1F" transform="translate(0,0)"/>
<path d="" fill="#312D2E" transform="translate(0,0)"/>
<path d="" fill="#262223" transform="translate(0,0)"/>
<path d="" fill="#070505" transform="translate(0,0)"/>
<path d="" fill="#221E1F" transform="translate(0,0)"/>
<path d="" fill="#2A2627" transform="translate(0,0)"/>
<path d="" fill="#221F20" transform="translate(0,0)"/>
<path d="" fill="#110E0F" transform="translate(0,0)"/>
<path d="" fill="#171314" transform="translate(0,0)"/>
<path d="" fill="#1A1718" transform="translate(0,0)"/>
<path d="" fill="#191617" transform="translate(0,0)"/>
<path d="" fill="#211D1E" transform="translate(0,0)"/>
<path d="" fill="#211D1E" transform="translate(0,0)"/>
<path d="" fill="#1B1819" transform="translate(0,0)"/>
<path d="" fill="#221E1F" transform="translate(0,0)"/>
<path d="" fill="#201D1E" transform="translate(0,0)"/>
<path d="" fill="#221F20" transform="translate(0,0)"/>
<path d="" fill="#211D1E" transform="translate(0,0)"/>
<path d="" fill="#221F20" transform="translate(0,0)"/>
<path d="" fill="#1D1A1B" transform="translate(0,0)"/>
<path d="" fill="#171516" transform="translate(0,0)"/>
<path d="" fill="#211D1E" transform="translate(0,0)"/>
<path d="" fill="#211D1E" transform="translate(0,0)"/>
<path d="" fill="#221E1F" transform="translate(0,0)"/>
<path d="" fill="#211D1E" transform="translate(0,0)"/>
<path d="" fill="#211D1E" transform="translate(0,0)"/>
<path d="" fill="#252122" transform="translate(0,0)"/>
<path d="" fill="#131011" transform="translate(0,0)"/>
<path d="" fill="#110F10" transform="translate(0,0)"/>
<path d="" fill="#221E1F" transform="translate(0,0)"/>
<path d="" fill="#211D1E" transform="translate(0,0)"/>
<path d="" fill="#201D1E" transform="translate(0,0)"/>
<path d="" fill="#221E1F" transform="translate(0,0)"/>
<path d="" fill="#201D1E" transform="translate(0,0)"/>
<path d="" fill="#131112" transform="translate(0,0)"/>
<path d="" fill="#221E1F" transform="translate(0,0)"/>
<path d="" fill="#201D1E" transform="translate(0,0)"/>
<path d="" fill="#221E1F" transform="translate(0,0)"/>
<path d="" fill="#252122" transform="translate(0,0)"/>
<path d="" fill="#1A1617" transform="translate(0,0)"/>
<path d="" fill="#211D1E" transform="translate(0,0)"/>
<path d="" fill="#201D1E" transform="translate(0,0)"/>
<path d="" fill="#201D1E" transform="translate(0,0)"/>
<path d="" fill="#201D1E" transform="translate(0,0)"/>
<path d="" fill="#040404" transform="translate(0,0)"/>
<path d="" fill="#191717" transform="translate(0,0)"/>
<path d="" fill="#201D1E" transform="translate(0,0)"/>
<path d="" fill="#151313" transform="translate(0,0)"/>
<path d="" fill="#252122" transform="translate(0,0)"/>
<path d="" fill="#100E0F" transform="translate(0,0)"/>
<path d="" fill="#1C1819" transform="translate(0,0)"/>
<path d="" fill="#282425" transform="translate(0,0)"/>
<path d="" fill="#201D1E" transform="translate(0,0)"/>
<path d="" fill="#1C191A" transform="translate(0,0)"/>
<path d="" fill="#201D1D" transform="translate(0,0)"/>
<path d="" fill="#201D1E" transform="translate(0,0)"/>
<path d="" fill="#242022" transform="translate(0,0)"/>
<path d="" fill="#221E1F" transform="translate(0,0)"/>
<path d="" fill="#1A1617" transform="translate(0,0)"/>
<path d="" fill="#080707" transform="translate(0,0)"/>
<path d="" fill="#221E1F" transform="translate(0,0)"/>
<path d="" fill="#221E1F" transform="translate(0,0)"/>
<path d="" fill="#201D1D" transform="translate(0,0)"/>
<path d="" fill="#131112" transform="translate(0,0)"/>
<path d="" fill="#1C191A" transform="translate(0,0)"/>
<path d="" fill="#201D1E" transform="translate(0,0)"/>
<path d="" fill="#141012" transform="translate(0,0)"/>
<path d="" fill="#221E1F" transform="translate(0,0)"/>
<path d="" fill="#201C1D" transform="translate(0,0)"/>
<path d="" fill="#221E1F" transform="translate(0,0)"/>
<path d="" fill="#1B1819" transform="translate(0,0)"/>
<path d="" fill="#201D1E" transform="translate(0,0)"/>
<path d="" fill="#231F20" transform="translate(0,0)"/>
<path d="" fill="#090809" transform="translate(0,0)"/>
<path d="" fill="#1A1718" transform="translate(0,0)"/>
<path d="" fill="#1D1A1B" transform="translate(0,0)"/>
<path d="" fill="#211D1E" transform="translate(0,0)"/>
<path d="" fill="#191718" transform="translate(0,0)"/>
<path d="" fill="#231F20" transform="translate(0,0)"/>
<path d="" fill="#1B1819" transform="translate(0,0)"/>
<path d="" fill="#0D0C0C" transform="translate(0,0)"/>
<path d="" fill="#333030" transform="translate(0,0)"/>
<path d="" fill="#221F20" transform="translate(0,0)"/>
<path d="" fill="#221E1F" transform="translate(0,0)"/>
<path d="" fill="#221E1F" transform="translate(0,0)"/>
<path d="" fill="#221E1F" transform="translate(0,0)"/>
<path d="" fill="#423E3F" transform="translate(0,0)"/>
<path d="" fill="#242021" transform="translate(0,0)"/>
<path d="" fill="#1B181A" transform="translate(0,0)"/>
<path d="" fill="#221E1F" transform="translate(0,0)"/>
<path d="" fill="#332E2F" transform="translate(0,0)"/>
<path d="" fill="#110F0F" transform="translate(0,0)"/>
<path d="" fill="#211D1E" transform="translate(0,0)"/>
<path d="" fill="#0B0A0A" transform="translate(0,0)"/>
<path d="" fill="#221F20" transform="translate(0,0)"/>
<path d="" fill="#1C191A" transform="translate(0,0)"/>
<path d="" fill="#221F20" transform="translate(0,0)"/>
<path d="" fill="#211D1E" transform="translate(0,0)"/>
<path d="" fill="#1C191A" transform="translate(0,0)"/>
<path d="" fill="#201D1E" transform="translate(0,0)"/>
<path d="" fill="#211D1E" transform="translate(0,0)"/>
<path d="" fill="#221E1F" transform="translate(0,0)"/>
<path d="" fill="#1B1819" transform="translate(0,0)"/>
<path d="" fill="#231F20" transform="translate(0,0)"/>
<path d="" fill="#1B1919" transform="translate(0,0)"/>
<path d="" fill="#221E1F" transform="translate(0,0)"/>
<path d="" fill="#231F20" transform="translate(0,0)"/>
<path d="" fill="#211D1E" transform="translate(0,0)"/>
<path d="" fill="#0F0C0E" transform="translate(0,0)"/>
<path d="" fill="#231F20" transform="translate(0,0)"/>
<path d="" fill="#231F20" transform="translate(0,0)"/>
<path d="" fill="#211D1E" transform="translate(0,0)"/>
<path d="" fill="#141213" transform="translate(0,0)"/>
<path d="" fill="#211D1E" transform="translate(0,0)"/>
<path d="" fill="#151314" transform="translate(0,0)"/>
<path d="" fill="#161415" transform="translate(0,0)"/>
<path d="" fill="#1B1819" transform="translate(0,0)"/>
<path d="" fill="#211D1E" transform="translate(0,0)"/>
<path d="" fill="#262223" transform="translate(0,0)"/>
<path d="" fill="#080708" transform="translate(0,0)"/>
<path d="" fill="#1B191A" transform="translate(0,0)"/>
<path d="" fill="#1C1819" transform="translate(0,0)"/>
<path d="" fill="#110F0F" transform="translate(0,0)"/>
<path d="" fill="#221E1F" transform="translate(0,0)"/>
<path d="" fill="#030303" transform="translate(0,0)"/>
<path d="" fill="#100F0F" transform="translate(0,0)"/>
<path d="" fill="#272425" transform="translate(0,0)"/>
<path d="" fill="#211D1E" transform="translate(0,0)"/>
<path d="" fill="#221F20" transform="translate(0,0)"/>
<path d="" fill="#100E0F" transform="translate(0,0)"/>
<path d="" fill="#221E1F" transform="translate(0,0)"/>
<path d="" fill="#221E1F" transform="translate(0,0)"/>
<path d="" fill="#1D1A1B" transform="translate(0,0)"/>
<path d="" fill="#221E1F" transform="translate(0,0)"/>
<path d="" fill="#231F20" transform="translate(0,0)"/>
<path d="" fill="#1B1819" transform="translate(0,0)"/>
<path d="" fill="#211D1E" transform="translate(0,0)"/>
<path d="" fill="#181617" transform="translate(0,0)"/>
<path d="" fill="#1B1819" transform="translate(0,0)"/>
<path d="" fill="#221E1F" transform="translate(0,0)"/>
<path d="" fill="#292526" transform="translate(0,0)"/>
<path d="" fill="#171516" transform="translate(0,0)"/>
<path d="" fill="#211D1E" transform="translate(0,0)"/>
<path d="" fill="#211D1E" transform="translate(0,0)"/>
<path d="" fill="#211D1E" transform="translate(0,0)"/>
<path d="" fill="#242021" transform="translate(0,0)"/>
<path d="" fill="#171415" transform="translate(0,0)"/>
<path d="" fill="#141213" transform="translate(0,0)"/>
<path d="" fill="#201D1E" transform="translate(0,0)"/>
<path d="" fill="#100E0F" transform="translate(0,0)"/>
<path d="" fill="#221E1F" transform="translate(0,0)"/>
<path d="" fill="#252223" transform="translate(0,0)"/>
<path d="" fill="#1A1819" transform="translate(0,0)"/>
<path d="" fill="#231F20" transform="translate(0,0)"/>
<path d="" fill="#231F20" transform="translate(0,0)"/>
<path d="" fill="#201D1E" transform="translate(0,0)"/>
<path d="" fill="#231F20" transform="translate(0,0)"/>
<path d="" fill="#211D1E" transform="translate(0,0)"/>
<path d="" fill="#201D1E" transform="translate(0,0)"/>
<path d="" fill="#201D1E" transform="translate(0,0)"/>
<path d="" fill="#141213" transform="translate(0,0)"/>
<path d="" fill="#141212" transform="translate(0,0)"/>
<path d="" fill="#141213" transform="translate(0,0)"/>
<path d="" fill="#201D1E" transform="translate(0,0)"/>
<path d="" fill="#423E3F" transform="translate(0,0)"/>
<path d="" fill="#201D1E" transform="translate(0,0)"/>
<path d="" fill="#231F20" transform="translate(0,0)"/>
<path d="" fill="#211D1E" transform="translate(0,0)"/>
<path d="" fill="#201D1E" transform="translate(0,0)"/>
<path d="" fill="#201D1E" transform="translate(0,0)"/>
<path d="" fill="#201D1E" transform="translate(0,0)"/>
<path d="" fill="#1C1A1B" transform="translate(0,0)"/>
<path d="" fill="#2D2A2A" transform="translate(0,0)"/>
<path d="" fill="#151314" transform="translate(0,0)"/>
<path d="" fill="#201D1E" transform="translate(0,0)"/>
<path d="" fill="#242021" transform="translate(0,0)"/>
<path d="" fill="#443F41" transform="translate(0,0)"/>
<path d="" fill="#221E1F" transform="translate(0,0)"/>
<path d="" fill="#322E2F" transform="translate(0,0)"/>
<path d="" fill="#3B3838" transform="translate(0,0)"/>
<path d="" fill="#221E1F" transform="translate(0,0)"/>
<path d="" fill="#201D1E" transform="translate(0,0)"/>
<path d="" fill="#221E1F" transform="translate(0,0)"/>
<path d="" fill="#221F20" transform="translate(0,0)"/>
<path d="" fill="#2A2728" transform="translate(0,0)"/>
<path d="" fill="#201D1E" transform="translate(0,0)"/>
<path d="" fill="#231F20" transform="translate(0,0)"/>
<path d="" fill="#231F20" transform="translate(0,0)"/>
<path d="" fill="#201D1D" transform="translate(0,0)"/>
<path d="" fill="#110F10" transform="translate(0,0)"/>
<path d="" fill="#201D1E" transform="translate(0,0)"/>
<path d="" fill="#171516" transform="translate(0,0)"/>
<path d="" fill="#1A1718" transform="translate(0,0)"/>
<path d="" fill="#201D1D" transform="translate(0,0)"/>
<path d="" fill="#201D1E" transform="translate(0,0)"/>
<path d="" fill="#110F10" transform="translate(0,0)"/>
<path d="" fill="#201D1E" transform="translate(0,0)"/>
<path d="" fill="#1B1819" transform="translate(0,0)"/>
<path d="" fill="#100E0F" transform="translate(0,0)"/>
<path d="" fill="#252122" transform="translate(0,0)"/>
<path d="" fill="#100E0F" transform="translate(0,0)"/>
<path d="" fill="#2C2829" transform="translate(0,0)"/>
<path d="" fill="#2D292A" transform="translate(0,0)"/>
<path d="" fill="#231F20" transform="translate(0,0)"/>
<path d="" fill="#403C3D" transform="translate(0,0)"/>
<path d="" fill="#221E1F" transform="translate(0,0)"/>
<path d="" fill="#201D1E" transform="translate(0,0)"/>
<path d="" fill="#151313" transform="translate(0,0)"/>
<path d="" fill="#201D1D" transform="translate(0,0)"/>
<path d="" fill="#201D1E" transform="translate(0,0)"/>
<path d="" fill="#221E1F" transform="translate(0,0)"/>
<path d="" fill="#191718" transform="translate(0,0)"/>
<path d="" fill="#171516" transform="translate(0,0)"/>
<path d="" fill="#221E1F" transform="translate(0,0)"/>
<path d="" fill="#191617" transform="translate(0,0)"/>
<path d="" fill="#221F20" transform="translate(0,0)"/>
<path d="" fill="#2F2B2D" transform="translate(0,0)"/>
<path d="" fill="#221E1F" transform="translate(0,0)"/>
<path d="" fill="#332F30" transform="translate(0,0)"/>
<path d="" fill="#211D1E" transform="translate(0,0)"/>
<path d="" fill="#1B1819" transform="translate(0,0)"/>
<path d="" fill="#282425" transform="translate(0,0)"/>
<path d="" fill="#231F20" transform="translate(0,0)"/>
<path d="" fill="#201C1D" transform="translate(0,0)"/>
<path d="" fill="#1A1718" transform="translate(0,0)"/>
<path d="" fill="#232021" transform="translate(0,0)"/>
<path d="" fill="#221E1F" transform="translate(0,0)"/>
<path d="" fill="#3B3839" transform="translate(0,0)"/>
<path d="" fill="#131212" transform="translate(0,0)"/>
<path d="" fill="#2E2A2B" transform="translate(0,0)"/>
<path d="" fill="#242021" transform="translate(0,0)"/>
<path d="" fill="#201D1E" transform="translate(0,0)"/>
<path d="" fill="#211D1E" transform="translate(0,0)"/>
<path d="" fill="#201C1D" transform="translate(0,0)"/>
<path d="" fill="#201C1D" transform="translate(0,0)"/>
<path d="" fill="#2B2829" transform="translate(0,0)"/>
<path d="" fill="#1E1C1C" transform="translate(0,0)"/>
<path d="" fill="#211D1E" transform="translate(0,0)"/>
<path d="" fill="#221E1F" transform="translate(0,0)"/>
<path d="" fill="#201D1E" transform="translate(0,0)"/>
<path d="" fill="#181517" transform="translate(0,0)"/>
<path d="" fill="#242021" transform="translate(0,0)"/>
<path d="" fill="#100D0E" transform="translate(0,0)"/>
<path d="" fill="#332F30" transform="translate(0,0)"/>
<path d="" fill="#252122" transform="translate(0,0)"/>
<path d="" fill="#211D1E" transform="translate(0,0)"/>
<path d="" fill="#1A1819" transform="translate(0,0)"/>
<path d="" fill="#231F20" transform="translate(0,0)"/>
<path d="" fill="#1B1718" transform="translate(0,0)"/>
<path d="" fill="#231F20" transform="translate(0,0)"/>
<path d="" fill="#211D1E" transform="translate(0,0)"/>
<path d="" fill="#201D1E" transform="translate(0,0)"/>
<path d="" fill="#0A0909" transform="translate(0,0)"/>
<path d="" fill="#151414" transform="translate(0,0)"/>
<path d="" fill="#2F2B2D" transform="translate(0,0)"/>
<path d="" fill="#201D1D" transform="translate(0,0)"/>
<path d="" fill="#201D1E" transform="translate(0,0)"/>
<path d="" fill="#221F20" transform="translate(0,0)"/>
<path d="" fill="#1B1818" transform="translate(0,0)"/>
<path d="" fill="#272426" transform="translate(0,0)"/>
<path d="" fill="#1C1819" transform="translate(0,0)"/>
<path d="" fill="#1E1B1C" transform="translate(0,0)"/>
<path d="" fill="#3A3637" transform="translate(0,0)"/>
<path d="" fill="#221F20" transform="translate(0,0)"/>
<path d="" fill="#3F3B3C" transform="translate(0,0)"/>
<path d="" fill="#201D1E" transform="translate(0,0)"/>
<path d="" fill="#342F30" transform="translate(0,0)"/>
<path d="" fill="#231F20" transform="translate(0,0)"/>
<path d="" fill="#454142" transform="translate(0,0)"/>
<path d="" fill="#000000" transform="translate(0,0)"/>
<path d="" fill="#211D1E" transform="translate(0,0)"/>
<path d="" fill="#221E1F" transform="translate(0,0)"/>
<path d="" fill="#221F20" transform="translate(0,0)"/>
<path d="" fill="#211D1E" transform="translate(0,0)"/>
<path d="" fill="#242021" transform="translate(0,0)"/>
<path d="" fill="#221F20" transform="translate(0,0)"/>
<path d="" fill="#231F20" transform="translate(0,0)"/>
<path d="" fill="#262123" transform="translate(0,0)"/>
<path d="" fill="#221F20" transform="translate(0,0)"/>
<path d="" fill="#252122" transform="translate(0,0)"/>
<path d="" fill="#423D3E" transform="translate(0,0)"/>
<path d="" fill="#121010" transform="translate(0,0)"/>
<path d="" fill="#171616" transform="translate(0,0)"/>
<path d="" fill="#151314" transform="translate(0,0)"/>
<path d="" fill="#1B1819" transform="translate(0,0)"/>
<path d="" fill="#161415" transform="translate(0,0)"/>
<path d="" fill="#211D1E" transform="translate(0,0)"/>
<path d="" fill="#231F20" transform="translate(0,0)"/>
<path d="" fill="#231F20" transform="translate(0,0)"/>
<path d="" fill="#1A1718" transform="translate(0,0)"/>
<path d="" fill="#211D1E" transform="translate(0,0)"/>
<path d="" fill="#231F20" transform="translate(0,0)"/>
<path d="" fill="#231F20" transform="translate(0,0)"/>
<path d="" fill="#231F20" transform="translate(0,0)"/>
<path d="" fill="#272324" transform="translate(0,0)"/>
<path d="" fill="#221F20" transform="translate(0,0)"/>
<path d="" fill="#262223" transform="translate(0,0)"/>
<path d="" fill="#292526" transform="translate(0,0)"/>
<path d="" fill="#191618" transform="translate(0,0)"/>
<path d="" fill="#242122" transform="translate(0,0)"/>
<path d="" fill="#1C191A" transform="translate(0,0)"/>
<path d="" fill="#1C1A1B" transform="translate(0,0)"/>
<path d="" fill="#221F20" transform="translate(0,0)"/>
<path d="" fill="#221F20" transform="translate(0,0)"/>
<path d="" fill="#201D1E" transform="translate(0,0)"/>
<path d="" fill="#211D1E" transform="translate(0,0)"/>
<path d="" fill="#1B1819" transform="translate(0,0)"/>
<path d="" fill="#1A1718" transform="translate(0,0)"/>
<path d="" fill="#1A1719" transform="translate(0,0)"/>
<path d="" fill="#201D1E" transform="translate(0,0)"/>
<path d="" fill="#1B1919" transform="translate(0,0)"/>
<path d="" fill="#221F20" transform="translate(0,0)"/>
<path d="" fill="#201D1D" transform="translate(0,0)"/>
<path d="" fill="#121011" transform="translate(0,0)"/>
<path d="" fill="#211D1E" transform="translate(0,0)"/>
<path d="" fill="#181516" transform="translate(0,0)"/>
<path d="" fill="#070304" transform="translate(0,0)"/>
<path d="" fill="#221E1F" transform="translate(0,0)"/>
<path d="" fill="#1A1919" transform="translate(0,0)"/>
<path d="" fill="#100E0F" transform="translate(0,0)"/>
<path d="" fill="#221E1F" transform="translate(0,0)"/>
<path d="" fill="#201D1E" transform="translate(0,0)"/>
<path d="" fill="#201C1D" transform="translate(0,0)"/>
<path d="" fill="#262223" transform="translate(0,0)"/>
<path d="" fill="#231F20" transform="translate(0,0)"/>
<path d="" fill="#231F20" transform="translate(0,0)"/>
<path d="" fill="#221E1F" transform="translate(0,0)"/>
<path d="" fill="#221E1F" transform="translate(0,0)"/>
<path d="" fill="#221E1F" transform="translate(0,0)"/>
<path d="" fill="#1C1919" transform="translate(0,0)"/>
<path d="" fill="#2B2728" transform="translate(0,0)"/>
<path d="" fill="#231F20" transform="translate(0,0)"/>
<path d="" fill="#252122" transform="translate(0,0)"/>
<path d="" fill="#201D1E" transform="translate(0,0)"/>
<path d="" fill="#221F20" transform="translate(0,0)"/>
<path d="" fill="#221F20" transform="translate(0,0)"/>
<path d="" fill="#252122" transform="translate(0,0)"/>
<path d="" fill="#231F20" transform="translate(0,0)"/>
<path d="" fill="#1B1819" transform="translate(0,0)"/>
<path d="" fill="#1B181A" transform="translate(0,0)"/>
<path d="" fill="#211D1E" transform="translate(0,0)"/>
<path d="" fill="#221E1F" transform="translate(0,0)"/>
<path d="" fill="#2C2829" transform="translate(0,0)"/>
<path d="" fill="#1B1818" transform="translate(0,0)"/>
<path d="" fill="#1A1718" transform="translate(0,0)"/>
<path d="" fill="#211D1E" transform="translate(0,0)"/>
<path d="" fill="#0C0B0B" transform="translate(0,0)"/>
<path d="" fill="#221E1F" transform="translate(0,0)"/>
<path d="" fill="#343031" transform="translate(0,0)"/>
<path d="" fill="#0C0B0B" transform="translate(0,0)"/>
<path d="" fill="#181415" transform="translate(0,0)"/>
<path d="" fill="#1A1818" transform="translate(0,0)"/>
<path d="" fill="#1B1819" transform="translate(0,0)"/>
<path d="" fill="#221F20" transform="translate(0,0)"/>
<path d="" fill="#262223" transform="translate(0,0)"/>
<path d="" fill="#1A1719" transform="translate(0,0)"/>
<path d="" fill="#191818" transform="translate(0,0)"/>
<path d="" fill="#211D1E" transform="translate(0,0)"/>
<path d="" fill="#232021" transform="translate(0,0)"/>
<path d="" fill="#1C191A" transform="translate(0,0)"/>
<path d="" fill="#171314" transform="translate(0,0)"/>
<path d="" fill="#201D1D" transform="translate(0,0)"/>
<path d="" fill="#201D1D" transform="translate(0,0)"/>
<path d="" fill="#1B1718" transform="translate(0,0)"/>
<path d="" fill="#211D1E" transform="translate(0,0)"/>
<path d="" fill="#201D1D" transform="translate(0,0)"/>
<path d="" fill="#221F1F" transform="translate(0,0)"/>
<path d="" fill="#221E1F" transform="translate(0,0)"/>
<path d="" fill="#201C1D" transform="translate(0,0)"/>
<path d="" fill="#312D2E" transform="translate(0,0)"/>
<path d="" fill="#262223" transform="translate(0,0)"/>
<path d="" fill="#373234" transform="translate(0,0)"/>
<path d="" fill="#221E1F" transform="translate(0,0)"/>
<path d="" fill="#0F0D0E" transform="translate(0,0)"/>
<path d="" fill="#221F20" transform="translate(0,0)"/>
<path d="" fill="#201D1E" transform="translate(0,0)"/>
<path d="" fill="#1B1919" transform="translate(0,0)"/>
<path d="" fill="#100E0E" transform="translate(0,0)"/>
<path d="" fill="#221F20" transform="translate(0,0)"/>
<path d="" fill="#262223" transform="translate(0,0)"/>
<path d="" fill="#191617" transform="translate(0,0)"/>
<path d="" fill="#363333" transform="translate(0,0)"/>
<path d="" fill="#1D1A1B" transform="translate(0,0)"/>
<path d="" fill="#221F20" transform="translate(0,0)"/>
<path d="" fill="#151213" transform="translate(0,0)"/>
<path d="" fill="#353132" transform="translate(0,0)"/>
<path d="" fill="#1E1C1D" transform="translate(0,0)"/>
<path d="" fill="#080708" transform="translate(0,0)"/>
<path d="" fill="#221E1F" transform="translate(0,0)"/>
<path d="" fill="#1D1B1B" transform="translate(0,0)"/>
<path d="" fill="#1B191A" transform="translate(0,0)"/>
<path d="" fill="#231F20" transform="translate(0,0)"/>
<path d="" fill="#242021" transform="translate(0,0)"/>
<path d="" fill="#231F20" transform="translate(0,0)"/>
<path d="" fill="#353132" transform="translate(0,0)"/>
<path d="" fill="#3F3B3C" transform="translate(0,0)"/>
<path d="" fill="#221E1F" transform="translate(0,0)"/>
<path d="" fill="#221E1F" transform="translate(0,0)"/>
<path d="" fill="#191617" transform="translate(0,0)"/>
<path d="" fill="#221E1F" transform="translate(0,0)"/>
<path d="" fill="#221E1F" transform="translate(0,0)"/>
<path d="" fill="#252122" transform="translate(0,0)"/>
<path d="" fill="#221E1F" transform="translate(0,0)"/>
<path d="" fill="#342F31" transform="translate(0,0)"/>
<path d="" fill="#221E1F" transform="translate(0,0)"/>
<path d="" fill="#221E1F" transform="translate(0,0)"/>
<path d="" fill="#221E1F" transform="translate(0,0)"/>
<path d="" fill="#221E1F" transform="translate(0,0)"/>
<path d="" fill="#221E1F" transform="translate(0,0)"/>
<path d="" fill="#221E1F" transform="translate(0,0)"/>
<path d="" fill="#221F20" transform="translate(0,0)"/>
<path d="" fill="#221F20" transform="translate(0,0)"/>
<path d="" fill="#0A0607" transform="translate(0,0)"/>
<path d="" fill="#201D1D" transform="translate(0,0)"/>
<path d="" fill="#211D1E" transform="translate(0,0)"/>
<path d="" fill="#231F20" transform="translate(0,0)"/>
<path d="" fill="#201D1E" transform="translate(0,0)"/>
<path d="" fill="#201D1E" transform="translate(0,0)"/>
<path d="" fill="#221E1F" transform="translate(0,0)"/>
<path d="" fill="#231F20" transform="translate(0,0)"/>
<path d="" fill="#312D2E" transform="translate(0,0)"/>
<path d="" fill="#171515" transform="translate(0,0)"/>
<path d="" fill="#231F20" transform="translate(0,0)"/>
<path d="" fill="#231F20" transform="translate(0,0)"/>
<path d="" fill="#232021" transform="translate(0,0)"/>
<path d="" fill="#231F20" transform="translate(0,0)"/>
<path d="" fill="#111010" transform="translate(0,0)"/>
<path d="" fill="#1D1A1B" transform="translate(0,0)"/>
<path d="" fill="#0B0A0A" transform="translate(0,0)"/>
<path d="" fill="#221E1F" transform="translate(0,0)"/>
<path d="" fill="#151315" transform="translate(0,0)"/>
<path d="" fill="#201D1E" transform="translate(0,0)"/>
<path d="" fill="#211D1E" transform="translate(0,0)"/>
<path d="" fill="#060606" transform="translate(0,0)"/>
<path d="" fill="#292526" transform="translate(0,0)"/>
<path d="" fill="#121011" transform="translate(0,0)"/>
<path d="" fill="#161314" transform="translate(0,0)"/>
<path d="" fill="#201D1D" transform="translate(0,0)"/>
<path d="" fill="#161415" transform="translate(0,0)"/>
<path d="" fill="#1A1718" transform="translate(0,0)"/>
<path d="" fill="#231F20" transform="translate(0,0)"/>
<path d="" fill="#221E1F" transform="translate(0,0)"/>
<path d="" fill="#221E1F" transform="translate(0,0)"/>
<path d="" fill="#131112" transform="translate(0,0)"/>
<path d="" fill="#332F30" transform="translate(0,0)"/>
<path d="" fill="#2D292A" transform="translate(0,0)"/>
<path d="" fill="#242021" transform="translate(0,0)"/>
<path d="" fill="#231F20" transform="translate(0,0)"/>
<path d="" fill="#231F20" transform="translate(0,0)"/>
<path d="" fill="#262223" transform="translate(0,0)"/>
<path d="" fill="#231F20" transform="translate(0,0)"/>
<path d="" fill="#221E1F" transform="translate(0,0)"/>
<path d="" fill="#221E1F" transform="translate(0,0)"/>
<path d="" fill="#221E1F" transform="translate(0,0)"/>
<path d="" fill="#221E1F" transform="translate(0,0)"/>
<path d="" fill="#231F20" transform="translate(0,0)"/>
<path d="" fill="#221E1F" transform="translate(0,0)"/>
<path d="" fill="#221F20" transform="translate(0,0)"/>
<path d="" fill="#1A1819" transform="translate(0,0)"/>
<path d="" fill="#191617" transform="translate(0,0)"/>
<path d="" fill="#201D1D" transform="translate(0,0)"/>
<path d="" fill="#221E1F" transform="translate(0,0)"/>
<path d="" fill="#1B1819" transform="translate(0,0)"/>
<path d="" fill="#211D1E" transform="translate(0,0)"/>
<path d="" fill="#231F20" transform="translate(0,0)"/>
<path d="" fill="#221E1F" transform="translate(0,0)"/>
<path d="" fill="#151414" transform="translate(0,0)"/>
<path d="" fill="#221E1F" transform="translate(0,0)"/>
<path d="" fill="#221E1F" transform="translate(0,0)"/>
<path d="" fill="#221E1F" transform="translate(0,0)"/>
<path d="" fill="#242122" transform="translate(0,0)"/>
<path d="" fill="#221E1F" transform="translate(0,0)"/>
<path d="" fill="#211D1E" transform="translate(0,0)"/>
<path d="" fill="#1F1B1C" transform="translate(0,0)"/>
<path d="" fill="#282425" transform="translate(0,0)"/>
<path d="" fill="#191616" transform="translate(0,0)"/>
<path d="" fill="#201D1E" transform="translate(0,0)"/>
<path d="" fill="#2A2627" transform="translate(0,0)"/>
<path d="" fill="#211D1E" transform="translate(0,0)"/>
<path d="" fill="#0E0D0D" transform="translate(0,0)"/>
<path d="" fill="#231F20" transform="translate(0,0)"/>
<path d="" fill="#0E0C0D" transform="translate(0,0)"/>
<path d="" fill="#191718" transform="translate(0,0)"/>
<path d="" fill="#221E1F" transform="translate(0,0)"/>
<path d="" fill="#1A1919" transform="translate(0,0)"/>
<path d="" fill="#231F20" transform="translate(0,0)"/>
<path d="" fill="#252122" transform="translate(0,0)"/>
<path d="" fill="#221E1F" transform="translate(0,0)"/>
<path d="" fill="#282425" transform="translate(0,0)"/>
<path d="" fill="#221E1F" transform="translate(0,0)"/>
<path d="" fill="#383435" transform="translate(0,0)"/>
<path d="" fill="#282425" transform="translate(0,0)"/>
<path d="" fill="#171415" transform="translate(0,0)"/>
<path d="" fill="#1D1B1C" transform="translate(0,0)"/>
<path d="" fill="#131213" transform="translate(0,0)"/>
<path d="" fill="#262223" transform="translate(0,0)"/>
<path d="" fill="#231F20" transform="translate(0,0)"/>
<path d="" fill="#1D191A" transform="translate(0,0)"/>
<path d="" fill="#191617" transform="translate(0,0)"/>
<path d="" fill="#332F30" transform="translate(0,0)"/>
<path d="" fill="#181516" transform="translate(0,0)"/>
<path d="" fill="#252122" transform="translate(0,0)"/>
<path d="" fill="#231F20" transform="translate(0,0)"/>
<path d="" fill="#201D1E" transform="translate(0,0)"/>
<path d="" fill="#1C1A1B" transform="translate(0,0)"/>
<path d="" fill="#141112" transform="translate(0,0)"/>
<path d="" fill="#201C1D" transform="translate(0,0)"/>
<path d="" fill="#1A1718" transform="translate(0,0)"/>
<path d="" fill="#211D1E" transform="translate(0,0)"/>
<path d="" fill="#100D0F" transform="translate(0,0)"/>
<path d="" fill="#211D1E" transform="translate(0,0)"/>
<path d="" fill="#1B1919" transform="translate(0,0)"/>
<path d="" fill="#0F0D0E" transform="translate(0,0)"/>
<path d="" fill="#151313" transform="translate(0,0)"/>
<path d="" fill="#171415" transform="translate(0,0)"/>
<path d="" fill="#211E1F" transform="translate(0,0)"/>
<path d="" fill="#383435" transform="translate(0,0)"/>
<path d="" fill="#221E1F" transform="translate(0,0)"/>
<path d="" fill="#221E1F" transform="translate(0,0)"/>
<path d="" fill="#211E1E" transform="translate(0,0)"/>
<path d="" fill="#100E0F" transform="translate(0,0)"/>
<path d="" fill="#262223" transform="translate(0,0)"/>
<path d="" fill="#201D1E" transform="translate(0,0)"/>
<path d="" fill="#151213" transform="translate(0,0)"/>
<path d="" fill="#110F10" transform="translate(0,0)"/>
<path d="" fill="#0A0909" transform="translate(0,0)"/>
<path d="" fill="#221F20" transform="translate(0,0)"/>
<path d="" fill="#211D1E" transform="translate(0,0)"/>
<path d="" fill="#201D1E" transform="translate(0,0)"/>
<path d="" fill="#232020" transform="translate(0,0)"/>
<path d="" fill="#221E1F" transform="translate(0,0)"/>
<path d="" fill="#221E1F" transform="translate(0,0)"/>
<path d="" fill="#171415" transform="translate(0,0)"/>
<path d="" fill="#1F1C1D" transform="translate(0,0)"/>
<path d="" fill="#292525" transform="translate(0,0)"/>
<path d="" fill="#211D1E" transform="translate(0,0)"/>
<path d="" fill="#221E1F" transform="translate(0,0)"/>
<path d="" fill="#221E1F" transform="translate(0,0)"/>
<path d="" fill="#201D1E" transform="translate(0,0)"/>
<path d="" fill="#211D1E" transform="translate(0,0)"/>
<path d="" fill="#221E1F" transform="translate(0,0)"/>
<path d="" fill="#201D1E" transform="translate(0,0)"/>
<path d="" fill="#201D1D" transform="translate(0,0)"/>
<path d="" fill="#221E1F" transform="translate(0,0)"/>
<path d="" fill="#201D1E" transform="translate(0,0)"/>
<path d="" fill="#191617" transform="translate(0,0)"/>
<path d="" fill="#242021" transform="translate(0,0)"/>
<path d="" fill="#141313" transform="translate(0,0)"/>
<path d="" fill="#201C1D" transform="translate(0,0)"/>
<path d="" fill="#2D292A" transform="translate(0,0)"/>
<path d="" fill="#1C1A1A" transform="translate(0,0)"/>
<path d="" fill="#221F20" transform="translate(0,0)"/>
<path d="" fill="#221E1F" transform="translate(0,0)"/>
<path d="" fill="#141213" transform="translate(0,0)"/>
<path d="" fill="#211D1E" transform="translate(0,0)"/>
<path d="" fill="#221E1F" transform="translate(0,0)"/>
<path d="" fill="#221E1F" transform="translate(0,0)"/>
<path d="" fill="#221F20" transform="translate(0,0)"/>
<path d="" fill="#201D1E" transform="translate(0,0)"/>
<path d="" fill="#232021" transform="translate(0,0)"/>
<path d="" fill="#171416" transform="translate(0,0)"/>
<path d="" fill="#231F20" transform="translate(0,0)"/>
<path d="" fill="#231F20" transform="translate(0,0)"/>
<path d="" fill="#231F20" transform="translate(0,0)"/>
<path d="" fill="#211D1E" transform="translate(0,0)"/>
<path d="" fill="#221E1F" transform="translate(0,0)"/>
<path d="" fill="#221E1F" transform="translate(0,0)"/>
<path d="" fill="#221E1F" transform="translate(0,0)"/>
<path d="" fill="#221F20" transform="translate(0,0)"/>
<path d="" fill="#232122" transform="translate(0,0)"/>
<path d="" fill="#201C1D" transform="translate(0,0)"/>
<path d="" fill="#332F30" transform="translate(0,0)"/>
</svg>
