<?xml version="1.0" encoding="UTF-8"?>
<svg version="1.1" xmlns="http://www.w3.org/2000/svg" width="512" height="512">
<path d="M0 0 C4.97654726 3.33892659 8.34296506 6.86419678 9.88671875 12.74609375 C10.89370007 22.79008688 10.89370007 22.79008688 8.80078125 26.85546875 C7.60828407 29.32200139 8.00656289 30.18735704 8.88671875 32.74609375 C10.08777333 34.65272679 10.08777333 34.65272679 11.625 36.51171875 C12.19154297 37.22851807 12.75808594 37.94531738 13.34179688 38.68383789 C13.95474609 39.44688232 14.56769531 40.20992676 15.19921875 40.99609375 C16.48826094 42.62398585 17.77599908 44.25291132 19.0625 45.8828125 C19.70912598 46.70056152 20.35575195 47.51831055 21.02197266 48.36083984 C23.70788885 51.7964776 26.29676561 55.30044852 28.88671875 58.80859375 C33.64273511 65.21534014 38.63815939 71.3925912 43.74169922 77.52490234 C47.41085618 81.9366147 50.99580312 86.39905433 54.51171875 90.93359375 C58.70601768 96.33089072 63.07618747 101.5482296 67.55395508 106.7121582 C70.51203605 110.12599142 73.38385901 113.5873683 76.19921875 117.12109375 C80.79306224 122.79983017 85.79509955 128.07245059 90.83520508 133.35302734 C91.45935303 134.00867676 92.08350098 134.66432617 92.7265625 135.33984375 C93.56755493 136.21672852 93.56755493 136.21672852 94.42553711 137.11132812 C95.88671875 138.74609375 95.88671875 138.74609375 97.88671875 141.74609375 C106.72851354 141.35100585 114.91715893 140.2885119 123.51171875 138.26953125 C127.26546093 137.68735364 129.23864677 137.65841722 132.88671875 138.74609375 C135.66902013 140.83353297 138.03081958 143.28492958 140.4453125 145.78125 C141.15269058 146.49333115 141.86006866 147.20541229 142.58888245 147.93907166 C144.84595069 150.21745252 147.08482745 152.51285042 149.32421875 154.80859375 C150.82637178 156.32726286 152.32961633 157.84485315 153.83398438 159.36132812 C164.91063459 170.5727421 164.91063459 170.5727421 169.32055664 175.69311523 C173.21809418 180.19510955 177.40514727 184.37244243 181.63671875 188.55859375 C182.45366211 189.37175049 183.27060547 190.18490723 184.11230469 191.02270508 C186.70134546 193.59962672 189.29360612 196.17327 191.88671875 198.74609375 C195.30634594 202.13896528 198.72254024 205.53524032 202.13671875 208.93359375 C202.90983398 209.69841064 203.68294922 210.46322754 204.47949219 211.2512207 C208.54406046 215.2975881 212.40876268 219.43567676 216.15072632 223.78079224 C219.19781205 227.23037076 222.46039548 230.4622906 225.71875 233.7109375 C226.4365715 234.42971573 227.15439301 235.14849396 227.89396667 235.88905334 C229.39610127 237.39186305 230.89947772 238.89343241 232.40405273 240.39379883 C234.71390071 242.69824135 237.01829966 245.00803764 239.32226562 247.31835938 C240.78743947 248.78287325 242.25292304 250.24707733 243.71875 251.7109375 C244.75307915 252.74830299 244.75307915 252.74830299 245.80830383 253.80662537 C246.44624374 254.44141312 247.08418365 255.07620087 247.74145508 255.73022461 C248.30214188 256.29011581 248.86282867 256.85000702 249.44050598 257.42686462 C250.87024192 258.85134662 250.87024192 258.85134662 252.88671875 259.74609375 C252.91765625 258.01359375 252.91765625 258.01359375 252.94921875 256.24609375 C254.77845649 240.52453698 265.11075426 226.56182667 276.63671875 216.37109375 C292.47592185 203.9260056 310.98607386 198.80962787 330.88671875 200.74609375 C347.36730969 202.84441833 361.32231312 209.7927966 372.88671875 221.74609375 C373.60472656 222.47828125 374.32273437 223.21046875 375.0625 223.96484375 C388.71184793 238.56527619 393.46604443 256.08096034 393.1640625 275.7265625 C392.88313863 283.06552393 391.16150668 289.79621257 388.88671875 296.74609375 C388.66709473 297.42833008 388.4474707 298.11056641 388.22119141 298.81347656 C382.15747505 317.2406514 372.48540685 330.63664049 355.28125 340.0546875 C345.86593353 344.74609375 345.86593353 344.74609375 340.88671875 344.74609375 C341.8471106 345.70539795 341.8471106 345.70539795 342.8269043 346.68408203 C346.00483338 349.86194155 349.17535462 353.04716573 352.34663391 356.23165894 C355.86736839 359.76579643 359.39076257 363.2972772 362.91430664 366.82861328 C364.76644632 368.68578639 366.6176881 370.54385539 368.46801758 372.40283203 C371.1533677 375.10038068 373.84199531 377.79462583 376.53125 380.48828125 C377.34922562 381.31141815 378.16720123 382.13455505 379.00996399 382.9826355 C383.25364947 387.22672978 387.56442905 391.32081889 392.12535095 395.22331238 C395.06899821 397.76822731 397.86105727 400.45809483 400.63671875 403.18359375 C401.18714844 403.70501953 401.73757813 404.22644531 402.3046875 404.76367188 C406.92790464 409.31482448 410.22233714 414.15550194 411.41796875 420.6171875 C411.26363653 433.29172112 405.31396519 440.57815416 396.54980469 449.18115234 C379.9534981 464.7980527 359.96029674 474.2948266 337.91943359 479.26074219 C335.89514369 479.74408213 333.904951 480.29944474 331.90625 480.87890625 C304.51199758 488.57031858 278.9814628 481.77328864 254.6484375 468.46484375 C233.77206743 456.67928755 214.22941878 442.1337289 195.88671875 426.74609375 C194.88511719 425.91851562 193.88351562 425.0909375 192.8515625 424.23828125 C178.9638136 412.70858753 166.15685047 400.1095679 153.38671875 387.37109375 C152.77230927 386.7593631 152.15789978 386.14763245 151.52487183 385.5173645 C145.09239056 379.10614763 138.73271547 372.70532814 132.88671875 365.74609375 C131.94918456 364.66296374 131.01041404 363.58090244 130.0703125 362.5 C118.39746426 348.96168575 107.02735875 335.24335589 96.43164062 320.84130859 C94.82610435 318.66388882 93.20889108 316.49551362 91.58984375 314.328125 C77.16165132 294.96147903 63.61552862 275.08864225 50.73242188 254.66308594 C48.99964447 251.92456419 47.25138866 249.19678277 45.49609375 246.47265625 C21.87451156 209.70859401 21.87451156 209.70859401 25.41796875 188.578125 C27.76759247 178.29852121 32.01262976 172.42826236 40.88671875 166.74609375 C49.10959265 162.74609375 49.10959265 162.74609375 52.88671875 162.74609375 C47.6148405 155.14838686 41.89533132 148.13794501 35.83984375 141.1640625 C31.7461284 136.4473332 27.81954456 131.59706088 23.88671875 126.74609375 C16.85662509 118.13156611 9.78825937 109.54874399 2.71728516 100.96777344 C0.93360275 98.80299485 -0.84969784 96.6379025 -2.6328125 94.47265625 C-3.20845947 93.77366211 -3.78410645 93.07466797 -4.37719727 92.35449219 C-5.53018942 90.9542334 -6.68302269 89.55384376 -7.83569336 88.15332031 C-10.89787023 84.43326569 -13.96386425 80.71644036 -17.03515625 77.00390625 C-17.67582031 76.22853516 -18.31648438 75.45316406 -18.9765625 74.65429688 C-20.20718468 73.16506569 -21.43890439 71.67674057 -22.671875 70.18945312 C-23.22488281 69.51978516 -23.77789062 68.85011719 -24.34765625 68.16015625 C-24.83459961 67.57186035 -25.32154297 66.98356445 -25.82324219 66.37744141 C-26.99783756 64.89208064 -28.06286435 63.3217191 -29.11328125 61.74609375 C-32.15474463 61.16139301 -32.15474463 61.16139301 -35.67578125 60.93359375 C-43.38562671 59.96986307 -48.44578882 57.76588225 -53.69921875 52.0078125 C-59.3204761 44.68068225 -60.07311267 36.74196055 -59.11328125 27.74609375 C-56.25988359 16.54027478 -48.74249201 7.52755475 -39.31640625 0.99609375 C-27.2080095 -5.87391859 -12.13215241 -7.19855993 0 0 Z M-42.42578125 21.24609375 C-45.02546043 25.09747032 -47.16104145 28.69240534 -47.05078125 33.43359375 C-45.88964146 36.29773857 -44.48984584 37.78892291 -42.11328125 39.74609375 C-39.12662767 40.96370996 -39.12662767 40.96370996 -35.890625 40.45703125 C-25.76527767 39.57119211 -25.76527767 39.57119211 -21.21875 42.8046875 C-18.6403201 45.66735377 -16.36324153 48.61962721 -14.11328125 51.74609375 C-12.68624533 53.50463711 -11.24880886 55.25479473 -9.80078125 56.99609375 C-9.06988281 57.90101562 -8.33898437 58.8059375 -7.5859375 59.73828125 C-4.69647536 63.25310881 -1.72640031 66.69014495 1.26171875 70.12109375 C9.44827893 79.52616857 17.51721395 89.01766005 25.390625 98.6875 C27.86498308 101.7194599 30.35234456 104.74027863 32.84277344 107.7590332 C39.14194022 115.39467263 45.40833167 123.05578685 51.640625 130.74609375 C53.89125698 133.52285641 56.15002581 136.29275052 58.4140625 139.05859375 C58.99534912 139.77007568 59.57663574 140.48155762 60.17553711 141.21459961 C61.27754212 142.56313677 62.38110032 143.91040693 63.48657227 145.25610352 C72.67896636 156.52035464 72.67896636 156.52035464 73.51171875 161.43359375 C72.88671875 164.74609375 72.88671875 164.74609375 70.82421875 166.99609375 C67.57324343 168.932845 64.4075277 170.36538436 60.88671875 171.74609375 C63.51372181 174.37309681 65.57000518 174.54740902 69.1875 175.3671875 C70.13582954 175.5853286 70.13582954 175.5853286 71.10331726 175.80787659 C73.13379252 176.27329803 75.16638183 176.72861056 77.19921875 177.18359375 C78.52554365 177.485657 79.85171738 177.78838482 81.17773438 178.09179688 C83.80046327 178.69117482 86.42442359 179.28468821 89.04931641 179.87451172 C91.57807017 180.44886284 94.10392948 181.03613287 96.62646484 181.63720703 C98.35437256 182.0488208 98.35437256 182.0488208 100.1171875 182.46875 C101.13578857 182.7150415 102.15438965 182.96133301 103.20385742 183.21508789 C106.08488113 183.87553289 106.08488113 183.87553289 109.88671875 183.74609375 C111.03112666 179.81485475 112.17031082 175.88214371 113.3046875 171.94799805 C113.69127623 170.61001833 114.07928687 169.27244859 114.46875 167.93530273 C115.02848477 166.01264235 115.58267623 164.08837091 116.13671875 162.1640625 C116.471875 161.00672607 116.80703125 159.84938965 117.15234375 158.65698242 C118.00902914 155.76163364 118.00902914 155.76163364 117.88671875 152.74609375 C115.94913971 152.89087311 114.01166051 153.03698873 112.07421875 153.18359375 C110.88054687 153.25578125 109.686875 153.32796875 108.45703125 153.40234375 C104.97731945 153.63325159 104.97731945 153.63325159 102.06640625 154.52734375 C98.8892042 155.32401531 97.09428073 155.53391599 93.88671875 154.74609375 C88.45703881 150.96237679 84.18566137 145.72074707 79.88671875 140.74609375 C79.21898437 140.01261719 78.55125 139.27914062 77.86328125 138.5234375 C76.15933348 136.63247107 74.52352814 134.69551266 72.88671875 132.74609375 C71.98945375 131.69951447 71.09089091 130.65404721 70.19140625 129.609375 C67.59552418 126.59387534 65.0081556 123.57123238 62.42431641 120.54541016 C61.43292489 119.38527115 60.44048971 118.2260228 59.44677734 117.06787109 C53.85913314 110.55515918 48.41926454 103.95638028 43.14990234 97.18310547 C39.64936465 92.68982269 36.06135357 88.27492202 32.44921875 83.87109375 C27.56314045 77.89930054 22.87100355 71.80996301 18.27246094 65.61474609 C14.98194341 61.18637588 11.62179216 56.82307153 8.19921875 52.49609375 C7.30324092 51.35558225 6.40740513 50.21495915 5.51171875 49.07421875 C3.75718246 46.84188463 1.98306671 44.62691498 0.19921875 42.41796875 C-0.63476815 41.36119253 -1.46813129 40.30392368 -2.30078125 39.24609375 C-3.03683594 38.32828125 -3.77289063 37.41046875 -4.53125 36.46484375 C-6.41290606 33.23118297 -6.5838869 31.43083584 -6.11328125 27.74609375 C-5.203125 25.83984375 -5.203125 25.83984375 -4.05078125 24.24609375 C-2.44310365 21.63935936 -2.11488136 20.8260994 -2.05078125 17.62109375 C-3.41690707 13.92451801 -5.04224941 12.20291922 -8.11328125 9.74609375 C-21.60823945 3.58535196 -33.44353934 11.53556195 -42.42578125 21.24609375 Z M129.88671875 153.74609375 C128.96633247 157.22428698 128.05053915 160.70366981 127.13671875 164.18359375 C126.86375977 165.22225586 126.59080078 166.26091797 126.30957031 167.33105469 C124.46642241 174.39319855 122.7246482 181.46937047 121.18066406 188.60327148 C120.4523351 191.85415553 119.76406769 193.93007035 117.88671875 196.74609375 C112.15410404 197.82529194 106.10373326 196.39995059 100.51953125 195.06640625 C99.75929657 194.89358124 98.99906189 194.72075623 98.21578979 194.54269409 C95.8122336 193.99459464 93.41196508 193.43349254 91.01171875 192.87109375 C87.84852369 192.14073106 84.68414722 191.41558435 81.51953125 190.69140625 C80.76641663 190.51812805 80.013302 190.34484985 79.23736572 190.1663208 C73.48291734 188.85265532 67.71105842 187.70904695 61.88671875 186.74609375 C63.5048905 190.15439312 65.36437839 192.54140133 67.94921875 195.30859375 C71.19779367 198.84777601 74.31140091 202.44169543 77.32421875 206.18359375 C81.23774333 211.01915292 85.35175474 215.62596423 89.55859375 220.20703125 C93.65083264 224.67004346 97.61315404 229.23991345 101.52734375 233.859375 C107.3280118 240.69217661 113.24911972 247.37052237 119.37695312 253.91210938 C122.68615089 257.44538825 125.91962699 261.02553465 129.08203125 264.69140625 C132.33520733 268.39523876 135.69782149 272.00046377 139.04296875 275.62109375 C141.15980802 277.92723164 143.22455811 280.27342772 145.27734375 282.63671875 C148.8032586 286.68115049 152.45094352 290.59757536 156.13671875 294.49609375 C160.60405168 299.24047058 165.0543205 303.99699403 169.44921875 308.80859375 C182.0758096 322.64037949 182.0758096 322.64037949 195.18359375 336.01171875 C196.89895571 337.75855524 198.48751794 339.56960542 200.07421875 341.43359375 C203.81957895 345.79887563 207.8933326 349.80989708 212.00463867 353.8269043 C214.83398573 356.61137533 217.52455856 359.44763684 220.10546875 362.46484375 C224.74702131 367.83629716 229.83519406 372.76566961 234.88671875 377.74609375 C236.80647819 379.63883245 238.72259129 381.53516133 240.63671875 383.43359375 C241.4771875 384.26246094 242.31765625 385.09132813 243.18359375 385.9453125 C245.23861107 388.07457177 247.17954264 390.21778077 249.10757446 392.45703125 C252.62957661 396.49464581 256.30018237 400.35249857 260.05615234 404.171875 C260.73522141 404.86554672 261.41429047 405.55921844 262.11393738 406.27391052 C268.31032104 412.59521722 274.53464629 418.88914882 280.76708031 425.17489624 C284.94384837 429.38756467 289.11121887 433.60868302 293.2578125 437.85107422 C297.28555179 441.97153725 301.33486763 446.06958264 305.40047073 450.15267944 C306.94160688 451.70790424 308.47495971 453.27088278 310.00019455 454.84170532 C312.13238686 457.03454499 314.29117468 459.19742067 316.45849609 461.35546875 C317.07904373 462.00680283 317.69959137 462.6581369 318.33894348 463.32920837 C321.68650439 466.59963616 323.85341474 468.131502 328.62612915 468.18481445 C352.52144768 466.52822837 374.42645327 452.20635923 390.88671875 435.74609375 C391.63308594 434.99972656 392.37945312 434.25335938 393.1484375 433.484375 C395.86657971 430.58980165 397.65824108 428.38075395 399.01171875 424.62109375 C398.68927418 417.20486871 393.18414874 412.63083787 388.21875 407.75 C387.08828499 406.62234474 387.08828499 406.62234474 385.9349823 405.47190857 C384.3422368 403.88586967 382.74590534 402.30342481 381.14624023 400.72436523 C378.71801643 398.32715137 376.30048517 395.91957335 373.88476562 393.50976562 C372.33004463 391.96422229 370.77472501 390.41928085 369.21875 388.875 C368.14642876 387.80905357 368.14642876 387.80905357 367.05244446 386.72157288 C363.69997096 383.41574946 360.31050131 380.21083257 356.73779297 377.14331055 C353.18036596 374.0708276 350.0497472 370.77625636 346.9375 367.26171875 C333.32301545 351.03735001 333.32301545 351.03735001 314.38671875 343.80859375 C311.91098428 343.7198187 309.46158529 343.70275851 306.98535156 343.76855469 C302.25748136 343.71795394 298.08023407 341.75761736 293.88671875 339.74609375 C292.98050781 339.31425781 292.07429687 338.88242187 291.140625 338.4375 C274.08047078 329.70629763 262.19627831 315.75396585 256.16650391 297.57470703 C254.53720021 292.01303317 252.93565818 286.35038461 252.82641602 280.53710938 C251.46048439 275.02653878 248.18861372 272.31651142 244.16015625 268.46875 C243.3791153 267.6985704 242.59807434 266.92839081 241.79336548 266.13487244 C239.29660781 263.67822451 236.78015949 261.24299014 234.26171875 258.80859375 C231.76906876 256.37363729 229.28068242 253.93442468 226.79434204 251.49302673 C225.24845691 249.97788122 223.69823155 248.46714641 222.14291382 246.96168518 C218.77604314 243.68610945 215.51813726 240.38934068 212.45556641 236.82592773 C208.30020207 231.99232141 203.78860789 227.54183287 199.26171875 223.05859375 C198.35599121 222.15665283 197.45026367 221.25471191 196.51708984 220.32543945 C193.64272306 217.46320811 190.76524935 214.60413573 187.88671875 211.74609375 C184.09196537 207.97835042 180.30090494 204.2069383 176.51171875 200.43359375 C175.22080322 199.15512573 175.22080322 199.15512573 173.90380859 197.85083008 C169.60906419 193.5734339 165.49081582 189.2256809 161.54046631 184.62915039 C158.78940641 181.49662779 155.84650205 178.56302298 152.89453125 175.62109375 C152.26312225 174.98872803 151.63171326 174.3563623 150.98117065 173.70483398 C149.66315309 172.38614245 148.34389821 171.0686865 147.0234375 169.75244141 C144.9923059 167.72673273 142.96665276 165.69565316 140.94140625 163.6640625 C139.65526899 162.37858493 138.36882216 161.093417 137.08203125 159.80859375 C136.47481232 159.19935059 135.86759338 158.59010742 135.24197388 157.96240234 C132.93399909 155.09143541 132.93399909 155.09143541 129.88671875 153.74609375 Z M42.88671875 185.74609375 C39.67358862 192.17235401 41.94531638 201.29305065 44.09765625 207.7578125 C48.06735847 217.32898145 54.2960999 226.06806854 59.88671875 234.74609375 C60.30034668 235.39030273 60.71397461 236.03451172 61.14013672 236.69824219 C63.33009762 240.08908401 65.59579649 243.42289821 67.88671875 246.74609375 C68.73365057 247.99309745 69.57996059 249.2405236 70.42578125 250.48828125 C86.1762951 273.6516284 103.29003794 295.73547095 121.44970703 317.0546875 C122.88070877 318.73901982 124.3040891 320.42955655 125.7265625 322.12109375 C132.80214404 330.49934787 140.20983895 338.51865634 147.75683594 346.47265625 C149.77064747 348.62219923 151.7540305 350.79745601 153.73590088 352.97639465 C161.62411933 361.61879783 169.87728773 369.88842935 178.16064453 378.15039062 C180.6499319 380.63427824 183.13377577 383.12352058 185.6171875 385.61328125 C187.22233544 387.21776893 188.82779325 388.82194667 190.43359375 390.42578125 C191.5291861 391.52440994 191.5291861 391.52440994 192.64691162 392.64523315 C196.70182962 396.68192877 200.84885377 400.54765501 205.19281006 404.27236938 C207.36578019 406.16288393 209.38174763 408.17943121 211.38671875 410.24609375 C214.77249778 413.67833287 218.27341405 416.87360351 221.93359375 420.0078125 C223.94908978 421.80160397 225.82048763 423.68508424 227.69921875 425.62109375 C232.43440803 430.41166536 237.59933987 434.58308346 242.88671875 438.74609375 C243.81355469 439.48988281 244.74039063 440.23367188 245.6953125 441 C262.58509131 454.17723584 285.22510982 467.04714403 306.88671875 468.74609375 C302.00535861 462.80964119 296.65794984 457.39845006 291.2064991 451.9907093 C289.57601211 450.37315167 287.94881465 448.75234605 286.32237244 447.13072205 C282.28374936 443.10536851 278.23967985 439.08550136 274.19573975 435.06549072 C270.77027147 431.65987469 267.34694245 428.25213444 263.92632866 424.84164238 C262.33601629 423.25773368 260.74268482 421.67690775 259.14918518 420.09620667 C254.42264446 415.39327928 249.82763594 410.64226687 245.49119568 405.57542419 C242.69866551 402.39154515 239.68137949 399.43792166 236.66796875 396.46484375 C236.00639771 395.80705933 235.34482666 395.1492749 234.66320801 394.47155762 C232.5734914 392.39392101 230.4805456 390.31958748 228.38671875 388.24609375 C225.62330175 385.50951225 222.86338153 382.76947112 220.10546875 380.02734375 C219.17547058 379.10979309 219.17547058 379.10979309 218.22668457 378.17370605 C214.46202248 374.42985582 210.92093189 370.55243633 207.45056152 366.53479004 C205.62368502 364.44524033 203.71097481 362.47143602 201.73046875 360.52734375 C201.01761719 359.82222656 200.30476562 359.11710938 199.5703125 358.390625 C198.84972656 357.68292969 198.12914062 356.97523438 197.38671875 356.24609375 C192.55674087 351.50251977 187.90619682 346.70487569 183.49023438 341.57226562 C181.23388405 339.00260965 178.8337062 336.63550503 176.38671875 334.24609375 C172.57802541 330.49459581 168.96704999 326.64019606 165.49609375 322.57421875 C163.35222097 320.13894578 161.0456071 317.89254841 158.73071289 315.62133789 C156.94614281 313.80652487 155.27691635 311.93683266 153.6171875 310.0078125 C150.07277923 305.93150888 146.40907746 301.98408494 142.69921875 298.05859375 C141.37983307 296.65660306 140.06082774 295.25425434 138.7421875 293.8515625 C138.0929834 293.1611084 137.4437793 292.4706543 136.77490234 291.75927734 C129.0423167 283.51478534 121.42920388 275.16465701 113.88671875 266.74609375 C112.34519234 265.03763385 110.80352522 263.32930091 109.26171875 261.62109375 C106.03848622 258.0409635 102.85272758 254.43166611 99.69140625 250.796875 C97.65713734 248.48520578 95.58449565 246.21077945 93.51171875 243.93359375 C90.40143024 240.4923117 87.42193563 236.98288077 84.51171875 233.37109375 C81.26719358 229.35783091 77.89924692 225.52193991 74.38671875 221.74609375 C70.18419583 217.2244743 66.22543566 212.55947043 62.3515625 207.75390625 C59.31855486 204.05277173 56.20615413 200.42609712 53.07421875 196.80859375 C52.52266113 196.16946045 51.97110352 195.53032715 51.40283203 194.87182617 C48.66329629 191.71671467 45.89468801 188.65209795 42.88671875 185.74609375 Z M280.88671875 229.74609375 C282.23183694 233.78144831 284.85161724 235.12876988 288.26171875 237.37109375 C288.92365234 237.80768311 289.58558594 238.24427246 290.26757812 238.6940918 C317.72210181 256.28492386 346.70492556 261.69832616 378.88671875 260.74609375 C377.59819002 249.7524763 373.23743117 240.9390753 365.88671875 232.74609375 C365.26796875 232.04613281 364.64921875 231.34617188 364.01171875 230.625 C353.28986165 219.18979353 338.94824426 213.63954008 323.51171875 212.49609375 C307.80562461 213.57927266 291.70008697 217.4909431 280.88671875 229.74609375 Z M272.88671875 240.74609375 C271.99237718 242.15063018 271.12178683 243.57031244 270.26171875 244.99609375 C269.77445312 245.785 269.2871875 246.57390625 268.78515625 247.38671875 C267.65329301 249.66815158 267.65329301 249.66815158 268.4296875 251.78515625 C282.03043087 270.08964197 312.51682792 278.36293336 333.88671875 281.74609375 C349.49291062 283.99351111 364.46061559 282.64820498 379.88671875 279.74609375 C380.21671875 277.43609375 380.54671875 275.12609375 380.88671875 272.74609375 C380.27900635 272.75656738 379.67129395 272.76704102 379.04516602 272.77783203 C341.34681088 273.33885116 307.08993288 265.58287558 276.44921875 242.6171875 C274.28093537 240.6478091 274.28093537 240.6478091 272.88671875 240.74609375 Z M263.88671875 264.74609375 C262.92541129 282.07633098 267.11810203 297.12278191 278.51171875 310.43359375 C289.30038007 321.72143193 303.15523944 328.87613721 318.859375 329.94921875 C335.99434551 330.20916773 350.14824735 325.01348908 362.6015625 313.06640625 C363.35566406 312.30070312 364.10976563 311.535 364.88671875 310.74609375 C365.63050781 310.00101562 366.37429688 309.2559375 367.140625 308.48828125 C371.70067392 303.66789805 374.64222468 298.99228449 376.88671875 292.74609375 C376.24992187 292.81828125 375.613125 292.89046875 374.95703125 292.96484375 C338.27119754 296.46800028 303.92680062 291.23254778 272.88671875 270.74609375 C271.96117187 270.13894531 271.035625 269.53179687 270.08203125 268.90625 C268.0074041 267.53285975 265.94202459 266.14816285 263.88671875 264.74609375 Z " fill="#000000" transform="translate(80.11328125,16.25390625)"/>
<path d="M0 0 C2.375 0.8125 2.375 0.8125 4.375 2.8125 C4.95718384 4.85940552 4.95718384 4.85940552 5.42822266 7.41064453 C5.60825836 8.36568878 5.78829407 9.32073303 5.9737854 10.30471802 C6.16032684 11.3411142 6.34686829 12.37751038 6.5390625 13.4453125 C6.73599701 14.51111542 6.93293152 15.57691833 7.13583374 16.67501831 C7.55144512 18.93563444 7.96308677 21.1969834 8.37109375 23.45898438 C8.9940333 26.90449787 9.63276546 30.34680763 10.2734375 33.7890625 C10.67543726 35.98680413 11.07650854 38.18471584 11.4765625 40.3828125 C11.6671524 41.40706329 11.85774231 42.43131409 12.05410767 43.48660278 C14.55699171 57.51804551 14.55699171 57.51804551 12.3125 61.875 C9.2334134 63.36488061 6.62643042 62.48732518 3.375 61.8125 C1.02538306 55.37447582 -0.51399806 49.00793794 -1.703125 42.265625 C-1.96666779 40.80428131 -1.96666779 40.80428131 -2.23553467 39.31341553 C-2.60183658 37.27026124 -2.96468621 35.22648525 -3.32421875 33.18212891 C-3.87625628 30.0553844 -4.44531838 26.93205142 -5.015625 23.80859375 C-5.37082213 21.81528751 -5.72502387 19.82180359 -6.078125 17.828125 C-6.33423553 16.43270477 -6.33423553 16.43270477 -6.59552002 15.00909424 C-8.02195487 6.75218324 -8.02195487 6.75218324 -6.625 2.8125 C-4.33911223 0.36333454 -3.37156529 -0.24082609 0 0 Z " fill="#000000" transform="translate(329.625,149.1875)"/>
<path d="M0 0 C1.7325 0.1546875 1.7325 0.1546875 3.5 0.3125 C5.85074683 3.83862024 5.86543931 5.16056197 5.5 9.3125 C4.46191406 12.2409668 4.46191406 12.2409668 3.015625 15.26171875 C2.49226563 16.35677734 1.96890625 17.45183594 1.4296875 18.58007812 C0.87539063 19.70865234 0.32109375 20.83722656 -0.25 22 C-0.78882813 23.14017578 -1.32765625 24.28035156 -1.8828125 25.45507812 C-6.49545602 34.97849944 -6.49545602 34.97849944 -10.5 37.3125 C-13.66087718 37.23540543 -15.02270469 36.74206578 -17.375 34.625 C-18.91955088 31.45008987 -18.28131891 29.72594368 -17.5 26.3125 C-16.31665039 23.45996094 -16.31665039 23.45996094 -14.84765625 20.546875 C-14.05391602 18.96519531 -14.05391602 18.96519531 -13.24414062 17.3515625 C-12.68919922 16.26617187 -12.13425781 15.18078125 -11.5625 14.0625 C-11.01142578 12.96164063 -10.46035156 11.86078125 -9.89257812 10.7265625 C-4.68129473 0.41797274 -4.68129473 0.41797274 0 0 Z " fill="#000000" transform="translate(381.5,169.6875)"/>
<path d="M0 0 C2.02636719 2.19970703 2.02636719 2.19970703 3.796875 5.2578125 C4.44527344 6.35867187 5.09367187 7.45953125 5.76171875 8.59375 C6.42448136 9.7708321 7.08724176 10.94791544 7.75 12.125 C8.42647471 13.27976727 9.10484193 14.4334281 9.78515625 15.5859375 C15.57849146 25.57044307 15.57849146 25.57044307 17 31 C16 33.875 16 33.875 14 36 C11.0625 36.625 11.0625 36.625 8 36 C3.60458322 31.38141637 0.51906703 25.56386537 -2.75 20.125 C-3.35199219 19.15691406 -3.95398438 18.18882812 -4.57421875 17.19140625 C-10.16050376 7.88093123 -10.16050376 7.88093123 -9 2 C-5.50751458 -0.32832361 -4.10923862 -0.61118839 0 0 Z " fill="#000000" transform="translate(295,182)"/>
</svg>
