<?xml version="1.0" encoding="UTF-8"?>
<svg version="1.1" xmlns="http://www.w3.org/2000/svg" width="600" height="600">
<path d="M0 0 C0 0.66 0 1.32 0 2 C0.60948486 2.0410083 1.21896973 2.0820166 1.84692383 2.12426758 C8.0781806 2.63244194 13.73126678 3.81959687 19.6875 5.6875 C20.55036621 5.95224121 21.41323242 6.21698242 22.30224609 6.48974609 C30.05500806 8.91813204 37.51140034 11.85904706 45 15 C47.74443618 16.05502195 50.49028137 17.10525438 53.2421875 18.140625 C55 19 55 19 56 21 C56.6703125 21.268125 57.340625 21.53625 58.03125 21.8125 C62.12474142 23.44989657 65.74647014 25.70150124 69.5 28 C70.29446533 28.48549316 71.08893066 28.97098633 71.9074707 29.47119141 C78.00853999 33.25924832 83.69131861 37.38306604 89.30078125 41.859375 C91.44739937 43.56175811 93.59459373 45.11479717 95.875 46.625 C99.21332804 49.16212931 101.69567197 51.89513223 104.3828125 55.08984375 C106.91083266 58.07583858 109.71045523 60.77075254 112.5402832 63.46826172 C117.05606039 67.85353262 120.91664051 72.53021421 124.6875 77.5625 C125.51991211 78.65594727 125.51991211 78.65594727 126.36914062 79.77148438 C135 91.17324985 135 91.17324985 135 94 C135.66 94 136.32 94 137 94 C137.72316406 95.49853516 137.72316406 95.49853516 138.4609375 97.02734375 C139.09864089 98.33088451 139.73667911 99.63426151 140.375 100.9375 C140.69210937 101.59685547 141.00921875 102.25621094 141.3359375 102.93554688 C142.95477369 106.61304807 142.95477369 106.61304807 146 109 C146.96484375 111.1875 146.96484375 111.1875 147.9375 114 C148.28425781 114.98742187 148.63101562 115.97484375 148.98828125 116.9921875 C150.14092551 120.41896774 151.2422638 123.85971914 152.2890625 127.3203125 C152.87336438 129.20725322 152.87336438 129.20725322 155 130 C155.67578125 131.8359375 155.67578125 131.8359375 156.3125 134.375 C156.56644531 135.37144531 156.82039063 136.36789063 157.08203125 137.39453125 C157.38496094 138.58433594 157.68789063 139.77414063 158 141 C158.39699119 142.44216563 158.79690901 143.88352774 159.19921875 145.32421875 C162.19143633 156.14066561 164.48392616 166.88134772 166 178 C166.17257324 179.16958252 166.17257324 179.16958252 166.34863281 180.36279297 C169.64494092 203.32088251 167.58706793 227.61618863 161.875 250.0625 C160.84782691 254.12384042 160 257.77028028 160 262 C159.34 262 158.68 262 158 262 C157.75378906 263.26714844 157.50757813 264.53429687 157.25390625 265.83984375 C156.02999909 271.32119173 154.08231064 276.38268375 151.9375 281.5625 C151.35174194 282.99190918 151.35174194 282.99190918 150.75415039 284.45019531 C147.58523647 291.99890382 143.84870504 299.05853518 139.65234375 306.078125 C137.83591701 308.73069755 137.83591701 308.73069755 138 311 C136.66964617 312.33630619 135.33564614 313.66898349 134 315 C132.61134188 316.95512063 131.26029799 318.93723164 129.9375 320.9375 C121.60660669 333.21460593 111.59415875 343.66742542 101 354 C100.02933594 355.01513672 100.02933594 355.01513672 99.0390625 356.05078125 C95.77644337 359.16964513 92.12918893 361.77185276 88.51367188 364.46484375 C85.26796066 366.79593269 85.26796066 366.79593269 83 370 C81.390625 371.0078125 81.390625 371.0078125 79.25 372.125 C74.04434967 374.91522858 69.08779887 378.05382319 64.11328125 381.23046875 C61.11567937 382.93424999 58.25632294 383.91773747 55 385 C54.67 385.66 54.34 386.32 54 387 C51.66666667 387.66666667 49.33333333 388.33333333 47 389 C46.67 389.66 46.34 390.32 46 391 C42.36307858 392.70678583 38.53231473 393.96438109 34.75 395.3125 C33.63004639 395.71404297 32.51009277 396.11558594 31.35620117 396.52929688 C-3.77104855 408.82519994 -41.2388319 412.03409693 -77.7421875 404.5859375 C-80.59266894 404.07326098 -83.11629011 403.87938856 -86 404 C-86 403.34 -86 402.68 -86 402 C-87.00804687 401.87625 -88.01609375 401.7525 -89.0546875 401.625 C-109.72305566 398.35080306 -129.51265404 387.89048339 -147.16064453 377.12158203 C-148.68852466 376.18992802 -150.22942234 375.2796624 -151.7734375 374.375 C-154.7264036 372.55141392 -157.40193619 370.44050905 -160.1328125 368.3046875 C-162.07186811 366.81817608 -162.07186811 366.81817608 -165 366 C-165 365.01 -165 364.02 -165 363 C-165.54785156 362.76925781 -166.09570312 362.53851563 -166.66015625 362.30078125 C-172.11427939 359.26868942 -176.48975077 354.28500022 -181 350 C-181.53367188 349.50032715 -182.06734375 349.0006543 -182.6171875 348.48583984 C-193.60182692 338.16094858 -203.1626669 326.60726572 -210.921875 313.6574707 C-212.02401636 311.83786018 -212.02401636 311.83786018 -214 310 C-230.38451358 282.83043513 -239.84407656 252.14999448 -242.60546875 220.68359375 C-242.7635595 217.18169972 -242.7635595 217.18169972 -244 215 C-244.51781171 198.32427515 -242.53269488 181.45059814 -240 165 C-239.88881836 164.21737793 -239.77763672 163.43475586 -239.66308594 162.62841797 C-235.16093925 131.9936616 -220.20579716 101.93527612 -201 78 C-200.07342185 76.69447828 -199.15530961 75.38285925 -198.25 74.0625 C-196.02609721 71.0355212 -193.6840737 68.62307203 -191 66 C-189.5570701 64.37981959 -188.12016858 62.75426118 -186.6875 61.125 C-182.71333548 56.69328364 -178.56571047 52.80475873 -174 49 C-173.19820313 48.28714844 -172.39640625 47.57429688 -171.5703125 46.83984375 C-156.82849565 33.9981761 -137.51199302 19.10415777 -118.43359375 13.73046875 C-115.76320267 12.92892279 -113.19130009 11.93283496 -110.59643555 10.91625977 C-92.44045865 3.85305953 -74.32157456 0.3859265 -55 -2 C-53.87609863 -2.14743652 -53.87609863 -2.14743652 -52.72949219 -2.29785156 C-35.72852249 -4.42836375 -16.88975016 -2.36973535 0 0 Z M-94 14 C-95.30783334 14.41128006 -96.61648783 14.8199545 -97.92578125 15.2265625 C-108.74571702 18.64896864 -118.84907823 22.93738838 -129 28 C-121.31171924 34.43580394 -109.00135447 38.65672369 -99 38 C-96.57252087 37.57479847 -94.16511018 37.08301673 -91.75366211 36.57470703 C-87.082884 35.59988553 -82.38333698 34.78165935 -77.6875 33.9375 C-75.77466588 33.59285675 -73.86190293 33.24781819 -71.94921875 32.90234375 C-71.11737061 32.75273193 -70.28552246 32.60312012 -69.4284668 32.44897461 C-55.64634255 29.90093736 -41.63987212 27.21084625 -29 21 C-28.13036621 20.57283691 -27.26073242 20.14567383 -26.36474609 19.70556641 C-19.88749078 16.5141986 -13.43593984 13.27380763 -7 10 C-10.03497766 6.96502234 -13.71295922 7.24954404 -17.8125 6.875 C-19.15296387 6.75088745 -19.15296387 6.75088745 -20.52050781 6.62426758 C-44.9549856 4.5482331 -70.64902612 6.04272885 -94 14 Z M-59.53515625 36.86328125 C-60.53203964 37.05593063 -61.52892303 37.24858002 -62.55601501 37.44706726 C-64.65525947 37.85486699 -66.75384912 38.26605035 -68.85180664 38.68041992 C-72.05340301 39.3107091 -75.25786821 39.92451098 -78.46289062 40.53710938 C-80.50800708 40.93650496 -82.55293579 41.33686329 -84.59765625 41.73828125 C-85.550923 41.91966141 -86.50418976 42.10104156 -87.48634338 42.28791809 C-93.40912 43.47497114 -98.63875586 44.72588664 -103.1171875 49.0390625 C-105.79465712 53.24968899 -107.41784188 57.70141122 -109.125 62.375 C-109.47175781 63.29539062 -109.81851563 64.21578125 -110.17578125 65.1640625 C-111.61997599 69.03738174 -113.0185851 72.89556888 -114.12890625 76.87890625 C-114.87499888 79.55212603 -115.73917086 82.00934686 -116.8125 84.5625 C-117.32103516 85.8309375 -117.32103516 85.8309375 -117.83984375 87.125 C-118.69149965 89.23550083 -119.56133652 91.33868872 -120.44140625 93.4375 C-124.01017021 101.83863303 -124.01017021 101.83863303 -123.46875 110.640625 C-120.10153594 116.04966035 -115.181277 120.32203651 -110.50878906 124.59619141 C-109.19932355 125.81454524 -107.94898333 127.09585527 -106.7109375 128.38671875 C-105.14941004 130.22867933 -105.14941004 130.22867933 -103 130 C-102.72905518 130.59474121 -102.45811035 131.18948242 -102.17895508 131.80224609 C-100.29394679 135.31619196 -97.49614106 137.83194519 -94.6875 140.625 C-94.11837891 141.21023437 -93.54925781 141.79546875 -92.96289062 142.3984375 C-88.69939329 146.66682978 -85.73103248 148.79609939 -79.546875 149.2578125 C-73.38307575 149.0883511 -67.31606979 147.90261923 -61.25 146.875 C-59.90509637 146.65007061 -58.560124 146.42555183 -57.21508789 146.20141602 C-55.08087179 145.84559652 -52.94678411 145.48910871 -50.81312561 145.12995911 C-46.09760102 144.33874109 -41.3774627 143.58528896 -36.65188599 142.85656738 C-33.37715716 142.3504294 -30.10434003 141.83252624 -26.83166504 141.31329346 C-25.24528109 141.06429111 -23.65811648 140.82020867 -22.07019043 140.58123779 C-19.83474811 140.24369792 -17.60297928 139.88755498 -15.37109375 139.52734375 C-14.09161865 139.32874756 -12.81214355 139.13015137 -11.49389648 138.92553711 C-7.62184149 137.89982538 -5.1257064 136.48510944 -2 134 C-0.47451151 131.01816436 -0.47451151 131.01816436 0.375 127.4375 C0.77280699 126.01805231 1.17129988 124.59879675 1.5703125 123.1796875 C1.89757324 121.9745752 1.89757324 121.9745752 2.23144531 120.74511719 C3.12150854 117.56599681 4.08448651 114.41338903 5.0546875 111.2578125 C5.78670108 108.85944908 6.51847111 106.46101131 7.25 104.0625 C7.60368652 102.91386475 7.95737305 101.76522949 8.32177734 100.58178711 C11.93806946 89.74232178 11.93806946 89.74232178 10.875 78.73828125 C8.83298992 75.7560957 6.71764063 73.56938561 4 71.1875 C2.53046875 69.89392578 2.53046875 69.89392578 1.03125 68.57421875 C-2.68624145 65.41722537 -6.46060425 62.33769997 -10.2578125 59.27734375 C-13.05228489 56.95657822 -15.71393717 54.5345888 -18.375 52.0625 C-22.41225983 48.35587783 -26.551109 44.8622763 -30.875 41.5 C-31.6781665 40.86783569 -31.6781665 40.86783569 -32.49755859 40.22290039 C-41.47254496 33.35446068 -49.07138072 34.80127866 -59.53515625 36.86328125 Z M98 62 C98.49403279 75.42406326 100.20385937 86.75081661 106.1328125 98.9921875 C108.61247028 104.1953589 110.74660277 109.54572379 112.9375 114.875 C117.86415471 126.80511505 123.13225376 138.49921737 129 150 C129.66 150 130.32 150 131 150 C131.07347656 150.73605469 131.14695312 151.47210938 131.22265625 152.23046875 C132.20701814 155.73756713 133.68341332 156.97262796 136.4375 159.3125 C137.24058594 160.00988281 138.04367187 160.70726562 138.87109375 161.42578125 C140.82673162 163.19818566 140.82673162 163.19818566 143 163 C143 163.66 143 164.32 143 165 C144.73391951 166.60634015 146.538091 168.1375287 148.375 169.625 C149.37273437 170.44226563 150.37046875 171.25953125 151.3984375 172.1015625 C153.73249885 174.19648969 153.73249885 174.19648969 156 174 C152.77442249 141.41054448 138.44861239 108.49853058 118 83 C117.26910156 82.06542969 116.53820312 81.13085938 115.78515625 80.16796875 C110.61945578 73.67679856 105.1270492 67.60430493 99 62 C98.67 62 98.34 62 98 62 Z M22 86 C19.68704121 89.86408657 18.39538049 93.68236243 17.31640625 98.03515625 C16.88424805 99.74541992 16.88424805 99.74541992 16.44335938 101.49023438 C16.15267578 102.66908203 15.86199219 103.84792969 15.5625 105.0625 C13.53628254 113.19924294 11.38287861 121.24452238 8.84130859 129.23730469 C5.99288661 138.59097363 7.80059753 145.96194484 12.19921875 154.5703125 C13.02016032 156.09314671 13.84987357 157.61127907 14.6875 159.125 C15.5925263 160.80133878 16.49615425 162.47843319 17.3984375 164.15625 C18.06504395 165.38988281 18.06504395 165.38988281 18.74511719 166.6484375 C20.50229712 169.94126962 22.16237434 173.27762739 23.8125 176.625 C24.45370566 177.90791291 25.09567024 179.19044671 25.73828125 180.47265625 C26.99571349 182.98229352 28.24374553 185.49592377 29.48193359 188.01513672 C31.13730254 191.37317086 32.81719147 194.71814456 34.5 198.0625 C35.02182861 199.13387207 35.54365723 200.20524414 36.08129883 201.30908203 C39.8376194 208.70526617 43.64510371 214.84545949 51.59765625 218.04516602 C54.464902 218.91310937 57.32416225 219.60800049 60.25 220.25 C61.77645142 220.61484497 61.77645142 220.61484497 63.33374023 220.98706055 C65.33011258 221.46296506 67.32868796 221.92974464 69.32958984 222.38623047 C72.59106312 223.13585049 75.82410788 223.96929601 79.0625 224.8125 C80.70307401 225.22959509 82.34888264 225.62682063 84 226 C84.98871094 226.25136719 85.97742188 226.50273437 86.99609375 226.76171875 C90.79717106 227.06323464 91.97521693 226.26421537 95 224 C96.65048521 221.43603367 96.65048521 221.43603367 97.8671875 218.3984375 C98.35703125 217.27614746 98.846875 216.15385742 99.3515625 214.99755859 C99.85429687 213.80211426 100.35703125 212.60666992 100.875 211.375 C101.40501492 210.14481219 101.93627182 208.91515876 102.46875 207.68603516 C104.00156758 204.13335787 105.5044786 200.56855211 107 197 C107.38575195 196.07960938 107.77150391 195.15921875 108.16894531 194.2109375 C109.66901514 190.61419537 111.15044038 187.01046934 112.61328125 183.3984375 C113.76422182 180.57782258 114.9481776 177.78253996 116.1875 175 C116.48527344 174.32839844 116.78304687 173.65679687 117.08984375 172.96484375 C117.73747787 171.56673233 118.42128182 170.18513309 119.12890625 168.81640625 C122.28169869 162.47786535 123.61886001 156.9946518 121.37597656 150.07470703 C119.17654048 144.10461098 116.53184792 138.33337566 113.87670898 132.55566406 C111.44499969 127.24778717 109.09149303 121.91256421 106.80859375 116.5390625 C106.25068369 115.23045483 105.6927407 113.9218612 105.13476562 112.61328125 C104.27971582 110.60723133 103.42710545 108.6002985 102.58129883 106.59033203 C101.74762101 104.61174941 100.90400035 102.63765695 100.05859375 100.6640625 C99.56673584 99.50342285 99.07487793 98.3427832 98.56811523 97.14697266 C96.62509049 93.24761271 94.63488763 89.96794791 90.8359375 87.71875 C86.76805789 86.68777225 82.80813676 86.60911208 78.625 86.5 C67.63197197 86.1154566 56.67141415 85.42321853 45.69970703 84.66015625 C33.38649967 82.93538914 33.38649967 82.93538914 22 86 Z M-213 112 C-219.16938499 124.77302281 -224.47260847 137.22221823 -228 151 C-228.34582275 152.28790323 -228.69221215 153.57565439 -229.0390625 154.86328125 C-230.89526085 161.87382653 -232.43959679 168.68608782 -232.82421875 175.9609375 C-233 178 -233 178 -234 180 C-236.3125569 193.87534137 -235.38111294 208.69356555 -234.125 222.625 C-234.04660889 223.53169434 -233.96821777 224.43838867 -233.88745117 225.37255859 C-233.80342041 226.21125488 -233.71938965 227.04995117 -233.6328125 227.9140625 C-233.55949707 228.6560791 -233.48618164 229.3980957 -233.41064453 230.16259766 C-233.11906343 232.23817298 -233.11906343 232.23817298 -231 234 C-230.63817627 233.23091309 -230.63817627 233.23091309 -230.26904297 232.44628906 C-229.54817394 230.91542786 -228.82650556 229.38494293 -228.10424805 227.85473633 C-227.27864203 226.10530423 -226.45460817 224.3551294 -225.63208008 222.60424805 C-223.42980464 217.93677113 -221.13862234 213.35558279 -218.6875 208.8125 C-215.21073824 201.8494511 -213.63189149 194.55043941 -212 187 C-211.48589684 184.68875319 -210.97155467 182.37755954 -210.45703125 180.06640625 C-209.90721571 177.56546381 -209.35904813 175.06415852 -208.8125 172.5625 C-208.55017578 171.36560547 -208.28785156 170.16871094 -208.01757812 168.93554688 C-206.66461078 162.61581167 -205.65622608 156.42581776 -205 150 C-204.62875 148.88625 -204.2575 147.7725 -203.875 146.625 C-200.94096189 134.46969926 -206.98815566 122.79679233 -212 112 C-212.33 112 -212.66 112 -213 112 Z M-141.15380859 118.25390625 C-142.33096687 118.67133591 -142.33096687 118.67133591 -143.53190613 119.09719849 C-144.34637711 119.39512299 -145.16084808 119.69304749 -146 120 C-146.79686722 120.28253632 -147.59373444 120.56507263 -148.41474915 120.85617065 C-153.86478971 122.79282805 -159.29265382 124.79095286 -164.72094727 126.78759766 C-166.70223297 127.51384624 -168.68532437 128.23518707 -170.67016602 128.95166016 C-173.55929409 129.99509556 -176.44215509 131.05441878 -179.32421875 132.1171875 C-180.20559006 132.43195038 -181.08696136 132.74671326 -181.99504089 133.0710144 C-187.8363023 135.25094915 -192.98082798 137.6347133 -196.3125 143.1875 C-197.15095832 146.61755678 -197.4362341 149.97974553 -197.65625 153.5 C-198 156 -198 156 -198.94311523 158.24951172 C-200.12760954 161.33209727 -200.69799263 164.25324165 -201.25390625 167.5078125 C-201.57584961 169.35826172 -201.57584961 169.35826172 -201.90429688 171.24609375 C-202.12150391 172.52613281 -202.33871094 173.80617188 -202.5625 175.125 C-202.99933727 177.66960892 -203.43804966 180.21389685 -203.87890625 182.7578125 C-204.0704126 183.8833252 -204.26191895 185.00883789 -204.45922852 186.16845703 C-205 189 -205 189 -206 192 C-206.84264813 200.5950109 -203.05530751 205.8826111 -197.88208008 212.19677734 C-197.38474365 212.79184082 -196.88740723 213.3869043 -196.375 214 C-195.88346436 214.58861816 -195.39192871 215.17723633 -194.88549805 215.78369141 C-193.63816731 217.2317494 -192.32383296 218.62153266 -191 220 C-190.34 220 -189.68 220 -189 220 C-188.71125 220.598125 -188.4225 221.19625 -188.125 221.8125 C-186.95257974 224.19327792 -186.95257974 224.19327792 -185 227 C-184.34 227 -183.68 227 -183 227 C-182.7421875 227.56203125 -182.484375 228.1240625 -182.21875 228.703125 C-180.85830223 231.26704579 -179.27211038 233.45226365 -177.5 235.75 C-176.8915625 236.54921875 -176.283125 237.3484375 -175.65625 238.171875 C-175.1096875 238.77515625 -174.563125 239.3784375 -174 240 C-173.34 240 -172.68 240 -172 240 C-171.72800781 240.58523438 -171.45601562 241.17046875 -171.17578125 241.7734375 C-168.89653279 246.08962229 -165.79216376 249.8375154 -161.6875 252.5 C-153.22394153 254.07461553 -144.33796598 250.62452157 -136.25341797 248.29907227 C-134.13872689 247.69144424 -132.02092597 247.09585399 -129.90234375 246.50195312 C-123.77240899 244.77087476 -117.66042343 242.97177163 -111.6171875 240.95703125 C-110.76495605 240.67448486 -109.91272461 240.39193848 -109.03466797 240.10083008 C-106.53969579 238.75095852 -105.93794746 237.64035108 -105 235 C-105 234.34 -105 233.68 -105 233 C-104.34 233 -103.68 233 -103 233 C-101.85773217 227.26826323 -100.86034544 221.86549157 -101 216 C-100.54163324 213.09701052 -99.82357361 210.34134148 -99.0625 207.5 C-97.92542961 202.9935225 -97.24904223 198.45036128 -96.5703125 193.85546875 C-95.8864788 189.23256556 -95.16484339 184.61622372 -94.4375 180 C-94.31060791 179.18684326 -94.18371582 178.37368652 -94.05297852 177.53588867 C-93.56040017 174.40428845 -93.05917922 171.29026 -92.42578125 168.18359375 C-91.17160913 161.75164685 -91.65389301 157.6090412 -95 152 C-97.05444923 149.56581016 -99.28019046 147.34453975 -101.5625 145.125 C-102.15224609 144.53203125 -102.74199219 143.9390625 -103.34960938 143.328125 C-106.15745606 140.10801661 -106.15745606 140.10801661 -110 139 C-110.26031006 138.41879395 -110.52062012 137.83758789 -110.78881836 137.23876953 C-112.98124416 133.18625096 -116.35935158 130.14542916 -119.5625 126.875 C-120.24119141 126.14667969 -120.91988281 125.41835937 -121.61914062 124.66796875 C-127.34107148 118.83278573 -132.96821014 115.30154739 -141.15380859 118.25390625 Z M33.875 232.4375 C33.02679688 233.21996094 32.17859375 234.00242187 31.3046875 234.80859375 C30.54414063 235.53175781 29.78359375 236.25492188 29 237 C28.40445313 237.52722656 27.80890625 238.05445313 27.1953125 238.59765625 C25.67565304 240.07341723 25.67565304 240.07341723 26 243 C25.45730469 243.05285156 24.91460937 243.10570312 24.35546875 243.16015625 C20.91022569 244.38855966 18.79046133 246.8545125 16.3125 249.4375 C15.56516602 250.19256836 15.56516602 250.19256836 14.80273438 250.96289062 C12.06575292 253.73124174 12.06575292 253.73124174 10 257 C9.0021626 257.91185105 7.9720356 258.78866697 6.92578125 259.64453125 C2.79589235 263.11827943 -1.0098435 266.86214107 -4.8125 270.6875 C-5.81313477 271.68233398 -5.81313477 271.68233398 -6.83398438 272.69726562 C-7.47271484 273.33728516 -8.11144531 273.97730469 -8.76953125 274.63671875 C-9.34292236 275.21123779 -9.91631348 275.78575684 -10.50708008 276.37768555 C-14.43125602 280.64197813 -14.90680785 284.40692039 -15 290 C-14.64569118 292.89339775 -13.9497793 295.6259091 -13.1640625 298.4296875 C-12.86585098 299.56520554 -12.86585098 299.56520554 -12.56161499 300.72366333 C-11.930712 303.11163006 -11.27822326 305.49305424 -10.625 307.875 C-10.19389101 309.49441392 -9.76419103 311.11420362 -9.3359375 312.734375 C-7.32537811 320.41351925 -7.32537811 320.41351925 -5 328 C-4.34 328 -3.68 328 -3 328 C-3 328.99 -3 329.98 -3 331 C1.60141261 333.63450613 5.72466005 334.59398553 10.9375 335.0625 C16.19499792 335.56774005 20.90534729 336.51106981 26 338 C27.76480771 338.22154505 29.53710831 338.39223723 31.3125 338.5 C36.65315113 338.90683631 41.77757189 339.83316682 47 341 C47 340.34 47 339.68 47 339 C47.33 339.66 47.66 340.32 48 341 C51.71888239 340.49287967 54.73454239 339.88391785 58 338 C58 337.34 58 336.68 58 336 C58.928125 335.62875 58.928125 335.62875 59.875 335.25 C62.13746494 334.17856271 62.13746494 334.17856271 63 332 C64.27500135 329.4499973 65.48362657 329.24043352 68 328 C69.59272621 326.71107886 69.59272621 326.71107886 71.06860352 325.20605469 C71.63922012 324.64497009 72.20983673 324.0838855 72.79774475 323.50579834 C73.40202805 322.90060364 74.00631134 322.29540894 74.62890625 321.671875 C75.25981674 321.04524963 75.89072723 320.41862427 76.54075623 319.77301025 C77.87208403 318.4474177 79.20080919 317.1192068 80.52709961 315.78857422 C82.55003334 313.76248609 84.58589984 311.75006552 86.62304688 309.73828125 C87.91747755 308.4461243 89.21112355 307.15318072 90.50390625 305.859375 C91.11021378 305.26227722 91.7165213 304.66517944 92.34120178 304.04998779 C96.76969409 299.57288601 99.80342763 295.69664065 100.27734375 289.1953125 C100.09648188 284.69409934 99.36490396 280.30128416 98.5625 275.875 C98.42779297 275.10285156 98.29308594 274.33070313 98.15429688 273.53515625 C97.89108502 272.02778687 97.6253702 270.52085201 97.35693359 269.0144043 C96.75129538 265.59640094 96.19247744 262.17032367 95.62915039 258.74511719 C95.19027087 256.13849978 94.7218418 253.53833767 94.25 250.9375 C94.0334375 249.61008789 94.0334375 249.61008789 93.8125 248.25585938 C93.07296474 244.28085735 92.31588492 241.47287782 90.05078125 238.08203125 C85.64182455 235.07310177 81.08476354 233.99741501 75.9375 232.75 C74.44766602 232.36714844 74.44766602 232.36714844 72.92773438 231.9765625 C70.28886773 231.30129696 67.6460385 230.64646765 65 230 C62.78674457 229.4550326 60.60301022 228.88426129 58.4140625 228.24609375 C48.1590824 225.27301129 42.02123445 224.85178627 33.875 232.4375 Z M-110.98135376 249.40924072 C-113.08461308 250.02476212 -115.19533187 250.60302235 -117.3112793 251.17333984 C-121.53460536 252.31350902 -125.75345249 253.46931481 -129.97094727 254.63085938 C-131.7860723 255.12807346 -133.60249641 255.62056859 -135.42016602 256.10839844 C-138.05846507 256.81752906 -140.6915388 257.54376087 -143.32421875 258.2734375 C-144.13469162 258.48712982 -144.94516449 258.70082214 -145.78019714 258.92098999 C-150.1101509 260.14054698 -153.38572547 261.10146888 -156 265 C-157.2982211 270.37133828 -157.00412248 275.621597 -156.6953125 281.08984375 C-156.65187714 281.95203018 -156.60844177 282.81421661 -156.56369019 283.70252991 C-156.4237585 286.44788808 -156.27444238 289.19264491 -156.125 291.9375 C-156.03195405 293.74541203 -155.93950124 295.55335469 -155.84765625 297.36132812 C-155.66662541 300.89890218 -155.47476599 304.43563788 -155.27441406 307.97216797 C-155.09198768 311.20501419 -154.93766855 314.43685337 -154.81152344 317.67236328 C-154.74675325 319.09537799 -154.68197509 320.51839233 -154.6171875 321.94140625 C-154.56933105 323.16674072 -154.52147461 324.3920752 -154.47216797 325.65454102 C-153.86427671 329.96164234 -152.66063064 333.43386833 -149.44262695 336.46875 C-142.96195597 340.25130551 -136.10544512 343.11927236 -129.1875 346 C-126.7638346 347.01967343 -124.34065081 348.04049242 -121.91796875 349.0625 C-120.1712085 349.79847412 -120.1712085 349.79847412 -118.38916016 350.54931641 C-114.32133068 352.29049511 -110.29280407 354.10809106 -106.27368164 355.95849609 C-103.20552375 357.36392523 -100.1080204 358.68506829 -97 360 C-95.9275 360.556875 -94.855 361.11375 -93.75 361.6875 C-86.54555646 364.20905524 -80.35014269 363.84702044 -73.3671875 360.7890625 C-72.31926025 360.33499023 -71.27133301 359.88091797 -70.19165039 359.41308594 C-69.13840576 358.94676758 -68.08516113 358.48044922 -67 358 C-66.0402124 357.58266602 -65.0804248 357.16533203 -64.09155273 356.73535156 C-60.08880485 354.99136318 -56.09684884 353.2235663 -52.10693359 351.45043945 C-46.40423454 348.92090129 -40.68845283 346.44095766 -34.92578125 344.05078125 C-33.21684692 343.33075928 -33.21684692 343.33075928 -31.47338867 342.59619141 C-29.28359491 341.67492928 -27.08728229 340.7689734 -24.8840332 339.88037109 C-19.06833175 337.44079237 -19.06833175 337.44079237 -14.76171875 332.984375 C-13.96475105 329.86189642 -13.89943035 328.15956354 -14.6875 325.0625 C-14.87699219 324.26972656 -15.06648437 323.47695313 -15.26171875 322.66015625 C-15.79507404 320.73838401 -16.34390859 318.82088484 -16.90234375 316.90625 C-17.80177732 313.78717155 -18.59263323 310.64843629 -19.3671875 307.49609375 C-19.73650391 306.01399414 -19.73650391 306.01399414 -20.11328125 304.50195312 C-20.62155776 302.45711762 -21.12155069 300.41020546 -21.61328125 298.36132812 C-23.23814102 291.91661232 -24.65551194 286.68336833 -30.015625 282.3828125 C-30.75296875 281.96773438 -31.4903125 281.55265625 -32.25 281.125 C-33.12914062 280.63 -34.00828125 280.135 -34.9140625 279.625 C-40.54182378 276.66152064 -46.22529279 273.81836554 -51.93408203 271.01464844 C-55.14833983 269.436008 -58.35668623 267.84570789 -61.5625 266.25 C-62.19744385 265.93554932 -62.8323877 265.62109863 -63.48657227 265.29711914 C-67.65316752 263.21912638 -71.77140573 261.06323447 -75.875 258.86328125 C-76.89779053 258.31833008 -77.92058105 257.77337891 -78.97436523 257.21191406 C-80.99433391 256.13302179 -83.0097022 255.04546038 -85.01977539 253.94824219 C-90.13335448 251.22347226 -94.21373463 249.43181085 -100 249 C-100.495 248.505 -100.495 248.505 -101 248 C-104.61455159 247.68106898 -107.53136328 248.39143241 -110.98135376 249.40924072 Z M125.25 296.4375 C124.47140625 296.51871094 123.6928125 296.59992188 122.890625 296.68359375 C120.99344173 296.81299399 120.99344173 296.81299399 120 298 C118.845 297.938125 117.69 297.87625 116.5 297.8125 C108.0656551 297.8125 102.68897059 301.89580394 96.9375 307.625 C93.35667378 310.77124105 93.35667378 310.77124105 92 315 C91.42121094 315.25136719 90.84242188 315.50273437 90.24609375 315.76171875 C87.71716323 317.15592914 86.0656954 318.73790358 84.0625 320.8125 C83.41410156 321.47894531 82.76570313 322.14539063 82.09765625 322.83203125 C81.40542969 323.54746094 80.71320313 324.26289063 80 325 C77.24668601 327.79052093 74.4520781 330.52144038 71.58984375 333.19921875 C61.93339605 342.34392825 56.79946412 349.451187 56 363 C55.81357731 365.35425222 55.62603057 367.70841564 55.4375 370.0625 C55.29014774 372.04155416 55.14378343 374.02068336 55 376 C63.03027666 371.82678536 70.5376553 367.11308803 78 362 C79.485 361.01 79.485 361.01 81 360 C81 359.34 81 358.68 81 358 C82.06734375 357.65388672 82.06734375 357.65388672 83.15625 357.30078125 C86.57815151 355.73554333 88.75571871 353.76214852 91.5 351.1875 C92.26679077 350.46977417 92.26679077 350.46977417 93.04907227 349.73754883 C97.06962457 345.94729941 101.01618257 342.08008364 104.9375 338.1875 C105.46859375 337.66115967 105.9996875 337.13481934 106.546875 336.5925293 C113.16073684 330.67168069 113.16073684 330.67168069 116 323 C116.99 322.67 117.98 322.34 119 322 C120.71506152 319.73883456 122.27822921 317.50384208 123.8125 315.125 C124.25319824 314.45331787 124.69389648 313.78163574 125.14794922 313.08959961 C128.73759448 307.55517952 131.99572932 301.87420406 135 296 C131.71307426 295.95920482 128.51768657 296.08112479 125.25 296.4375 Z M-179 339 C-166.74009356 353.71188773 -152.42250885 364.35942962 -136 374 C-135.35111816 374.38542969 -134.70223633 374.77085937 -134.03369141 375.16796875 C-118.9773359 383.99761531 -102.13070036 390.59565132 -85 394 C-83.41666667 394.375 -81.83333333 394.75 -80.25 395.125 C-77.08175827 395.83455414 -74.25510322 396.09041953 -71 396 C-69.32656552 396.29749946 -67.65694085 396.62127066 -66 397 C-73.78069148 385.85900947 -73.78069148 385.85900947 -83 376 C-83.66 376 -84.32 376 -85 376 C-85.28351318 375.12371948 -85.28351318 375.12371948 -85.57275391 374.22973633 C-87.6206128 371.03043847 -90.49964509 369.88783347 -93.8359375 368.32421875 C-94.54003754 367.98380051 -95.24413757 367.64338226 -95.96957397 367.29264832 C-104.21625749 363.34449639 -112.57808014 359.6421873 -120.95507812 355.98071289 C-123.63186112 354.80949795 -126.3043091 353.62877291 -128.9765625 352.44726562 C-146.65363482 344.26227328 -146.65363482 344.26227328 -165.4375 339.6875 C-166.52933594 339.54699219 -167.62117188 339.40648437 -168.74609375 339.26171875 C-172.17788163 338.98569259 -175.55860486 338.95214242 -179 339 Z " fill="#1B1B19" transform="translate(338,97)"/>
<path d="M0 0 C1.65 0.66 3.3 1.32 5 2 C5 2.66 5 3.32 5 4 C5.66 4.33 6.32 4.66 7 5 C6.3125 6.9375 6.3125 6.9375 5 9 C2.375 9.75 2.375 9.75 0 10 C-0.12375 10.78375 -0.2475 11.5675 -0.375 12.375 C-1 15 -1 15 -3 17 C-5.125 16.625 -5.125 16.625 -7 16 C-6.95875 16.78375 -6.9175 17.5675 -6.875 18.375 C-7 21 -7 21 -9 23 C-11.125 23.625 -11.125 23.625 -13 24 C-13.12375 24.61875 -13.2475 25.2375 -13.375 25.875 C-14 28 -14 28 -16 30 C-21.56818182 29.43181818 -21.56818182 29.43181818 -23 28 C-23.0450286 26.33394172 -23.03874921 24.66621616 -23 23 C-23 21.68 -23 20.36 -23 19 C-23 18.34 -23 17.68 -23 17 C-20.13275314 17.57344937 -19.1385485 17.8614515 -17 20 C-16.773125 19.21625 -16.54625 18.4325 -16.3125 17.625 C-15 15 -15 15 -12.375 13.6875 C-11.59125 13.460625 -10.8075 13.23375 -10 13 C-10.33 12.01 -10.66 11.02 -11 10 C-11.66 10 -12.32 10 -13 10 C-13 9.01 -13 8.02 -13 7 C-12.278125 7.185625 -11.55625 7.37125 -10.8125 7.5625 C-7.87173027 8.01995307 -5.85896942 7.73516357 -3 7 C-2.87625 6.21625 -2.7525 5.4325 -2.625 4.625 C-2 2 -2 2 0 0 Z " fill="#262624" transform="translate(165,173)"/>
<path d="M0 0 C2.625 0.375 2.625 0.375 5 1 C4.67 2.32 4.34 3.64 4 5 C4.99 4.67 5.98 4.34 7 4 C6.125 7.875 6.125 7.875 5 9 C3.33382885 9.04063832 1.66611905 9.042721 0 9 C0.061875 9.763125 0.12375 10.52625 0.1875 11.3125 C0 14 0 14 -1.3125 15.8125 C-3 17 -3 17 -6 17 C-6.12375 17.61875 -6.2475 18.2375 -6.375 18.875 C-7 21 -7 21 -9 23 C-10.32 23 -11.64 23 -13 23 C-13.144375 23.804375 -13.28875 24.60875 -13.4375 25.4375 C-14 28 -14 28 -15 29 C-17.4375 29.1875 -17.4375 29.1875 -20 29 C-22 27 -22 27 -22.125 24.5625 C-22.08375 23.716875 -22.0425 22.87125 -22 22 C-22 21.01 -22 20.02 -22 19 C-22 18.34 -22 17.68 -22 17 C-19.525 17.99 -19.525 17.99 -17 19 C-16.608125 18.195625 -16.21625 17.39125 -15.8125 16.5625 C-14 14 -14 14 -11.3125 13.1875 C-10.549375 13.125625 -9.78625 13.06375 -9 13 C-10.32 11.35 -11.64 9.7 -13 8 C-11.68 8 -10.36 8 -9 8 C-6.66365343 7.68848712 -4.32961443 7.35840222 -2 7 C-2.04125 6.21625 -2.0825 5.4325 -2.125 4.625 C-2 2 -2 2 0 0 Z " fill="#262624" transform="translate(267,276)"/>
<path d="M0 0 C0.79921875 0.11085938 1.5984375 0.22171875 2.421875 0.3359375 C3.32679688 0.47902344 3.32679688 0.47902344 4.25 0.625 C4.25 1.285 4.25 1.945 4.25 2.625 C5.054375 2.64626953 5.054375 2.64626953 5.875 2.66796875 C14.42894518 3.18852134 22.18721203 5.91406261 30.25 8.625 C28.27 9.615 28.27 9.615 26.25 10.625 C25.26 9.965 24.27 9.305 23.25 8.625 C21.01957781 7.85724161 18.76570305 7.1563732 16.5 6.5 C14.71335937 5.97019531 14.71335937 5.97019531 12.890625 5.4296875 C9.22007408 4.61838547 5.99367949 4.55584336 2.25 4.625 C0.90022151 3.99229133 -0.43352881 3.32437532 -1.75 2.625 C-4.07495277 2.23750787 -6.40851268 1.89517161 -8.75 1.625 C-5.5750906 -0.2828584 -3.64414789 -0.5359041 0 0 Z M6.25 4.625 C7.24 4.955 8.23 5.285 9.25 5.625 C8.92 6.945 8.59 8.265 8.25 9.625 C8.91 9.625 9.57 9.625 10.25 9.625 C10.25 10.615 10.25 11.605 10.25 12.625 C8.25 14.625 8.25 14.625 5.625 14.75 C4.84125 14.70875 4.0575 14.6675 3.25 14.625 C3.37375 15.7696875 3.37375 15.7696875 3.5 16.9375 C3.4175 17.824375 3.335 18.71125 3.25 19.625 C1.234375 21.29296875 1.234375 21.29296875 -0.75 22.625 C-1.29269531 22.13128906 -1.83539063 21.63757813 -2.39453125 21.12890625 C-3.10996094 20.48824219 -3.82539063 19.84757812 -4.5625 19.1875 C-5.27019531 18.54941406 -5.97789062 17.91132812 -6.70703125 17.25390625 C-8.74896152 15.43413988 -8.74896152 15.43413988 -11.75 14.625 C-9.44 13.305 -7.13 11.985 -4.75 10.625 C-6.07 9.635 -7.39 8.645 -8.75 7.625 C-7.75419922 7.67720703 -7.75419922 7.67720703 -6.73828125 7.73046875 C-1.38101195 7.8947062 1.73553719 7.77144377 6.25 4.625 Z M11.25 5.625 C13.25 6.625 13.25 6.625 13.25 6.625 Z " fill="#252523" transform="translate(333.75,96.375)"/>
<path d="M0 0 C0.66 0 1.32 0 2 0 C3.625 2 3.625 2 5 4 C5.33 2.68 5.66 1.36 6 0 C6.66 0 7.32 0 8 0 C8 1.32 8 2.64 8 4 C10.97 4.495 10.97 4.495 14 5 C13.67 5.66 13.34 6.32 13 7 C10.9375 7.625 10.9375 7.625 9 8 C9 8.99 9 9.98 9 11 C8.34 11 7.68 11 7 11 C6.34 12.32 5.68 13.64 5 15 C3.35 15 1.7 15 0 15 C0 15.99 0 16.98 0 18 C0.66 18.33 1.32 18.66 2 19 C1.67 19.99 1.34 20.98 1 22 C0.08476562 22.06058594 -0.83046875 22.12117188 -1.7734375 22.18359375 C-2.96195312 22.26738281 -4.15046875 22.35117187 -5.375 22.4375 C-7.15003906 22.55931641 -7.15003906 22.55931641 -8.9609375 22.68359375 C-11.91518901 22.81084936 -11.91518901 22.81084936 -14 24 C-16.3400417 23.71758117 -18.67504723 23.38749213 -21 23 C-20.01 21.515 -20.01 21.515 -19 20 C-17.68 20 -16.36 20 -15 20 C-15 19.01 -15 18.02 -15 17 C-12.5625 17.375 -12.5625 17.375 -10 18 C-9.67 18.66 -9.34 19.32 -9 20 C-9.04125 19.21625 -9.0825 18.4325 -9.125 17.625 C-9 15 -9 15 -7 13 C-4.375 12.875 -4.375 12.875 -2 13 C-2.061875 12.05125 -2.12375 11.1025 -2.1875 10.125 C-2.0946875 8.578125 -2.0946875 8.578125 -2 7 C-1.01 6.34 -0.02 5.68 1 5 C0.34 3.68 -0.32 2.36 -1 1 C-0.67 0.67 -0.34 0.34 0 0 Z " fill="#262624" transform="translate(472,372)"/>
<path d="M0 0 C2 3 2 3 2 5 C3.98 5 5.96 5 8 5 C7.01 6.485 7.01 6.485 6 8 C4.68 8 3.36 8 2 8 C2.33 8.99 2.66 9.98 3 11 C-2.625 16 -2.625 16 -6 16 C-6.0825 16.78375 -6.165 17.5675 -6.25 18.375 C-7 21 -7 21 -8.8125 22.4375 C-11 23 -11 23 -13.1875 22.5 C-15 21 -15 21 -15.75 17.875 C-15.8325 16.92625 -15.915 15.9775 -16 15 C-13 13 -13 13 -9 13 C-8.814375 11.8553125 -8.814375 11.8553125 -8.625 10.6875 C-8 8 -8 8 -6 5 C-6.30840599 2.84725052 -6.30840599 2.84725052 -7 1 C-3.125 2.875 -3.125 2.875 -2 4 C-1.34 2.68 -0.68 1.36 0 0 Z " fill="#262624" transform="translate(197,141)"/>
<path d="M0 0 C0.33 1.32 0.66 2.64 1 4 C3.97 4.495 3.97 4.495 7 5 C6.67 5.66 6.34 6.32 6 7 C3.9375 7.625 3.9375 7.625 2 8 C2 8.99 2 9.98 2 11 C1.34 11 0.68 11 0 11 C-0.66 12.32 -1.32 13.64 -2 15 C-3.65 15 -5.3 15 -7 15 C-6.95875 15.78375 -6.9175 16.5675 -6.875 17.375 C-7 20 -7 20 -9 22 C-11.5 22.25 -11.5 22.25 -14 22 C-16 20 -16 20 -16.25 17.5 C-16 15 -16 15 -14 13 C-11.375 12.875 -11.375 12.875 -9 13 C-9.061875 12.236875 -9.12375 11.47375 -9.1875 10.6875 C-9 8 -9 8 -7.5 6.1875 C-7.005 5.795625 -6.51 5.40375 -6 5 C-6.66 4.01 -7.32 3.02 -8 2 C-6.68 2 -5.36 2 -4 2 C-3.34 2.66 -2.68 3.32 -2 4 C-1.34 2.68 -0.68 1.36 0 0 Z " fill="#272725" transform="translate(300,244)"/>
<path d="M0 0 C0.99 0 1.98 0 3 0 C2.67 1.98 2.34 3.96 2 6 C3.65 5.34 5.3 4.68 7 4 C7 5.32 7 6.64 7 8 C6 9 6 9 3.4375 9.0625 C2.633125 9.041875 1.82875 9.02125 1 9 C1.33 9.99 1.66 10.98 2 12 C1.01 12.33 0.02 12.66 -1 13 C-1 13.66 -1 14.32 -1 15 C-0.01 15.33 0.98 15.66 2 16 C-6.31693385 19.65284688 -6.31693385 19.65284688 -11 18 C-11.66 17.67 -12.32 17.34 -13 17 C-13.625 13.9375 -13.625 13.9375 -14 11 C-12.35 11 -10.7 11 -9 11 C-8.67 12.32 -8.34 13.64 -8 15 C-7.34 15 -6.68 15 -6 15 C-6.66 14.34 -7.32 13.68 -8 13 C-7.67028521 9.70285207 -7.3773161 8.3773161 -5 6 C-2.875 6.375 -2.875 6.375 -1 7 C-0.67 4.69 -0.34 2.38 0 0 Z " fill="#262624" transform="translate(374,475)"/>
<path d="M0 0 C3.94139078 1.66751148 6.7892812 4.22710649 10 7 C8.7259103 10.92844323 7.62144181 12.94458708 4 15 C1.68652128 15.73260159 -0.645752 16.411438 -3 17 C-2.67 18.65 -2.34 20.3 -2 22 C-2.66 22 -3.32 22 -4 22 C-5.65 18.37 -7.3 14.74 -9 11 C-8.01 10.34 -7.02 9.68 -6 9 C-2.3125 10.375 -2.3125 10.375 1 12 C0.835 11.13375 0.67 10.2675 0.5 9.375 C0.02781452 6.18774801 -0.07655118 3.21514973 0 0 Z " fill="#262624" transform="translate(321,318)"/>
<path d="M0 0 C-0.33 0.33 -0.66 0.66 -1 1 C-0.34 1.66 0.32 2.32 1 3 C-0.98 3.99 -0.98 3.99 -3 5 C-1.68 5.99 -0.36 6.98 1 8 C-1.72535688 8.86838824 -4.45416373 9.71992619 -7.1875 10.5625 C-7.95642578 10.80935547 -8.72535156 11.05621094 -9.51757812 11.31054688 C-13.68715615 12.58110499 -16.70917169 13.43600867 -21 12 C-20.67 11.34 -20.34 10.68 -20 10 C-18.35 10 -16.7 10 -15 10 C-14.67 8.02 -14.34 6.04 -14 4 C-14.66 3.67 -15.32 3.34 -16 3 C-14.08802961 2.29954544 -12.17019565 1.615081 -10.25 0.9375 C-9.18265625 0.55464844 -8.1153125 0.17179687 -7.015625 -0.22265625 C-4.07719958 -0.98010011 -2.77651052 -1.07151741 0 0 Z " fill="#272725" transform="translate(209,344)"/>
<path d="M0 0 C-0.33 1.32 -0.66 2.64 -1 4 C-0.01 3.67 0.98 3.34 2 3 C2 4.32 2 5.64 2 7 C-1 9 -1 9 -4 9 C-4.99 11.31 -5.98 13.62 -7 16 C-10.62613199 15.43040847 -12.25517741 14.07625466 -14.75 11.4375 C-15.36359375 10.79683594 -15.9771875 10.15617187 -16.609375 9.49609375 C-17.06828125 9.00238281 -17.5271875 8.50867188 -18 8 C-17.67 7.34 -17.34 6.68 -17 6 C-16.46375 6.185625 -15.9275 6.37125 -15.375 6.5625 C-12.38009386 7.11419324 -9.96254171 6.60597444 -7 6 C-6.87625 5.030625 -6.7525 4.06125 -6.625 3.0625 C-6.41875 2.051875 -6.2125 1.04125 -6 0 C-3.50907189 -1.24546405 -2.58919267 -0.7767578 0 0 Z " fill="#262624" transform="translate(348,302)"/>
<path d="M0 0 C3.05549328 0.21824952 4.31726286 1.25236818 6.75 3.1875 C9 6 9 6 9.3125 9.3125 C9.1578125 10.6428125 9.1578125 10.6428125 9 12 C8.360625 12.28875 7.72125 12.5775 7.0625 12.875 C4.84793921 13.82823451 4.84793921 13.82823451 4 16 C3.95977609 18.3329866 3.95679753 20.66706666 4 23 C3.01 22.67 2.02 22.34 1 22 C0.76055433 19.65139463 0.52455208 17.30252115 0.29296875 14.953125 C0.09346046 12.94208146 -0.11252688 10.93167256 -0.32421875 8.921875 C-0.42347656 7.93703125 -0.52273438 6.9521875 -0.625 5.9375 C-0.72039062 5.01839844 -0.81578125 4.09929687 -0.9140625 3.15234375 C-0.94242187 2.44207031 -0.97078125 1.73179687 -1 1 C-0.67 0.67 -0.34 0.34 0 0 Z " fill="#292927" transform="translate(492,251)"/>
<path d="M0 0 C0.66 0.66 1.32 1.32 2 2 C2.66 1.34 3.32 0.68 4 0 C4.99 0 5.98 0 7 0 C6.67 0.99 6.34 1.98 6 3 C5.34 2.67 4.68 2.34 4 2 C4 3.32 4 4.64 4 6 C4.99 6.33 5.98 6.66 7 7 C6.39891424 12.65020618 4.92471317 17.66164461 3 23 C1.39968656 19.79937313 2.96826309 17.27728194 4 14 C3.01 14.66 2.02 15.32 1 16 C0.01 16 -0.98 16 -2 16 C-2 15.01 -2 14.02 -2 13 C-1.01 13 -0.02 13 1 13 C0.484375 12.505 -0.03125 12.01 -0.5625 11.5 C-2.73467507 7.72230422 -1.83094793 5.2239853 -1 1 C-0.67 0.67 -0.34 0.34 0 0 Z " fill="#282826" transform="translate(347,193)"/>
<path d="M0 0 C-3 1 -3 1 -6 0 C-6.33 0.99 -6.66 1.98 -7 3 C-9.5625 4.1875 -9.5625 4.1875 -12 5 C-12 5.99 -12 6.98 -12 8 C-12.61875 8.28875 -13.2375 8.5775 -13.875 8.875 C-16.13325765 9.93720042 -16.13325765 9.93720042 -18 12 C-20.125 11.625 -20.125 11.625 -22 11 C-22.12375 10.195625 -22.2475 9.39125 -22.375 8.5625 C-22.684375 7.2940625 -22.684375 7.2940625 -23 6 C-23.66 5.67 -24.32 5.34 -25 5 C-22.15155105 3.96009007 -19.29807022 2.94304729 -16.4375 1.9375 C-15.63763672 1.64294922 -14.83777344 1.34839844 -14.01367188 1.04492188 C-8.83716553 -0.7510089 -5.35571834 -1.25805464 0 0 Z " fill="#232221" transform="translate(255,102)"/>
<path d="M0 0 C0.66 0.66 1.32 1.32 2 2 C1.625 4.125 1.625 4.125 1 6 C2.65 5.67 4.3 5.34 6 5 C6 5.99 6 6.98 6 8 C5.21625 8.226875 4.4325 8.45375 3.625 8.6875 C0.78943005 9.77288673 0.78943005 9.77288673 -0.25 12.5625 C-0.4975 13.366875 -0.745 14.17125 -1 15 C-2 16 -2 16 -4.4375 16.1875 C-7 16 -7 16 -9 14 C-9.25 11.5 -9.25 11.5 -9 9 C-7 7 -7 7 -4.375 6.875 C-3.59125 6.91625 -2.8075 6.9575 -2 7 C-2.04125 6.21625 -2.0825 5.4325 -2.125 4.625 C-2 2 -2 2 0 0 Z " fill="#262624" transform="translate(390,153)"/>
<path d="M0 0 C3.68069887 1.53643852 5.98775204 3.78150945 8.75 6.625 C9.54921875 7.44226563 10.3484375 8.25953125 11.171875 9.1015625 C12.07679688 10.04128906 12.07679688 10.04128906 13 11 C11 15 11 15 9 19 C6.11562221 17.70700306 4.12780579 16.34058637 2 14 C2.66 11.69 3.32 9.38 4 7 C3.34 7 2.68 7 2 7 C2 5.68 2 4.36 2 3 C1.34 2.01 0.68 1.02 0 0 Z " fill="#252523" transform="translate(216,211)"/>
<path d="M0 0 C0.99 0.33 1.98 0.66 3 1 C2.01 2.32 1.02 3.64 0 5 C1.11375 4.79375 2.2275 4.5875 3.375 4.375 C5.169375 4.189375 5.169375 4.189375 7 4 C7.66 4.66 8.32 5.32 9 6 C8.61121812 9.01305957 7.73543126 10.39685311 6 13 C12.27 13 18.54 13 25 13 C25 13.33 25 13.66 25 14 C13.45 14 1.9 14 -10 14 C-8 12 -8 12 -5.3984375 11.8046875 C-4.40070313 11.82789063 -3.40296875 11.85109375 -2.375 11.875 C-0.87066406 11.90207031 -0.87066406 11.90207031 0.6640625 11.9296875 C1.43492187 11.95289063 2.20578125 11.97609375 3 12 C3 11.34 3 10.68 3 10 C4.5 8.375 4.5 8.375 6 7 C3.69 7.33 1.38 7.66 -1 8 C-1.66 6.68 -2.32 5.36 -3 4 C-2.01 2.68 -1.02 1.36 0 0 Z " fill="#272725" transform="translate(371,168)"/>
<path d="M0 0 C1.13199353 0.9080162 2.25532363 1.82683826 3.375 2.75 C4.00148438 3.26046875 4.62796875 3.7709375 5.2734375 4.296875 C7.08312318 6.08199481 8.00117455 7.67949644 9 10 C7.19873295 12.27528469 6.3633843 12.94682181 3.4375 13.375 C2.633125 13.25125 1.82875 13.1275 1 13 C-1 10 -1 10 -0.625 7.0625 C-0.41875 6.051875 -0.2125 5.04125 0 4 C0 2.68 0 1.36 0 0 Z " fill="#262624" transform="translate(316,118)"/>
<path d="M0 0 C1.13199353 0.9080162 2.25532363 1.82683826 3.375 2.75 C4.00148437 3.26046875 4.62796875 3.7709375 5.2734375 4.296875 C7.08312318 6.08199481 8.00117455 7.67949644 9 10 C7.19873295 12.27528469 6.3633843 12.94682181 3.4375 13.375 C2.633125 13.25125 1.82875 13.1275 1 13 C-1 10 -1 10 -0.625 7.0625 C-0.41875 6.051875 -0.2125 5.04125 0 4 C0 2.68 0 1.36 0 0 Z " fill="#262624" transform="translate(149,389)"/>
<path d="M0 0 C0.33 0.66 0.66 1.32 1 2 C0.0625 4.625 0.0625 4.625 -1 7 C2.465 8.485 2.465 8.485 6 10 C6 10.99 6 11.98 6 13 C4.68 13 3.36 13 2 13 C1.67 14.65 1.34 16.3 1 18 C0.01 17.67 -0.98 17.34 -2 17 C-2.6875 14.9375 -2.6875 14.9375 -3 13 C-3.99 14.485 -3.99 14.485 -5 16 C-5.98095748 17.01868662 -6.97702078 18.02351983 -8 19 C-6.00386732 12.2813095 -3.2708579 6.19265192 0 0 Z " fill="#272725" transform="translate(441,302)"/>
<path d="M0 0 C1.13199353 0.9080162 2.25532363 1.82683826 3.375 2.75 C4.00148438 3.26046875 4.62796875 3.7709375 5.2734375 4.296875 C7.08312318 6.08199481 8.00117455 7.67949644 9 10 C7.18887927 12.28773145 6.39279457 12.95209822 3.4375 13.3125 C1 13 1 13 -1 11 C-0.7397104 8.65739357 -0.40047444 6.32275177 0 4 C0 2.68 0 1.36 0 0 Z " fill="#262624" transform="translate(445,298)"/>
<path d="M0 0 C3.82792868 1.5595265 6.36359864 3.83631836 9 7 C8.91236229 10.06731977 8.18647619 10.81352381 6 13 C1.44444444 12.44444444 1.44444444 12.44444444 0 11 C-0.04315144 8.32461085 -0.04680441 5.67305179 0 3 C0 2.01 0 1.02 0 0 Z " fill="#262624" transform="translate(122,312)"/>
<path d="M0 0 C1 1 1 1 1.3125 3.375 C1 6 1 6 -1.01953125 7.6640625 C-1.67308594 8.10492188 -2.32664063 8.54578125 -3 9 C-4.33929505 7.71451591 -5.67128643 6.42141845 -7 5.125 C-8.11375 4.04605469 -8.11375 4.04605469 -9.25 2.9453125 C-11 1 -11 1 -11 -1 C-3.52173913 -2.43812709 -3.52173913 -2.43812709 0 0 Z " fill="#262624" transform="translate(169,381)"/>
<path d="M0 0 C0.99 1.485 0.99 1.485 2 3 C1 4 1 4 -1.375 4.1875 C-4 4 -4 4 -7 2 C-6.67 2.66 -6.34 3.32 -6 4 C-5.01 4.33 -4.02 4.66 -3 5 C-3.33 5.99 -3.66 6.98 -4 8 C-6.92996359 7.37215066 -9.51755783 6.71202908 -12 5 C-12.75 2.375 -12.75 2.375 -13 0 C-8.23105511 -2.38447244 -4.8621994 -2.16097751 0 0 Z " fill="#282826" transform="translate(490,268)"/>
<path d="M0 0 C4.03520597 1.58962659 8.01811282 3.28232318 12 5 C11.67 5.66 11.34 6.32 11 7 C8.4375 7.625 8.4375 7.625 6 8 C5.67 9.65 5.34 11.3 5 13 C4.34 13 3.68 13 3 13 C1.35 9.37 -0.3 5.74 -2 2 C-1.34 1.34 -0.68 0.68 0 0 Z " fill="#262624" transform="translate(135,199)"/>
<path d="M0 0 C1.62463842 -0.05395478 3.24978541 -0.09277195 4.875 -0.125 C5.77992188 -0.14820313 6.68484375 -0.17140625 7.6171875 -0.1953125 C10 0 10 0 12 2 C11.625 5.625 11.625 5.625 11 9 C10.01 9.33 9.02 9.66 8 10 C6.66070495 8.71451591 5.32871357 7.42141845 4 6.125 C2.88625 5.04605469 2.88625 5.04605469 1.75 3.9453125 C0 2 0 2 0 0 Z " fill="#262624" transform="translate(454,289)"/>
<path d="M0 0 C2.97526665 2.55022856 4.50122302 5.40293526 6 9 C5.67 9.99 5.34 10.98 5 12 C1.625 12.1875 1.625 12.1875 -2 12 C-4 9 -4 9 -3.8125 6.4375 C-3 4 -3 4 0 2 C0 1.34 0 0.68 0 0 Z " fill="#282825" transform="translate(364,279)"/>
<path d="M0 0 C4.38889325 0.66498383 7.9811485 2.18757677 12 4 C11.67 4.99 11.34 5.98 11 7 C9.68 7 8.36 7 7 7 C6.67 8.65 6.34 10.3 6 12 C5.34 12 4.68 12 4 12 C3.13624104 10.38007835 2.28424146 8.75388139 1.4375 7.125 C0.72400391 5.76761719 0.72400391 5.76761719 -0.00390625 4.3828125 C-0.33261719 3.59648437 -0.66132813 2.81015625 -1 2 C-0.67 1.34 -0.34 0.68 0 0 Z " fill="#272725" transform="translate(307,128)"/>
<path d="M0 0 C4.57263314 0.42536122 7.99065362 1.80440556 12 4 C11.67 4.99 11.34 5.98 11 7 C9.35 7.33 7.7 7.66 6 8 C6 9.32 6 10.64 6 12 C5.34 12 4.68 12 4 12 C2.35 8.37 0.7 4.74 -1 1 C-0.67 0.67 -0.34 0.34 0 0 Z " fill="#272725" transform="translate(140,399)"/>
<path d="M0 0 C4.23429756 1.31061591 8.07407404 2.94356259 12 5 C11.67 5.66 11.34 6.32 11 7 C8.4375 7.625 8.4375 7.625 6 8 C5.67 9.65 5.34 11.3 5 13 C2.01906878 10.4449161 0.47640245 7.61718599 -1 4 C-0.6875 1.625 -0.6875 1.625 0 0 Z " fill="#272725" transform="translate(114,321)"/>
<path d="M0 0 C2.875 0.6875 2.875 0.6875 6 2 C7.375 4.625 7.375 4.625 8 7 C8 6.34 8 5.68 8 5 C10.97 5.33 13.94 5.66 17 6 C17 6.66 17 7.32 17 8 C15.56656 8.53190541 14.12804633 9.05015258 12.6875 9.5625 C11.88699219 9.85253906 11.08648437 10.14257812 10.26171875 10.44140625 C7.30387497 11.17192725 5.66478375 10.33239187 3 9 C2.32060826 7.00428677 1.65438441 5.00405227 1 3 C0.34 2.34 -0.32 1.68 -1 1 C-0.67 0.67 -0.34 0.34 0 0 Z " fill="#272725" transform="translate(249,489)"/>
<path d="M0 0 C0.625 2.3125 0.625 2.3125 1 5 C0.01 6.485 0.01 6.485 -1 8 C-6.75 7.25 -6.75 7.25 -9 5 C-8.75 2.4375 -8.75 2.4375 -8 0 C-5.13822943 -1.43088528 -3.06624227 -0.59991697 0 0 Z " fill="#252523" transform="translate(336,316)"/>
<path d="M0 0 C3.29714793 0.32971479 4.6226839 0.6226839 7 3 C6.67028521 6.29714793 6.3773161 7.6226839 4 10 C1.375 9.625 1.375 9.625 -1 9 C-1.625 5.625 -1.625 5.625 -2 2 C-1.34 1.34 -0.68 0.68 0 0 Z " fill="#252523" transform="translate(453,295)"/>
<path d="M0 0 C0.33 0 0.66 0 1 0 C1 2.31 1 4.62 1 7 C2.98 7 4.96 7 7 7 C6.34 7.61875 5.68 8.2375 5 8.875 C2.7715451 10.75637427 2.7715451 10.75637427 3 13 C-0.62613199 12.43040847 -2.25517741 11.07625466 -4.75 8.4375 C-5.36359375 7.79683594 -5.9771875 7.15617187 -6.609375 6.49609375 C-7.29773438 5.75552734 -7.29773438 5.75552734 -8 5 C-7.67 4.34 -7.34 3.68 -7 3 C-3.125 4.875 -3.125 4.875 -2 6 C-1.34 4.02 -0.68 2.04 0 0 Z " fill="#272725" transform="translate(306,441)"/>
<path d="M0 0 C2.5625 0.1875 2.5625 0.1875 4.5625 2.1875 C4.6875 5.3125 4.6875 5.3125 4.5625 8.1875 C-0.87190487 9.51591008 -0.87190487 9.51591008 -3.375 8.0625 C-4.4375 6.1875 -4.4375 6.1875 -4.1875 3.5625 C-3.13874481 0.24144191 -3.13874481 0.24144191 0 0 Z " fill="#252523" transform="translate(132.4375,308.8125)"/>
<path d="M0 0 C0.33 0 0.66 0 1 0 C1 1.65 1 3.3 1 5 C2.98 5 4.96 5 7 5 C6.67 5.99 6.34 6.98 6 8 C5.01 8.33 4.02 8.66 3 9 C2.67 9.99 2.34 10.98 2 12 C0.87411986 11.04270084 -0.2506715 10.08412105 -1.375 9.125 C-2.00148438 8.59132813 -2.62796875 8.05765625 -3.2734375 7.5078125 C-4.55836651 6.38567993 -5.79371975 5.20628025 -7 4 C-7 3.01 -7 2.02 -7 1 C-3.125 2.875 -3.125 2.875 -2 4 C-1.34 2.68 -0.68 1.36 0 0 Z " fill="#272725" transform="translate(382,468)"/>
<path d="M0 0 C0.99 0 1.98 0 3 0 C2.34 1.32 1.68 2.64 1 4 C3.31 4 5.62 4 8 4 C8.625 6.3125 8.625 6.3125 9 9 C8.01 10.485 8.01 10.485 7 12 C5.68 12 4.36 12 3 12 C3 10 3 10 4.5 8.375 C4.995 7.92125 5.49 7.4675 6 7 C4.2984375 7.2784375 4.2984375 7.2784375 2.5625 7.5625 C0.7990625 7.7790625 0.7990625 7.7790625 -1 8 C-2 7 -2 7 -2.1875 4.5625 C-2 2 -2 2 0 0 Z " fill="#272725" transform="translate(350,290)"/>
<path d="M0 0 C-0.66 1.32 -1.32 2.64 -2 4 C-0.2984375 3.9690625 -0.2984375 3.9690625 1.4375 3.9375 C5 4 5 4 6 5 C6.25 7.375 6.25 7.375 6 10 C4.5 11.8125 4.5 11.8125 3 13 C2.01 12.67 1.02 12.34 0 12 C0.66 11.01 1.32 10.02 2 9 C2.66 9 3.32 9 4 9 C4 8.34 4 7.68 4 7 C1.36 7.33 -1.28 7.66 -4 8 C-4.6875 5.6875 -4.6875 5.6875 -5 3 C-3.40083326 0.79162689 -2.76966516 0 0 0 Z " fill="#272725" transform="translate(174,162)"/>
<path d="M0 0 C0.99 0 1.98 0 3 0 C2.67 1.32 2.34 2.64 2 4 C2.969375 3.979375 3.93875 3.95875 4.9375 3.9375 C8 4 8 4 9 5 C9.04063832 6.66617115 9.042721 8.33388095 9 10 C7.35 10.66 5.7 11.32 4 12 C3.67 11.34 3.34 10.68 3 10 C3.99 9.01 4.98 8.02 6 7 C5.05125 7.20625 4.1025 7.4125 3.125 7.625 C2.09375 7.74875 1.0625 7.8725 0 8 C-0.66 7.34 -1.32 6.68 -2 6 C-1.44444444 1.44444444 -1.44444444 1.44444444 0 0 Z " fill="#272725" transform="translate(473,271)"/>
<path d="M0 0 C0.99 0.33 1.98 0.66 3 1 C2.01 2.485 2.01 2.485 1 4 C1.94875 3.95875 2.8975 3.9175 3.875 3.875 C7 4 7 4 9 6 C8.875 7.9375 8.875 7.9375 8 10 C5.9375 11.75 5.9375 11.75 4 13 C4 10 4 10 6 7 C4.2984375 7.2784375 4.2984375 7.2784375 2.5625 7.5625 C0.7990625 7.7790625 0.7990625 7.7790625 -1 8 C-2 7 -2 7 -2.1875 4.5625 C-2 2 -2 2 0 0 Z " fill="#272725" transform="translate(280,464)"/>
<path d="M0 0 C3.95820859 0.56545837 6.6659053 1.80902348 10 4 C9.67 4.66 9.34 5.32 9 6 C6.4375 6.625 6.4375 6.625 4 7 C3.67 8.65 3.34 10.3 3 12 C1.0625 11.375 1.0625 11.375 -1 10 C-1.99549067 6.7291021 -2.32868536 4.83266959 -1.0625 1.625 C-0.5365625 0.820625 -0.5365625 0.820625 0 0 Z " fill="#272725" transform="translate(239,303)"/>
<path d="M0 0 C0.99 0 1.98 0 3 0 C3 2 3 2 1.5 3.625 C1.005 4.07875 0.51 4.5325 0 5 C0.66 4.67 1.32 4.34 2 4 C3.99960012 3.960008 6.00047242 3.95653201 8 4 C8.6875 6.3125 8.6875 6.3125 9 9 C7.75 10.8125 7.75 10.8125 6 12 C5.01 12 4.02 12 3 12 C3 10 3 10 4.5 8.375 C4.995 7.92125 5.49 7.4675 6 7 C4.576875 7.2784375 4.576875 7.2784375 3.125 7.5625 C0 8 0 8 -2 7 C-2.125 4.625 -2.125 4.625 -2 2 C-1.34 1.34 -0.68 0.68 0 0 Z " fill="#272725" transform="translate(274,265)"/>
<path d="M0 0 C0.66 0 1.32 0 2 0 C2 1.65 2 3.3 2 5 C3.98 5 5.96 5 8 5 C7.67 5.66 7.34 6.32 7 7 C4.9375 7.625 4.9375 7.625 3 8 C3 8.99 3 9.98 3 11 C-0.21043882 9.61811547 -2.04936365 8.07578097 -4.25 5.375 C-4.77078125 4.74335938 -5.2915625 4.11171875 -5.828125 3.4609375 C-6.21484375 2.97882813 -6.6015625 2.49671875 -7 2 C-5.68 2 -4.36 2 -3 2 C-2.34 2.66 -1.68 3.32 -1 4 C-0.67 2.68 -0.34 1.36 0 0 Z " fill="#282826" transform="translate(396,147)"/>
<path d="M0 0 C1.67542976 0.28604898 3.34385343 0.61781233 5 1 C5 2.33333333 5 3.66666667 5 5 C5.99 5 6.98 5 8 5 C7.67 5.99 7.34 6.98 7 8 C1.56559513 9.32841008 1.56559513 9.32841008 -0.9375 7.875 C-2 6 -2 6 -1.75 3.375 C-1 1 -1 1 0 0 Z " fill="#272725" transform="translate(466,282)"/>
<path d="M0 0 C1.32 0.66 2.64 1.32 4 2 C3.67 3.32 3.34 4.64 3 6 C3.99 5.67 4.98 5.34 6 5 C5.1875 6.9375 5.1875 6.9375 4 9 C3.01 9.33 2.02 9.66 1 10 C-1.1875 8.875 -1.1875 8.875 -3 7 C-3.4375 4.4375 -3.4375 4.4375 -3 2 C-2.01 1.34 -1.02 0.68 0 0 Z " fill="#272725" transform="translate(274,475)"/>
<path d="M0 0 C1.67542976 0.28604898 3.34385343 0.61781233 5 1 C4.67 2.32 4.34 3.64 4 5 C4.99 4.67 5.98 4.34 7 4 C6.67 5.32 6.34 6.64 6 8 C3.6875 8.6875 3.6875 8.6875 1 9 C-0.875 7.875 -0.875 7.875 -2 6 C-1.57894737 1.57894737 -1.57894737 1.57894737 0 0 Z " fill="#272725" transform="translate(170,373)"/>
<path d="M0 0 C0.99 0.33 1.98 0.66 3 1 C2.68289062 1.69480469 2.36578125 2.38960938 2.0390625 3.10546875 C0.90598948 6.26188644 0.59519989 8.97280167 0.375 12.3125 C0.30023438 13.38113281 0.22546875 14.44976562 0.1484375 15.55078125 C0.09945312 16.35902344 0.05046875 17.16726563 0 18 C-0.33 18 -0.66 18 -1 18 C-1.0825 17.05125 -1.165 16.1025 -1.25 15.125 C-1.65074923 11.89538209 -1.65074923 11.89538209 -4.0625 10.625 C-4.701875 10.41875 -5.34125 10.2125 -6 10 C-5.6875 7.625 -5.6875 7.625 -5 5 C-2 3 -2 3 0 3 C0 2.01 0 1.02 0 0 Z " fill="#272625" transform="translate(181,358)"/>
<path d="M0 0 C-0.33 0.99 -0.66 1.98 -1 3 C-1.66 2.67 -2.32 2.34 -3 2 C-3 3.32 -3 4.64 -3 6 C-2.01 6.33 -1.02 6.66 0 7 C-0.66 8.98 -1.32 10.96 -2 13 C-6.875 8.25 -6.875 8.25 -8 6 C-6.56530686 1.69592058 -4.58010985 0 0 0 Z " fill="#222220" transform="translate(354,193)"/>
<path d="M0 0 C3.21524305 1.40844718 5.32183868 3.10344786 7.75 5.625 C8.67039062 6.57246094 8.67039062 6.57246094 9.609375 7.5390625 C10.29773438 8.26222656 10.29773438 8.26222656 11 9 C10.01 9 9.02 9 8 9 C6.35 7.35 4.7 5.7 3 4 C3 9.28 3 14.56 3 20 C2.67 20 2.34 20 2 20 C1.31798844 14.62915894 0.88478735 9.41499441 1 4 C0.34 4 -0.32 4 -1 4 C-0.67 2.68 -0.34 1.36 0 0 Z " fill="#242422" transform="translate(434,156)"/>
<path d="M0 0 C1.2065625 0.0309375 1.2065625 0.0309375 2.4375 0.0625 C2.52 0.68125 2.6025 1.3 2.6875 1.9375 C3.25008459 4.24687567 3.25008459 4.24687567 5.5 5.3125 C6.139375 5.56 6.77875 5.8075 7.4375 6.0625 C6.4475 7.5475 6.4475 7.5475 5.4375 9.0625 C4.10416667 8.39583333 2.77083333 7.72916667 1.4375 7.0625 C0.715625 6.77375 -0.00625 6.485 -0.75 6.1875 C-2.5625 5.0625 -2.5625 5.0625 -3.375 3 C-3.436875 2.360625 -3.49875 1.72125 -3.5625 1.0625 C-2.5625 0.0625 -2.5625 0.0625 0 0 Z " fill="#272725" transform="translate(286.5625,460.9375)"/>
<path d="M0 0 C0.99 0.495 0.99 0.495 2 1 C3.31028752 5.22468461 2.99364944 9.39680661 2.6875 13.75 C2.63432617 14.77673828 2.63432617 14.77673828 2.58007812 15.82421875 C2.46516617 17.55647352 2.24111252 19.28076293 2 21 C1.34 21.33 0.68 21.66 0 22 C0 14.74 0 7.48 0 0 Z " fill="#0E0F0D" transform="translate(503,290)"/>
<path d="M0 0 C0 0.66 0 1.32 0 2 C1.9600281 3.63676257 1.9600281 3.63676257 4 5 C3.01 5 2.02 5 1 5 C1 5.66 1 6.32 1 7 C-0.875 7.625 -0.875 7.625 -3 8 C-5.5654594 5.4345406 -5.54046087 3.52313332 -6 0 C-3 -1 -3 -1 0 0 Z " fill="#1C1C1A" transform="translate(202,347)"/>
<path d="M0 0 C1.67542976 0.28604898 3.34385343 0.61781233 5 1 C5.33 1.99 5.66 2.98 6 4 C8.00016466 5.20882096 8.00016466 5.20882096 10 6 C9.01 7.485 9.01 7.485 8 9 C6.66666667 8.33333333 5.33333333 7.66666667 4 7 C3.278125 6.71125 2.55625 6.4225 1.8125 6.125 C0 5 0 5 -0.8125 2.9375 C-0.874375 2.298125 -0.93625 1.65875 -1 1 C-0.67 0.67 -0.34 0.34 0 0 Z " fill="#272725" transform="translate(375,165)"/>
<path d="M0 0 C-3.08809695 1.76462683 -4.23312136 2 -8 2 C-8 1.34 -8 0.68 -8 0 C-16.58 0 -25.16 0 -34 0 C-34 -0.33 -34 -0.66 -34 -1 C-22.74015285 -2.25323641 -11.12081647 -2.52356989 0 0 Z " fill="#21211F" transform="translate(320,96)"/>
<path d="M0 0 C1.65 0 3.3 0 5 0 C5.33 1.32 5.66 2.64 6 4 C7.32 4.33 8.64 4.66 10 5 C9.67 6.32 9.34 7.64 9 9 C6.0280615 7.87548273 3.66559313 6.77706209 1 5 C0.3125 2.375 0.3125 2.375 0 0 Z " fill="#272725" transform="translate(354,287)"/>
<path d="M0 0 C1.65 0 3.3 0 5 0 C5.33 1.32 5.66 2.64 6 4 C7.32 4.33 8.64 4.66 10 5 C9.67 5.99 9.34 6.98 9 8 C5.81390075 7.64598897 4.20933322 7.16972964 1.6875 5.125 C0 3 0 3 0 0 Z " fill="#272725" transform="translate(278,262)"/>
<path d="M0 0 C1.15387657 3.46162972 0.79998922 4.20002875 -0.4375 7.5 C-1.47576279 10.29353218 -2 11.97909181 -2 15 C-1.34 15.66 -0.68 16.32 0 17 C-0.61875 17.268125 -1.2375 17.53625 -1.875 17.8125 C-4.2995233 18.95556848 -4.2995233 18.95556848 -6 22 C-6.41247574 16.55188294 -4.98910997 12.57985503 -3 7.625 C-2.71382813 6.88894531 -2.42765625 6.15289062 -2.1328125 5.39453125 C-1.43085139 3.59283107 -0.71665595 1.79590568 0 0 Z " fill="#242422" transform="translate(108,227)"/>
<path d="M0 0 C0.66 0.33 1.32 0.66 2 1 C1.67 2.98 1.34 4.96 1 7 C2.65 6.34 4.3 5.68 6 5 C6 5.99 6 6.98 6 8 C5.34 8.66 4.68 9.32 4 10 C1.06546739 9.63318342 0.13562754 9.13562754 -2 7 C-2.25 4.5 -2.25 4.5 -2 2 C-1.34 1.34 -0.68 0.68 0 0 Z " fill="#272725" transform="translate(299,449)"/>
<path d="M0 0 C1.67542976 0.28604898 3.34385343 0.61781233 5 1 C5.103125 1.639375 5.20625 2.27875 5.3125 2.9375 C5.539375 3.618125 5.76625 4.29875 6 5 C6.99 5.33 7.98 5.66 9 6 C8.67 6.99 8.34 7.98 8 9 C5.0280615 7.87548273 2.66559313 6.77706209 0 5 C-0.75 2.9375 -0.75 2.9375 -1 1 C-0.67 0.67 -0.34 0.34 0 0 Z " fill="#282826" transform="translate(176,159)"/>
<path d="M0 0 C0.53625 0.144375 1.0725 0.28875 1.625 0.4375 C4.39915827 1.09453748 7.18525388 1.55219948 10 2 C10 2.33 10 2.66 10 3 C7.69 3.33 5.38 3.66 3 4 C4.98 5.98 6.96 7.96 9 10 C8.67 10.66 8.34 11.32 8 12 C5.03 9.03 2.06 6.06 -1 3 C-0.67 2.01 -0.34 1.02 0 0 Z " fill="#252523" transform="translate(157,433)"/>
<path d="M0 0 C1.75 0.125 1.75 0.125 4 1 C6.25255076 3.96049529 7.82267893 6.4680368 9 10 C6 10 6 10 4.17578125 8.25 C3.56089844 7.5075 2.94601563 6.765 2.3125 6 C1.68988281 5.2575 1.06726563 4.515 0.42578125 3.75 C-0.04472656 3.1725 -0.51523438 2.595 -1 2 C-0.67 1.34 -0.34 0.68 0 0 Z " fill="#272725" transform="translate(132,302)"/>
<path d="M0 0 C2.03144641 0.93446535 4.03533587 1.93224776 6 3 C6.33 2.34 6.66 1.68 7 1 C6.67 2.65 6.34 4.3 6 6 C5.01 6.33 4.02 6.66 3 7 C3 6.34 3 5.68 3 5 C1.02 5.66 -0.96 6.32 -3 7 C-2.625 4.0625 -2.625 4.0625 -2 1 C-1.34 0.67 -0.68 0.34 0 0 Z " fill="#252623" transform="translate(351,185)"/>
<path d="M0 0 C1.98 1.65 3.96 3.3 6 5 C5.67 6.32 5.34 7.64 5 9 C4.34 9 3.68 9 3 9 C2.67 10.32 2.34 11.64 2 13 C0 10 0 10 0.3125 7.375 C1 5 1 5 2 4 C1.34 3.67 0.68 3.34 0 3 C0 2.01 0 1.02 0 0 Z " fill="#1B1B19" transform="translate(492,253)"/>
<path d="M0 0 C0.33 0 0.66 0 1 0 C1.12867289 8.06350113 0.79681084 15.97497656 0 24 C-0.33 24 -0.66 24 -1 24 C-1.22644569 20.75099666 -1.42797517 17.50090961 -1.625 14.25 C-1.68945312 13.32960938 -1.75390625 12.40921875 -1.8203125 11.4609375 C-1.871875 10.57148438 -1.9234375 9.68203125 -1.9765625 8.765625 C-2.02893066 7.94868164 -2.08129883 7.13173828 -2.13525391 6.29003906 C-1.98414765 3.73159732 -1.28926961 2.19131832 0 0 Z " fill="#242423" transform="translate(103,276)"/>
<path d="M0 0 C0.66 0.66 1.32 1.32 2 2 C1.625 5.125 1.625 5.125 1 8 C0.34 7.67 -0.32 7.34 -1 7 C-1 5.68 -1 4.36 -1 3 C-1.99 3 -2.98 3 -4 3 C-5.6875 1.5 -5.6875 1.5 -7 0 C-3.85179059 -1.04940314 -3.00659136 -1.066855 0 0 Z " fill="#272725" transform="translate(271,483)"/>
<path d="M0 0 C0.66 1.32 1.32 2.64 2 4 C1.34 4 0.68 4 0 4 C0.268125 5.216875 0.53625 6.43375 0.8125 7.6875 C1.109375 9.88671875 1.109375 9.88671875 1 12 C-1.4375 15 -1.4375 15 -4 17 C-4.33 16.34 -4.66 15.68 -5 15 C-4.67 14.34 -4.34 13.68 -4 13 C-3.34 13 -2.68 13 -2 13 C-1.93941406 12.22914063 -1.87882813 11.45828125 -1.81640625 10.6640625 C-1.69072266 9.15972656 -1.69072266 9.15972656 -1.5625 7.625 C-1.48128906 6.62726563 -1.40007812 5.62953125 -1.31640625 4.6015625 C-1 2 -1 2 0 0 Z " fill="#262624" transform="translate(237,317)"/>
<path d="M0 0 C0.66 0 1.32 0 2 0 C2.33 1.32 2.66 2.64 3 4 C4.32 3.67 5.64 3.34 7 3 C7 4.32 7 5.64 7 7 C5 7 3 7 1 7 C0.34 5.02 -0.32 3.04 -1 1 C-0.67 0.67 -0.34 0.34 0 0 Z " fill="#242422" transform="translate(182,463)"/>
<path d="M0 0 C0.99 0.33 1.98 0.66 3 1 C-3.435 5.95 -3.435 5.95 -10 11 C-10 10.01 -10 9.02 -10 8 C-9.01 7.67 -8.02 7.34 -7 7 C-7 6.34 -7 5.68 -7 5 C-5.03277992 3.61876037 -3.03131672 2.28511874 -1 1 C-0.67 0.67 -0.34 0.34 0 0 Z " fill="#131311" transform="translate(426,450)"/>
<path d="M0 0 C1.70884005 1.62339805 3.37446717 3.29319053 5 5 C5 5.66 5 6.32 5 7 C4.34 7 3.68 7 3 7 C2.01 8.485 2.01 8.485 1 10 C-0.83691257 6.21812119 -1.15837626 4.05431692 0 0 Z " fill="#292927" transform="translate(464,181)"/>
<path d="M0 0 C1.32 0 2.64 0 4 0 C4 3.79557881 3.49821059 5.62902617 2 9 C0.4375 7.3125 0.4375 7.3125 -1 5 C-0.6875 2.25 -0.6875 2.25 0 0 Z " fill="#242421" transform="translate(443,205)"/>
<path d="M0 0 C0.33 0.99 0.66 1.98 1 3 C0.34 3 -0.32 3 -1 3 C-1.66 4.32 -2.32 5.64 -3 7 C-3.433125 5.5459375 -3.433125 5.5459375 -3.875 4.0625 C-4.64214682 0.89335797 -4.64214682 0.89335797 -7 0 C-4.3333581 -1.33332095 -2.83319697 -0.67102033 0 0 Z " fill="#292927" transform="translate(237,107)"/>
<path d="M0 0 C5.94 0 11.88 0 18 0 C18 0.33 18 0.66 18 1 C13.05 1.66 8.1 2.32 3 3 C3 2.34 3 1.68 3 1 C2.01 0.67 1.02 0.34 0 0 Z " fill="#232321" transform="translate(228,134)"/>
<path d="M0 0 C1.65 1.65 3.3 3.3 5 5 C3.35 5.66 1.7 6.32 0 7 C-0.66 5.68 -1.32 4.36 -2 3 C-1.34 2.01 -0.68 1.02 0 0 Z " fill="#1C1C1A" transform="translate(474,378)"/>
<path d="M0 0 C1.65 1.65 3.3 3.3 5 5 C3.35 5.66 1.7 6.32 0 7 C-1.125 2.25 -1.125 2.25 0 0 Z " fill="#1C1C1A" transform="translate(295,250)"/>
<path d="M0 0 C0.66 0 1.32 0 2 0 C3.625 2.5 3.625 2.5 5 5 C3.35 5.66 1.7 6.32 0 7 C-0.93423645 3.98968256 -1.04449911 3.13349732 0 0 Z " fill="#1C1C1A" transform="translate(192,147)"/>
<path d="M0 0 C0.33 0 0.66 0 1 0 C1 4.95 1 9.9 1 15 C0.34 15 -0.32 15 -1 15 C-1.33 12.03 -1.66 9.06 -2 6 C-1.67 6 -1.34 6 -1 6 C-0.67 4.02 -0.34 2.04 0 0 Z " fill="#22221F" transform="translate(393,459)"/>
<path d="M0 0 C0.66 0.66 1.32 1.32 2 2 C1.34 2.66 0.68 3.32 0 4 C0 5.32 0 6.64 0 8 C-1.32 7.34 -2.64 6.68 -4 6 C-1.125 1.125 -1.125 1.125 0 0 Z " fill="#272725" transform="translate(357,489)"/>
<path d="M0 0 C2.475 0.99 2.475 0.99 5 2 C5 2.66 5 3.32 5 4 C5.99 4.33 6.98 4.66 8 5 C7.67 5.66 7.34 6.32 7 7 C3.17053157 5.54744301 1.87949705 3.57104439 0 0 Z " fill="#252524" transform="translate(476,258)"/>
<path d="M0 0 C0.33 0.99 0.66 1.98 1 3 C1.66 3 2.32 3 3 3 C2.67 5.97 2.34 8.94 2 12 C1.67 12 1.34 12 1 12 C0.01751476 7.9472484 -0.08159574 4.16138263 0 0 Z " fill="#232322" transform="translate(134,228)"/>
<path d="M0 0 C0.33 0.99 0.66 1.98 1 3 C-1.64 3.33 -4.28 3.66 -7 4 C-6.67 3.01 -6.34 2.02 -6 1 C-3.90006779 0.25486277 -2.22568901 0 0 0 Z " fill="#1C1C1A" transform="translate(335,106)"/>
<path d="M0 0 C3.72114571 2.31537955 6.61229661 4.28579473 9 8 C5.56247993 6.4722133 2.81046312 4.49818944 0 2 C0 1.34 0 0.68 0 0 Z " fill="#141413" transform="translate(162,450)"/>
<path d="M0 0 C1.65 0.33 3.3 0.66 5 1 C5 1.66 5 2.32 5 3 C0.545 3.495 0.545 3.495 -4 4 C-2.68 3.67 -1.36 3.34 0 3 C0 2.01 0 1.02 0 0 Z " fill="#272725" transform="translate(457,389)"/>
<path d="M0 0 C0.33 0 0.66 0 1 0 C0.67 2.97 0.34 5.94 0 9 C-0.99 8.01 -1.98 7.02 -3 6 C-3 5.01 -3 4.02 -3 3 C-2.34 3 -1.68 3 -1 3 C-0.67 2.01 -0.34 1.02 0 0 Z " fill="#151513" transform="translate(239,309)"/>
<path d="M0 0 C2.97 0.495 2.97 0.495 6 1 C4.515 2.485 4.515 2.485 3 4 C2.01 3.67 1.02 3.34 0 3 C0 2.01 0 1.02 0 0 Z " fill="#1D1D1B" transform="translate(363,285)"/>
<path d="M0 0 C3 1 3 1 3 1 Z " fill="#1F1F1D" transform="translate(96,350)"/>
<path d="M0 0 C0.66 0.66 1.32 1.32 2 2 C1.34 2 0.68 2 0 2 C0 1.34 0 0.68 0 0 Z " fill="#1F1F1D" transform="translate(412,315)"/>
<path d="" fill="#21211F" transform="translate(0,0)"/>
<path d="M0 0 C2 1 2 1 2 1 Z " fill="#1E1E1D" transform="translate(301,508)"/>
<path d="M0 0 C2 1 2 1 2 1 Z " fill="#1A1A19" transform="translate(245,499)"/>
<path d="" fill="#191917" transform="translate(0,0)"/>
<path d="" fill="#242422" transform="translate(0,0)"/>
<path d="" fill="#21211F" transform="translate(0,0)"/>
<path d="M0 0 C2 1 2 1 2 1 Z " fill="#1B1B19" transform="translate(213,475)"/>
<path d="" fill="#181816" transform="translate(0,0)"/>
<path d="" fill="#20201E" transform="translate(0,0)"/>
<path d="" fill="#21211F" transform="translate(0,0)"/>
<path d="M0 0 C2 1 2 1 2 1 Z " fill="#151513" transform="translate(477,406)"/>
<path d="" fill="#151514" transform="translate(0,0)"/>
<path d="M0 0 C2 1 2 1 2 1 Z " fill="#232320" transform="translate(432,364)"/>
<path d="M0 0 C2 1 2 1 2 1 Z " fill="#292A27" transform="translate(101,359)"/>
<path d="" fill="#1F1F1D" transform="translate(0,0)"/>
<path d="M0 0 C2 1 2 1 2 1 Z " fill="#161514" transform="translate(159,329)"/>
<path d="M0 0 C2 1 2 1 2 1 Z " fill="#2A2A28" transform="translate(232,328)"/>
<path d="" fill="#1F1F1D" transform="translate(0,0)"/>
<path d="" fill="#1E1E1C" transform="translate(0,0)"/>
<path d="" fill="#292827" transform="translate(0,0)"/>
<path d="M0 0 C2 1 2 1 2 1 Z " fill="#292927" transform="translate(141,258)"/>
<path d="" fill="#222220" transform="translate(0,0)"/>
<path d="" fill="#1F1F1D" transform="translate(0,0)"/>
<path d="" fill="#1A1A18" transform="translate(0,0)"/>
<path d="M0 0 C2 1 2 1 2 1 Z " fill="#1C1C1A" transform="translate(208,217)"/>
<path d="" fill="#1F1F1D" transform="translate(0,0)"/>
<path d="" fill="#1A1A19" transform="translate(0,0)"/>
<path d="M0 0 C2 1 2 1 2 1 Z " fill="#1E1E1D" transform="translate(336,172)"/>
<path d="M0 0 C2 1 2 1 2 1 Z " fill="#191917" transform="translate(281,135)"/>
<path d="M0 0 C2 1 2 1 2 1 Z " fill="#161614" transform="translate(286,134)"/>
<path d="" fill="#282827" transform="translate(0,0)"/>
<path d="M0 0 C2 1 2 1 2 1 Z " fill="#242423" transform="translate(277,122)"/>
<path d="M0 0 C2 1 2 1 2 1 Z " fill="#171715" transform="translate(264,107)"/>
<path d="" fill="#21211F" transform="translate(0,0)"/>
<path d="" fill="#070706" transform="translate(0,0)"/>
<path d="" fill="#080807" transform="translate(0,0)"/>
<path d="" fill="#1C1C1A" transform="translate(0,0)"/>
<path d="" fill="#1E1E1C" transform="translate(0,0)"/>
<path d="" fill="#222120" transform="translate(0,0)"/>
<path d="" fill="#222220" transform="translate(0,0)"/>
<path d="" fill="#1D1D1B" transform="translate(0,0)"/>
<path d="" fill="#1D1D1B" transform="translate(0,0)"/>
<path d="" fill="#272725" transform="translate(0,0)"/>
<path d="" fill="#242423" transform="translate(0,0)"/>
<path d="" fill="#232321" transform="translate(0,0)"/>
<path d="" fill="#282826" transform="translate(0,0)"/>
<path d="" fill="#262624" transform="translate(0,0)"/>
<path d="" fill="#292927" transform="translate(0,0)"/>
<path d="" fill="#141412" transform="translate(0,0)"/>
<path d="" fill="#242522" transform="translate(0,0)"/>
<path d="" fill="#1F1F1D" transform="translate(0,0)"/>
<path d="" fill="#1E1E1C" transform="translate(0,0)"/>
<path d="" fill="#242422" transform="translate(0,0)"/>
<path d="" fill="#161614" transform="translate(0,0)"/>
<path d="" fill="#232321" transform="translate(0,0)"/>
<path d="" fill="#171715" transform="translate(0,0)"/>
<path d="" fill="#232321" transform="translate(0,0)"/>
<path d="" fill="#2C2C2A" transform="translate(0,0)"/>
<path d="" fill="#111010" transform="translate(0,0)"/>
<path d="" fill="#181716" transform="translate(0,0)"/>
<path d="" fill="#1B1B1A" transform="translate(0,0)"/>
<path d="" fill="#171515" transform="translate(0,0)"/>
<path d="" fill="#1A1A18" transform="translate(0,0)"/>
<path d="" fill="#222221" transform="translate(0,0)"/>
<path d="" fill="#191918" transform="translate(0,0)"/>
<path d="" fill="#282826" transform="translate(0,0)"/>
<path d="" fill="#232321" transform="translate(0,0)"/>
<path d="" fill="#232321" transform="translate(0,0)"/>
<path d="" fill="#1D1D1B" transform="translate(0,0)"/>
<path d="" fill="#171715" transform="translate(0,0)"/>
<path d="" fill="#1B1B19" transform="translate(0,0)"/>
<path d="" fill="#232321" transform="translate(0,0)"/>
<path d="" fill="#222220" transform="translate(0,0)"/>
<path d="" fill="#181816" transform="translate(0,0)"/>
<path d="" fill="#252523" transform="translate(0,0)"/>
<path d="" fill="#20201D" transform="translate(0,0)"/>
<path d="" fill="#181716" transform="translate(0,0)"/>
<path d="" fill="#1A1A19" transform="translate(0,0)"/>
<path d="" fill="#181816" transform="translate(0,0)"/>
<path d="" fill="#242421" transform="translate(0,0)"/>
<path d="" fill="#191816" transform="translate(0,0)"/>
<path d="" fill="#191817" transform="translate(0,0)"/>
<path d="" fill="#191918" transform="translate(0,0)"/>
<path d="" fill="#1F1F1E" transform="translate(0,0)"/>
<path d="" fill="#20201E" transform="translate(0,0)"/>
<path d="" fill="#1E1E1C" transform="translate(0,0)"/>
<path d="" fill="#20201E" transform="translate(0,0)"/>
<path d="" fill="#1F1F1D" transform="translate(0,0)"/>
<path d="" fill="#20201E" transform="translate(0,0)"/>
<path d="" fill="#232321" transform="translate(0,0)"/>
<path d="" fill="#20201E" transform="translate(0,0)"/>
<path d="" fill="#171715" transform="translate(0,0)"/>
<path d="" fill="#20201E" transform="translate(0,0)"/>
<path d="" fill="#2B2B29" transform="translate(0,0)"/>
<path d="" fill="#141312" transform="translate(0,0)"/>
<path d="" fill="#222120" transform="translate(0,0)"/>
<path d="" fill="#20201E" transform="translate(0,0)"/>
<path d="" fill="#171715" transform="translate(0,0)"/>
<path d="" fill="#353532" transform="translate(0,0)"/>
<path d="" fill="#21211F" transform="translate(0,0)"/>
<path d="" fill="#2D2D2B" transform="translate(0,0)"/>
<path d="" fill="#1B1A19" transform="translate(0,0)"/>
<path d="" fill="#1E1E1D" transform="translate(0,0)"/>
<path d="" fill="#161615" transform="translate(0,0)"/>
<path d="" fill="#1E1D1B" transform="translate(0,0)"/>
<path d="" fill="#1B1B19" transform="translate(0,0)"/>
<path d="" fill="#191917" transform="translate(0,0)"/>
<path d="" fill="#1E1E1D" transform="translate(0,0)"/>
<path d="" fill="#20201E" transform="translate(0,0)"/>
<path d="" fill="#262624" transform="translate(0,0)"/>
<path d="" fill="#262624" transform="translate(0,0)"/>
<path d="" fill="#141412" transform="translate(0,0)"/>
<path d="" fill="#232322" transform="translate(0,0)"/>
<path d="" fill="#21211F" transform="translate(0,0)"/>
<path d="" fill="#292927" transform="translate(0,0)"/>
<path d="" fill="#161615" transform="translate(0,0)"/>
<path d="" fill="#1E1E1C" transform="translate(0,0)"/>
<path d="" fill="#242423" transform="translate(0,0)"/>
<path d="" fill="#1E1E1C" transform="translate(0,0)"/>
<path d="" fill="#1E1F1E" transform="translate(0,0)"/>
<path d="" fill="#1E1E1C" transform="translate(0,0)"/>
<path d="" fill="#272725" transform="translate(0,0)"/>
<path d="" fill="#31312F" transform="translate(0,0)"/>
<path d="" fill="#161615" transform="translate(0,0)"/>
<path d="" fill="#20201F" transform="translate(0,0)"/>
<path d="" fill="#2A2A28" transform="translate(0,0)"/>
<path d="" fill="#1F1F1D" transform="translate(0,0)"/>
<path d="" fill="#1E1E1C" transform="translate(0,0)"/>
<path d="" fill="#181715" transform="translate(0,0)"/>
<path d="" fill="#171715" transform="translate(0,0)"/>
<path d="" fill="#353532" transform="translate(0,0)"/>
<path d="" fill="#20201E" transform="translate(0,0)"/>
<path d="" fill="#1B1B19" transform="translate(0,0)"/>
<path d="" fill="#21211F" transform="translate(0,0)"/>
<path d="" fill="#232321" transform="translate(0,0)"/>
<path d="" fill="#363735" transform="translate(0,0)"/>
<path d="" fill="#1F1F1D" transform="translate(0,0)"/>
<path d="" fill="#222220" transform="translate(0,0)"/>
<path d="" fill="#323230" transform="translate(0,0)"/>
<path d="" fill="#1D1D1B" transform="translate(0,0)"/>
<path d="" fill="#1D1D1B" transform="translate(0,0)"/>
<path d="" fill="#272725" transform="translate(0,0)"/>
<path d="" fill="#20211F" transform="translate(0,0)"/>
<path d="" fill="#292927" transform="translate(0,0)"/>
<path d="" fill="#1E1E1C" transform="translate(0,0)"/>
<path d="" fill="#222220" transform="translate(0,0)"/>
<path d="" fill="#222220" transform="translate(0,0)"/>
<path d="" fill="#1E1E1C" transform="translate(0,0)"/>
<path d="" fill="#20201E" transform="translate(0,0)"/>
<path d="" fill="#191917" transform="translate(0,0)"/>
<path d="" fill="#1D1D1B" transform="translate(0,0)"/>
<path d="" fill="#1D1D1C" transform="translate(0,0)"/>
<path d="" fill="#272725" transform="translate(0,0)"/>
<path d="" fill="#171715" transform="translate(0,0)"/>
<path d="" fill="#242422" transform="translate(0,0)"/>
<path d="" fill="#222120" transform="translate(0,0)"/>
<path d="" fill="#191916" transform="translate(0,0)"/>
<path d="" fill="#1E1E1C" transform="translate(0,0)"/>
<path d="" fill="#171714" transform="translate(0,0)"/>
<path d="" fill="#1D1D1B" transform="translate(0,0)"/>
<path d="" fill="#222120" transform="translate(0,0)"/>
<path d="" fill="#181917" transform="translate(0,0)"/>
<path d="" fill="#191917" transform="translate(0,0)"/>
<path d="" fill="#1E1E1C" transform="translate(0,0)"/>
<path d="" fill="#2A2A28" transform="translate(0,0)"/>
<path d="" fill="#1F1F1D" transform="translate(0,0)"/>
<path d="" fill="#1F1F1D" transform="translate(0,0)"/>
<path d="" fill="#1D1D1B" transform="translate(0,0)"/>
<path d="" fill="#191918" transform="translate(0,0)"/>
<path d="" fill="#1B1B19" transform="translate(0,0)"/>
<path d="" fill="#282826" transform="translate(0,0)"/>
<path d="" fill="#1E1F1C" transform="translate(0,0)"/>
<path d="" fill="#1D1D1B" transform="translate(0,0)"/>
<path d="" fill="#1F1F1D" transform="translate(0,0)"/>
<path d="" fill="#181816" transform="translate(0,0)"/>
<path d="" fill="#171714" transform="translate(0,0)"/>
<path d="" fill="#1E1E1C" transform="translate(0,0)"/>
<path d="" fill="#262623" transform="translate(0,0)"/>
<path d="" fill="#171716" transform="translate(0,0)"/>
<path d="" fill="#131311" transform="translate(0,0)"/>
<path d="" fill="#191917" transform="translate(0,0)"/>
<path d="" fill="#1B1B1A" transform="translate(0,0)"/>
<path d="" fill="#21201F" transform="translate(0,0)"/>
<path d="" fill="#171714" transform="translate(0,0)"/>
<path d="" fill="#1E1E1C" transform="translate(0,0)"/>
<path d="" fill="#292927" transform="translate(0,0)"/>
<path d="" fill="#292928" transform="translate(0,0)"/>
<path d="" fill="#1E1E1D" transform="translate(0,0)"/>
<path d="" fill="#181816" transform="translate(0,0)"/>
<path d="" fill="#20201E" transform="translate(0,0)"/>
<path d="" fill="#21211F" transform="translate(0,0)"/>
<path d="" fill="#1A1A18" transform="translate(0,0)"/>
<path d="" fill="#1F1F1E" transform="translate(0,0)"/>
<path d="" fill="#1A1917" transform="translate(0,0)"/>
<path d="" fill="#20201E" transform="translate(0,0)"/>
<path d="" fill="#20201E" transform="translate(0,0)"/>
<path d="" fill="#1A1B19" transform="translate(0,0)"/>
<path d="" fill="#222220" transform="translate(0,0)"/>
<path d="" fill="#242422" transform="translate(0,0)"/>
<path d="" fill="#1C1C1A" transform="translate(0,0)"/>
<path d="" fill="#1E1E1C" transform="translate(0,0)"/>
<path d="" fill="#1B1B18" transform="translate(0,0)"/>
<path d="" fill="#1C1C1A" transform="translate(0,0)"/>
<path d="" fill="#1E1E1C" transform="translate(0,0)"/>
<path d="" fill="#1D1D1B" transform="translate(0,0)"/>
<path d="" fill="#191918" transform="translate(0,0)"/>
<path d="" fill="#1D1D1C" transform="translate(0,0)"/>
<path d="" fill="#191917" transform="translate(0,0)"/>
<path d="" fill="#252624" transform="translate(0,0)"/>
<path d="" fill="#1E1E1C" transform="translate(0,0)"/>
<path d="" fill="#1C1C1B" transform="translate(0,0)"/>
<path d="" fill="#232321" transform="translate(0,0)"/>
<path d="" fill="#1C1C1A" transform="translate(0,0)"/>
<path d="" fill="#1E1E1C" transform="translate(0,0)"/>
<path d="" fill="#181816" transform="translate(0,0)"/>
<path d="" fill="#1C1C1B" transform="translate(0,0)"/>
<path d="" fill="#1D1D1B" transform="translate(0,0)"/>
<path d="" fill="#131312" transform="translate(0,0)"/>
<path d="" fill="#131311" transform="translate(0,0)"/>
<path d="" fill="#2D2D2B" transform="translate(0,0)"/>
<path d="" fill="#1D1D1B" transform="translate(0,0)"/>
<path d="" fill="#121211" transform="translate(0,0)"/>
<path d="" fill="#2B2B29" transform="translate(0,0)"/>
<path d="" fill="#2E2F2C" transform="translate(0,0)"/>
<path d="" fill="#161715" transform="translate(0,0)"/>
<path d="" fill="#1C1C1A" transform="translate(0,0)"/>
<path d="" fill="#1E1E1C" transform="translate(0,0)"/>
<path d="" fill="#1D1D1B" transform="translate(0,0)"/>
<path d="" fill="#171715" transform="translate(0,0)"/>
<path d="" fill="#1E1E1C" transform="translate(0,0)"/>
<path d="" fill="#161715" transform="translate(0,0)"/>
<path d="" fill="#1E1E1C" transform="translate(0,0)"/>
<path d="" fill="#21211F" transform="translate(0,0)"/>
<path d="" fill="#171615" transform="translate(0,0)"/>
<path d="" fill="#191917" transform="translate(0,0)"/>
<path d="" fill="#1D1D1B" transform="translate(0,0)"/>
<path d="" fill="#1D1D1B" transform="translate(0,0)"/>
<path d="" fill="#1D1D1B" transform="translate(0,0)"/>
<path d="" fill="#121211" transform="translate(0,0)"/>
<path d="" fill="#1C1C1A" transform="translate(0,0)"/>
<path d="" fill="#1F1F1D" transform="translate(0,0)"/>
<path d="" fill="#1E1E1C" transform="translate(0,0)"/>
<path d="" fill="#181817" transform="translate(0,0)"/>
<path d="" fill="#1D1D1C" transform="translate(0,0)"/>
<path d="" fill="#1F1F1D" transform="translate(0,0)"/>
<path d="" fill="#1F1F1D" transform="translate(0,0)"/>
<path d="" fill="#1F1F1D" transform="translate(0,0)"/>
<path d="" fill="#1F1F1D" transform="translate(0,0)"/>
<path d="" fill="#31312E" transform="translate(0,0)"/>
<path d="" fill="#161715" transform="translate(0,0)"/>
<path d="" fill="#171715" transform="translate(0,0)"/>
<path d="" fill="#21211F" transform="translate(0,0)"/>
<path d="" fill="#1A1918" transform="translate(0,0)"/>
<path d="" fill="#161614" transform="translate(0,0)"/>
<path d="" fill="#242422" transform="translate(0,0)"/>
<path d="" fill="#171715" transform="translate(0,0)"/>
<path d="" fill="#181816" transform="translate(0,0)"/>
<path d="" fill="#1E1E1C" transform="translate(0,0)"/>
<path d="" fill="#1F1F1D" transform="translate(0,0)"/>
<path d="" fill="#1F1F1D" transform="translate(0,0)"/>
<path d="" fill="#1F1F1D" transform="translate(0,0)"/>
<path d="" fill="#161715" transform="translate(0,0)"/>
<path d="" fill="#1A1A19" transform="translate(0,0)"/>
<path d="" fill="#1F1F1D" transform="translate(0,0)"/>
<path d="" fill="#2B2B29" transform="translate(0,0)"/>
<path d="" fill="#1F1F1E" transform="translate(0,0)"/>
<path d="" fill="#171715" transform="translate(0,0)"/>
<path d="" fill="#20201E" transform="translate(0,0)"/>
<path d="" fill="#1D1D1C" transform="translate(0,0)"/>
<path d="" fill="#2C2C2A" transform="translate(0,0)"/>
<path d="" fill="#191918" transform="translate(0,0)"/>
<path d="" fill="#1D1D1B" transform="translate(0,0)"/>
<path d="" fill="#191917" transform="translate(0,0)"/>
<path d="" fill="#171715" transform="translate(0,0)"/>
<path d="" fill="#1B1A18" transform="translate(0,0)"/>
<path d="" fill="#1A1A18" transform="translate(0,0)"/>
<path d="" fill="#1D1D1B" transform="translate(0,0)"/>
<path d="" fill="#1F1F1D" transform="translate(0,0)"/>
<path d="" fill="#1E1E1C" transform="translate(0,0)"/>
<path d="" fill="#1F1E1D" transform="translate(0,0)"/>
<path d="" fill="#1D1D1B" transform="translate(0,0)"/>
<path d="" fill="#1C1C1A" transform="translate(0,0)"/>
<path d="" fill="#1F1F1D" transform="translate(0,0)"/>
<path d="" fill="#1F1F1D" transform="translate(0,0)"/>
<path d="" fill="#252624" transform="translate(0,0)"/>
<path d="" fill="#30302D" transform="translate(0,0)"/>
<path d="" fill="#1F1F1D" transform="translate(0,0)"/>
<path d="" fill="#191816" transform="translate(0,0)"/>
<path d="" fill="#232221" transform="translate(0,0)"/>
<path d="" fill="#1F1F1D" transform="translate(0,0)"/>
<path d="" fill="#1F1F1D" transform="translate(0,0)"/>
<path d="" fill="#21211F" transform="translate(0,0)"/>
<path d="" fill="#1F1F1D" transform="translate(0,0)"/>
<path d="" fill="#1C1B1A" transform="translate(0,0)"/>
<path d="" fill="#2D2D2B" transform="translate(0,0)"/>
<path d="" fill="#1D1D1B" transform="translate(0,0)"/>
<path d="" fill="#1F1F1D" transform="translate(0,0)"/>
<path d="" fill="#20201E" transform="translate(0,0)"/>
<path d="" fill="#1F1F1D" transform="translate(0,0)"/>
<path d="" fill="#1D1D1B" transform="translate(0,0)"/>
<path d="" fill="#1E1E1C" transform="translate(0,0)"/>
<path d="" fill="#1F1F1D" transform="translate(0,0)"/>
<path d="" fill="#1D1D1B" transform="translate(0,0)"/>
<path d="" fill="#1F1F1D" transform="translate(0,0)"/>
<path d="" fill="#1C1C1B" transform="translate(0,0)"/>
<path d="" fill="#20201E" transform="translate(0,0)"/>
<path d="" fill="#1E1E1D" transform="translate(0,0)"/>
<path d="" fill="#272826" transform="translate(0,0)"/>
<path d="" fill="#252523" transform="translate(0,0)"/>
<path d="" fill="#1B1B1A" transform="translate(0,0)"/>
<path d="" fill="#1E1E1C" transform="translate(0,0)"/>
<path d="" fill="#2F2E2D" transform="translate(0,0)"/>
<path d="" fill="#21211F" transform="translate(0,0)"/>
<path d="" fill="#333331" transform="translate(0,0)"/>
<path d="" fill="#242422" transform="translate(0,0)"/>
<path d="" fill="#292827" transform="translate(0,0)"/>
<path d="" fill="#222220" transform="translate(0,0)"/>
<path d="" fill="#222220" transform="translate(0,0)"/>
<path d="" fill="#181916" transform="translate(0,0)"/>
<path d="" fill="#2B2B28" transform="translate(0,0)"/>
<path d="" fill="#353533" transform="translate(0,0)"/>
<path d="" fill="#282825" transform="translate(0,0)"/>
<path d="" fill="#1C1B1B" transform="translate(0,0)"/>
<path d="" fill="#212120" transform="translate(0,0)"/>
<path d="" fill="#1E1E1C" transform="translate(0,0)"/>
<path d="" fill="#212120" transform="translate(0,0)"/>
<path d="" fill="#1D1D1B" transform="translate(0,0)"/>
<path d="" fill="#20201E" transform="translate(0,0)"/>
<path d="" fill="#2C2D2A" transform="translate(0,0)"/>
<path d="" fill="#20201D" transform="translate(0,0)"/>
<path d="" fill="#21211F" transform="translate(0,0)"/>
<path d="" fill="#1A1A18" transform="translate(0,0)"/>
<path d="" fill="#222220" transform="translate(0,0)"/>
<path d="" fill="#353633" transform="translate(0,0)"/>
<path d="" fill="#21211F" transform="translate(0,0)"/>
<path d="" fill="#232321" transform="translate(0,0)"/>
<path d="" fill="#1A1A18" transform="translate(0,0)"/>
<path d="" fill="#1E1E1C" transform="translate(0,0)"/>
<path d="" fill="#181817" transform="translate(0,0)"/>
<path d="" fill="#262624" transform="translate(0,0)"/>
<path d="" fill="#2D2E2B" transform="translate(0,0)"/>
<path d="" fill="#2B2A29" transform="translate(0,0)"/>
<path d="" fill="#1F1F1D" transform="translate(0,0)"/>
<path d="" fill="#20201F" transform="translate(0,0)"/>
<path d="" fill="#21211F" transform="translate(0,0)"/>
<path d="" fill="#1D1D1B" transform="translate(0,0)"/>
<path d="" fill="#222220" transform="translate(0,0)"/>
<path d="" fill="#21211F" transform="translate(0,0)"/>
<path d="" fill="#353533" transform="translate(0,0)"/>
<path d="" fill="#222220" transform="translate(0,0)"/>
<path d="" fill="#1E1E1C" transform="translate(0,0)"/>
<path d="" fill="#212120" transform="translate(0,0)"/>
<path d="" fill="#282827" transform="translate(0,0)"/>
<path d="" fill="#20201E" transform="translate(0,0)"/>
<path d="" fill="#20201E" transform="translate(0,0)"/>
<path d="" fill="#222220" transform="translate(0,0)"/>
<path d="" fill="#232322" transform="translate(0,0)"/>
<path d="" fill="#1F1F1D" transform="translate(0,0)"/>
<path d="" fill="#1D1D1B" transform="translate(0,0)"/>
<path d="" fill="#1E1E1C" transform="translate(0,0)"/>
<path d="" fill="#1E1E1C" transform="translate(0,0)"/>
<path d="" fill="#2E2D2C" transform="translate(0,0)"/>
<path d="" fill="#242322" transform="translate(0,0)"/>
<path d="" fill="#242421" transform="translate(0,0)"/>
<path d="" fill="#1E1E1C" transform="translate(0,0)"/>
<path d="" fill="#232321" transform="translate(0,0)"/>
<path d="" fill="#2E2E2C" transform="translate(0,0)"/>
<path d="" fill="#191917" transform="translate(0,0)"/>
<path d="" fill="#1E1E1C" transform="translate(0,0)"/>
<path d="" fill="#2B2B29" transform="translate(0,0)"/>
<path d="" fill="#1F1F1E" transform="translate(0,0)"/>
<path d="" fill="#191917" transform="translate(0,0)"/>
<path d="" fill="#353533" transform="translate(0,0)"/>
<path d="" fill="#222120" transform="translate(0,0)"/>
<path d="" fill="#121310" transform="translate(0,0)"/>
<path d="" fill="#222120" transform="translate(0,0)"/>
<path d="" fill="#21211F" transform="translate(0,0)"/>
<path d="" fill="#1D1D1C" transform="translate(0,0)"/>
<path d="" fill="#1F1F1D" transform="translate(0,0)"/>
<path d="" fill="#1B1B19" transform="translate(0,0)"/>
<path d="" fill="#21211F" transform="translate(0,0)"/>
<path d="" fill="#343432" transform="translate(0,0)"/>
<path d="" fill="#1F1F1D" transform="translate(0,0)"/>
<path d="" fill="#1D1D1B" transform="translate(0,0)"/>
<path d="" fill="#1D1D1C" transform="translate(0,0)"/>
<path d="" fill="#1F1F1D" transform="translate(0,0)"/>
<path d="" fill="#1D1D1B" transform="translate(0,0)"/>
<path d="" fill="#1F1F1E" transform="translate(0,0)"/>
<path d="" fill="#222220" transform="translate(0,0)"/>
<path d="" fill="#2A2A28" transform="translate(0,0)"/>
<path d="" fill="#30302F" transform="translate(0,0)"/>
<path d="" fill="#232321" transform="translate(0,0)"/>
<path d="" fill="#1A1A18" transform="translate(0,0)"/>
<path d="" fill="#1F1F1E" transform="translate(0,0)"/>
<path d="" fill="#1A1B19" transform="translate(0,0)"/>
<path d="" fill="#191917" transform="translate(0,0)"/>
<path d="" fill="#181816" transform="translate(0,0)"/>
<path d="" fill="#262624" transform="translate(0,0)"/>
<path d="" fill="#1E1E1C" transform="translate(0,0)"/>
<path d="" fill="#1D1D1C" transform="translate(0,0)"/>
<path d="" fill="#1C1D1B" transform="translate(0,0)"/>
<path d="" fill="#191917" transform="translate(0,0)"/>
<path d="" fill="#252523" transform="translate(0,0)"/>
<path d="" fill="#222220" transform="translate(0,0)"/>
<path d="" fill="#20201E" transform="translate(0,0)"/>
<path d="" fill="#1C1C19" transform="translate(0,0)"/>
<path d="" fill="#20201E" transform="translate(0,0)"/>
<path d="" fill="#1F1F1D" transform="translate(0,0)"/>
<path d="" fill="#191816" transform="translate(0,0)"/>
<path d="" fill="#20201E" transform="translate(0,0)"/>
<path d="" fill="#1A1A19" transform="translate(0,0)"/>
<path d="" fill="#282726" transform="translate(0,0)"/>
<path d="" fill="#1A1A18" transform="translate(0,0)"/>
<path d="" fill="#242422" transform="translate(0,0)"/>
<path d="" fill="#1F1F1D" transform="translate(0,0)"/>
<path d="" fill="#1B1B19" transform="translate(0,0)"/>
<path d="" fill="#232321" transform="translate(0,0)"/>
<path d="" fill="#1E1E1C" transform="translate(0,0)"/>
<path d="" fill="#363633" transform="translate(0,0)"/>
<path d="" fill="#20201E" transform="translate(0,0)"/>
<path d="" fill="#222321" transform="translate(0,0)"/>
<path d="" fill="#1B1B19" transform="translate(0,0)"/>
<path d="" fill="#1F1F1D" transform="translate(0,0)"/>
<path d="" fill="#2E2E2C" transform="translate(0,0)"/>
<path d="" fill="#2A2A28" transform="translate(0,0)"/>
<path d="" fill="#1E1E1C" transform="translate(0,0)"/>
<path d="" fill="#222220" transform="translate(0,0)"/>
<path d="" fill="#232321" transform="translate(0,0)"/>
<path d="" fill="#222220" transform="translate(0,0)"/>
<path d="" fill="#212120" transform="translate(0,0)"/>
<path d="" fill="#21211F" transform="translate(0,0)"/>
<path d="" fill="#242423" transform="translate(0,0)"/>
<path d="" fill="#222220" transform="translate(0,0)"/>
<path d="" fill="#1B1A18" transform="translate(0,0)"/>
<path d="" fill="#1E1E1D" transform="translate(0,0)"/>
<path d="" fill="#1D1D1B" transform="translate(0,0)"/>
<path d="" fill="#232322" transform="translate(0,0)"/>
<path d="" fill="#20201E" transform="translate(0,0)"/>
<path d="" fill="#191A18" transform="translate(0,0)"/>
<path d="" fill="#232321" transform="translate(0,0)"/>
<path d="" fill="#1F1F1D" transform="translate(0,0)"/>
<path d="" fill="#1F1F1D" transform="translate(0,0)"/>
<path d="" fill="#21211F" transform="translate(0,0)"/>
<path d="" fill="#333431" transform="translate(0,0)"/>
<path d="" fill="#1F1F1E" transform="translate(0,0)"/>
<path d="" fill="#2D2D2B" transform="translate(0,0)"/>
<path d="" fill="#1D1C1C" transform="translate(0,0)"/>
<path d="" fill="#1D1D1B" transform="translate(0,0)"/>
<path d="" fill="#20201E" transform="translate(0,0)"/>
<path d="" fill="#181816" transform="translate(0,0)"/>
<path d="" fill="#2C2C2A" transform="translate(0,0)"/>
<path d="" fill="#1E1E1C" transform="translate(0,0)"/>
<path d="" fill="#222220" transform="translate(0,0)"/>
<path d="" fill="#1D1C1A" transform="translate(0,0)"/>
<path d="" fill="#1A1A17" transform="translate(0,0)"/>
<path d="" fill="#191A17" transform="translate(0,0)"/>
<path d="" fill="#282826" transform="translate(0,0)"/>
<path d="" fill="#191917" transform="translate(0,0)"/>
<path d="" fill="#242422" transform="translate(0,0)"/>
<path d="" fill="#171815" transform="translate(0,0)"/>
<path d="" fill="#20201F" transform="translate(0,0)"/>
<path d="" fill="#21211F" transform="translate(0,0)"/>
<path d="" fill="#242422" transform="translate(0,0)"/>
<path d="" fill="#1F1F1D" transform="translate(0,0)"/>
<path d="" fill="#222221" transform="translate(0,0)"/>
<path d="" fill="#1C1C1B" transform="translate(0,0)"/>
<path d="" fill="#1A1A19" transform="translate(0,0)"/>
<path d="" fill="#151413" transform="translate(0,0)"/>
<path d="" fill="#1E1E1C" transform="translate(0,0)"/>
<path d="" fill="#171715" transform="translate(0,0)"/>
<path d="" fill="#1E1E1C" transform="translate(0,0)"/>
<path d="" fill="#1E1E1C" transform="translate(0,0)"/>
<path d="" fill="#191917" transform="translate(0,0)"/>
<path d="" fill="#1F1F1D" transform="translate(0,0)"/>
<path d="" fill="#171715" transform="translate(0,0)"/>
<path d="" fill="#171715" transform="translate(0,0)"/>
<path d="" fill="#1E1E1C" transform="translate(0,0)"/>
<path d="" fill="#1E1E1C" transform="translate(0,0)"/>
<path d="" fill="#1D1D1C" transform="translate(0,0)"/>
<path d="" fill="#1E1E1C" transform="translate(0,0)"/>
<path d="" fill="#191817" transform="translate(0,0)"/>
<path d="" fill="#2C2C2B" transform="translate(0,0)"/>
<path d="" fill="#1D1D1B" transform="translate(0,0)"/>
<path d="" fill="#222220" transform="translate(0,0)"/>
<path d="" fill="#171616" transform="translate(0,0)"/>
<path d="" fill="#141413" transform="translate(0,0)"/>
<path d="" fill="#181816" transform="translate(0,0)"/>
<path d="" fill="#31312F" transform="translate(0,0)"/>
<path d="" fill="#181816" transform="translate(0,0)"/>
<path d="" fill="#20201E" transform="translate(0,0)"/>
<path d="" fill="#2A2A28" transform="translate(0,0)"/>
<path d="" fill="#272724" transform="translate(0,0)"/>
<path d="" fill="#20201F" transform="translate(0,0)"/>
<path d="" fill="#31312F" transform="translate(0,0)"/>
<path d="" fill="#161614" transform="translate(0,0)"/>
<path d="" fill="#353534" transform="translate(0,0)"/>
<path d="" fill="#20201E" transform="translate(0,0)"/>
<path d="" fill="#232321" transform="translate(0,0)"/>
<path d="" fill="#1F1F1D" transform="translate(0,0)"/>
<path d="" fill="#20201E" transform="translate(0,0)"/>
<path d="" fill="#2B2B2A" transform="translate(0,0)"/>
<path d="" fill="#1D1D1B" transform="translate(0,0)"/>
<path d="" fill="#1C1C1B" transform="translate(0,0)"/>
<path d="" fill="#1E1E1D" transform="translate(0,0)"/>
<path d="" fill="#272725" transform="translate(0,0)"/>
<path d="" fill="#262625" transform="translate(0,0)"/>
<path d="" fill="#242423" transform="translate(0,0)"/>
<path d="" fill="#1B1B19" transform="translate(0,0)"/>
<path d="" fill="#1C1C1A" transform="translate(0,0)"/>
<path d="" fill="#1E1D1C" transform="translate(0,0)"/>
<path d="" fill="#242422" transform="translate(0,0)"/>
<path d="" fill="#20201E" transform="translate(0,0)"/>
<path d="" fill="#1B1C19" transform="translate(0,0)"/>
<path d="" fill="#21211F" transform="translate(0,0)"/>
<path d="" fill="#242322" transform="translate(0,0)"/>
<path d="" fill="#222220" transform="translate(0,0)"/>
<path d="" fill="#222120" transform="translate(0,0)"/>
<path d="" fill="#1E1E1D" transform="translate(0,0)"/>
<path d="" fill="#1B1A19" transform="translate(0,0)"/>
<path d="" fill="#1E1E1D" transform="translate(0,0)"/>
<path d="" fill="#1C1C1A" transform="translate(0,0)"/>
<path d="" fill="#20201E" transform="translate(0,0)"/>
<path d="" fill="#222220" transform="translate(0,0)"/>
<path d="" fill="#1E1E1C" transform="translate(0,0)"/>
<path d="" fill="#1C1C1A" transform="translate(0,0)"/>
<path d="" fill="#191917" transform="translate(0,0)"/>
<path d="" fill="#292928" transform="translate(0,0)"/>
<path d="" fill="#222220" transform="translate(0,0)"/>
<path d="" fill="#272725" transform="translate(0,0)"/>
<path d="" fill="#272725" transform="translate(0,0)"/>
<path d="" fill="#1D1D1B" transform="translate(0,0)"/>
<path d="" fill="#1A1A18" transform="translate(0,0)"/>
<path d="" fill="#31312F" transform="translate(0,0)"/>
<path d="" fill="#343533" transform="translate(0,0)"/>
<path d="" fill="#21211F" transform="translate(0,0)"/>
<path d="" fill="#181816" transform="translate(0,0)"/>
<path d="" fill="#21211F" transform="translate(0,0)"/>
<path d="" fill="#222220" transform="translate(0,0)"/>
<path d="" fill="#20201E" transform="translate(0,0)"/>
<path d="" fill="#1F1F1D" transform="translate(0,0)"/>
<path d="" fill="#252623" transform="translate(0,0)"/>
<path d="" fill="#1D1D1B" transform="translate(0,0)"/>
<path d="" fill="#1D1D1B" transform="translate(0,0)"/>
<path d="" fill="#232322" transform="translate(0,0)"/>
<path d="" fill="#212120" transform="translate(0,0)"/>
<path d="" fill="#31312E" transform="translate(0,0)"/>
<path d="" fill="#222220" transform="translate(0,0)"/>
<path d="" fill="#222220" transform="translate(0,0)"/>
<path d="" fill="#222220" transform="translate(0,0)"/>
<path d="" fill="#20201E" transform="translate(0,0)"/>
</svg>
